<svg width="14" height="14" viewBox="0 0 14 14" fill="none" xmlns="http://www.w3.org/2000/svg">
<path fill-rule="evenodd" clip-rule="evenodd" d="M3.32265 10.6771C1.29193 8.64633 1.29193 5.35387 3.32265 3.32314C5.35338 1.29242 8.64584 1.29242 10.6766 3.32314C11.692 4.33862 12.1996 5.66837 12.1996 7.0001C12.1996 7.55238 11.7517 8.0001 11.1994 8.0001C10.6471 8.0001 10.1994 7.55238 10.1994 7.0001C10.1994 5.23279 8.76674 3.8001 6.99942 3.8001C5.23211 3.8001 3.79942 5.23279 3.79942 7.0001C3.79942 8.76741 5.23211 10.2001 6.99942 10.2001C8.1637 10.2001 9.18276 9.57831 9.74263 8.64869C10.1307 8.99183 10.6407 9.2001 11.1994 9.2001C12.4086 9.2001 13.3899 8.22463 13.3994 7.01772C13.3995 7.01187 13.3996 7.00599 13.3996 7.0001C13.3996 5.36312 12.7747 3.72417 11.5251 2.47461C9.02574 -0.0247414 4.97348 -0.0247412 2.47413 2.47461C-0.0252295 4.97397 -0.0252295 9.02623 2.47413 11.5256C4.97348 14.0249 9.02574 14.0249 11.5251 11.5256C11.7594 11.2913 11.7594 10.9114 11.5251 10.6771C11.2908 10.4427 10.9109 10.4427 10.6766 10.6771C8.64584 12.7078 5.35338 12.7078 3.32265 10.6771ZM6.99942 5.0001C5.89485 5.0001 4.99942 5.89553 4.99942 7.0001C4.99942 8.10467 5.89485 9.0001 6.99942 9.0001C8.10399 9.0001 8.99942 8.10467 8.99942 7.0001C8.99942 5.89553 8.10399 5.0001 6.99942 5.0001Z" fill="#101323"/>
</svg>
