<svg width="32" height="32" viewBox="0 0 32 32" fill="none" xmlns="http://www.w3.org/2000/svg">
<g id="Logo mark">
<path id="Union" fill-rule="evenodd" clip-rule="evenodd" d="M18.6678 2.64637C17.2129 1.18538 14.8491 1.18045 13.3881 2.63537L10.9705 5.04294C9.50952 6.49786 9.50459 8.86166 10.9595 10.3227L13.3671 12.7403C14.822 14.2013 17.1858 14.2062 18.6468 12.7513L21.0644 10.3437C22.5254 8.88878 22.5303 6.52497 21.0754 5.06398L18.6678 2.64637ZM26.9569 10.9706C25.502 9.5096 23.1382 9.50467 21.6772 10.9596L19.2596 13.3672C17.7986 14.8221 17.7937 17.1859 19.2486 18.6469L21.6561 21.0645C23.1111 22.5255 25.4749 22.5304 26.9359 21.0755L29.3535 18.6679C30.8145 17.213 30.8194 14.8492 29.3645 13.3882L26.9569 10.9706ZM5.06 10.9244C6.52099 9.46952 8.8848 9.47444 10.3397 10.9354L12.7473 13.353C14.2022 14.814 14.1973 17.1778 12.7363 18.6328L10.3187 21.0403C8.85768 22.4952 6.49387 22.4903 5.03895 21.0293L2.63139 18.6117C1.17647 17.1507 1.18139 14.7869 2.64238 13.332L5.06 10.9244ZM18.6366 19.2636C17.1817 17.8026 14.8179 17.7976 13.3569 19.2526L10.9393 21.6601C9.47827 23.115 9.47334 25.4789 10.9283 26.9398L13.3358 29.3575C14.7907 30.8184 17.1546 30.8234 18.6155 29.3685L21.0332 26.9609C22.4941 25.506 22.4991 23.1422 21.0442 21.6812L18.6366 19.2636Z" fill="white"/>
</g>
</svg>
