<svg width="25" height="25" viewBox="0 0 25 25" fill="none" xmlns="http://www.w3.org/2000/svg">
<g id="vuesax/bold/home">
<g id="home">
<path id="Vector" d="M21.6307 8.51002L15.0807 3.27002C13.8007 2.25002 11.8007 2.24002 10.5307 3.26002L3.98074 8.51002C3.04074 9.26002 2.47074 10.76 2.67074 11.94L3.93074 19.48C4.22074 21.17 5.79074 22.5 7.50074 22.5H18.1007C19.7907 22.5 21.3907 21.14 21.6807 19.47L22.9407 11.93C23.1207 10.76 22.5507 9.26002 21.6307 8.51002ZM13.5507 18.5C13.5507 18.91 13.2107 19.25 12.8007 19.25C12.3907 19.25 12.0507 18.91 12.0507 18.5V15.5C12.0507 15.09 12.3907 14.75 12.8007 14.75C13.2107 14.75 13.5507 15.09 13.5507 15.5V18.5Z" fill="#7B68EE"/>
</g>
</g>
</svg>
