<svg width="30" height="30" viewBox="0 0 30 30" fill="none" xmlns="http://www.w3.org/2000/svg">
<path fill-rule="evenodd" clip-rule="evenodd" d="M17.6678 1.64637C16.2129 0.185379 13.8491 0.180454 12.3881 1.63537L9.97051 4.04294C8.50952 5.49786 8.50459 7.86166 9.95951 9.32265L12.3671 11.7403C13.822 13.2013 16.1858 13.2062 17.6468 11.7513L20.0644 9.3437C21.5254 7.88878 21.5303 5.52497 20.0754 4.06398L17.6678 1.64637ZM25.9569 9.97059C24.502 8.5096 22.1382 8.50467 20.6772 9.95959L18.2596 12.3672C16.7986 13.8221 16.7937 16.1859 18.2486 17.6469L20.6561 20.0645C22.1111 21.5255 24.4749 21.5304 25.9359 20.0755L28.3535 17.6679C29.8145 16.213 29.8194 13.8492 28.3645 12.3882L25.9569 9.97059ZM4.06 9.92444C5.52099 8.46952 7.8848 8.47444 9.33971 9.93543L11.7473 12.353C13.2022 13.814 13.1973 16.1778 11.7363 17.6328L9.31867 20.0403C7.85768 21.4952 5.49387 21.4903 4.03895 20.0293L1.63139 17.6117C0.17647 16.1507 0.181394 13.7869 1.64238 12.332L4.06 9.92444ZM17.6366 18.2636C16.1817 16.8026 13.8179 16.7976 12.3569 18.2526L9.93926 20.6601C8.47827 22.115 8.47334 24.4789 9.92826 25.9398L12.3358 28.3575C13.7907 29.8184 16.1546 29.8234 17.6155 28.3685L20.0332 25.9609C21.4941 24.506 21.4991 22.1422 20.0442 20.6812L17.6366 18.2636Z" fill="white"/>
</svg>
