<svg width="25" height="25" viewBox="0 0 25 25" fill="none" xmlns="http://www.w3.org/2000/svg">
<g id="vuesax/outline/message-notif">
<g id="message-notif">
<path id="Vector" d="M12.6016 23.31C11.9116 23.31 11.2616 22.96 10.8016 22.35L9.30156 20.35C9.27156 20.31 9.15156 20.25 9.09156 20.25H8.60156C4.43156 20.25 1.85156 19.12 1.85156 13.5V8.5C1.85156 4.08 4.18156 1.75 8.60156 1.75H14.6016C15.0116 1.75 15.3516 2.09 15.3516 2.5C15.3516 2.91 15.0116 3.25 14.6016 3.25H8.60156C5.02156 3.25 3.35156 4.92 3.35156 8.5V13.5C3.35156 18.02 4.90156 18.75 8.60156 18.75H9.10156C9.61156 18.75 10.1916 19.04 10.5016 19.45L12.0016 21.45C12.3516 21.91 12.8516 21.91 13.2016 21.45L14.7016 19.45C15.0316 19.01 15.5516 18.75 16.1016 18.75H16.6016C20.1816 18.75 21.8516 17.08 21.8516 13.5V10.5C21.8516 10.09 22.1916 9.75 22.6016 9.75C23.0116 9.75 23.3516 10.09 23.3516 10.5V13.5C23.3516 17.92 21.0216 20.25 16.6016 20.25H16.1016C16.0216 20.25 15.9516 20.29 15.9016 20.35L14.4016 22.35C13.9416 22.96 13.2916 23.31 12.6016 23.31Z" fill="#667085"/>
<path id="Vector_2" d="M12.6016 12.5C12.0416 12.5 11.6016 12.05 11.6016 11.5C11.6016 10.95 12.0516 10.5 12.6016 10.5C13.1516 10.5 13.6016 10.95 13.6016 11.5C13.6016 12.05 13.1616 12.5 12.6016 12.5Z" fill="#667085"/>
<path id="Vector_3" d="M16.6016 12.5C16.0416 12.5 15.6016 12.05 15.6016 11.5C15.6016 10.95 16.0516 10.5 16.6016 10.5C17.1516 10.5 17.6016 10.95 17.6016 11.5C17.6016 12.05 17.1616 12.5 16.6016 12.5Z" fill="#667085"/>
<path id="Vector_4" d="M8.60156 12.5C8.04156 12.5 7.60156 12.05 7.60156 11.5C7.60156 10.95 8.05156 10.5 8.60156 10.5C9.15156 10.5 9.60156 10.95 9.60156 11.5C9.60156 12.05 9.16156 12.5 8.60156 12.5Z" fill="#667085"/>
<path id="Vector_5" d="M20.1016 8.25C18.3116 8.25 16.8516 6.79 16.8516 5C16.8516 3.21 18.3116 1.75 20.1016 1.75C21.8916 1.75 23.3516 3.21 23.3516 5C23.3516 6.79 21.8916 8.25 20.1016 8.25ZM20.1016 3.25C19.1416 3.25 18.3516 4.04 18.3516 5C18.3516 5.96 19.1416 6.75 20.1016 6.75C21.0616 6.75 21.8516 5.96 21.8516 5C21.8516 4.04 21.0616 3.25 20.1016 3.25Z" fill="#667085"/>
</g>
</g>
</svg>
