<svg width="25" height="25" viewBox="0 0 25 25" fill="none" xmlns="http://www.w3.org/2000/svg">
<g id="vuesax/outline/frame">
<g id="frame">
<path id="Vector" d="M12.3617 12.12C12.3317 12.12 12.3117 12.12 12.2817 12.12C12.2317 12.11 12.1617 12.11 12.1017 12.12C9.20172 12.03 7.01172 9.75 7.01172 6.94C7.01172 4.08 9.34172 1.75 12.2017 1.75C15.0617 1.75 17.3917 4.08 17.3917 6.94C17.3817 9.75 15.1817 12.03 12.3917 12.12C12.3817 12.12 12.3717 12.12 12.3617 12.12ZM12.2017 3.25C10.1717 3.25 8.51172 4.91 8.51172 6.94C8.51172 8.94 10.0717 10.55 12.0617 10.62C12.1117 10.61 12.2517 10.61 12.3817 10.62C14.3417 10.53 15.8817 8.92 15.8917 6.94C15.8917 4.91 14.2317 3.25 12.2017 3.25Z" fill="#667085"/>
<path id="Vector_2" d="M12.3708 23.05C10.4108 23.05 8.44078 22.55 6.95078 21.55C5.56078 20.63 4.80078 19.37 4.80078 18C4.80078 16.63 5.56078 15.36 6.95078 14.43C9.95078 12.44 14.8108 12.44 17.7908 14.43C19.1708 15.35 19.9408 16.61 19.9408 17.98C19.9408 19.35 19.1808 20.62 17.7908 21.55C16.2908 22.55 14.3308 23.05 12.3708 23.05ZM7.78078 15.69C6.82078 16.33 6.30078 17.15 6.30078 18.01C6.30078 18.86 6.83078 19.68 7.78078 20.31C10.2708 21.98 14.4708 21.98 16.9608 20.31C17.9208 19.67 18.4408 18.85 18.4408 17.99C18.4408 17.14 17.9108 16.32 16.9608 15.69C14.4708 14.03 10.2708 14.03 7.78078 15.69Z" fill="#667085"/>
</g>
</g>
</svg>
