<svg width="74" height="75" viewBox="0 0 74 75" fill="none" xmlns="http://www.w3.org/2000/svg">
<path fill-rule="evenodd" clip-rule="evenodd" d="M0.4375 37.5C0.4375 17.3071 16.8071 0.9375 37 0.9375C57.1929 0.9375 73.5625 17.3071 73.5625 37.5C73.5625 57.6929 57.1929 74.0625 37 74.0625C16.8071 74.0625 0.4375 57.6929 0.4375 37.5ZM50.5386 30.6972C51.4415 29.4333 51.1487 27.6767 49.8847 26.7739C48.6208 25.871 46.8642 26.1638 45.9614 27.4278L33.8286 44.4136L27.7387 38.3238C26.6404 37.2254 24.8596 37.2254 23.7613 38.3238C22.6629 39.4221 22.6629 41.2029 23.7613 42.3012L32.1988 50.7387C32.7834 51.3233 33.5956 51.6211 34.4195 51.5529C35.2434 51.4847 35.9956 51.0575 36.4761 50.3847L50.5386 30.6972Z" fill="#7B68EE"/>
</svg>
