<svg width="25" height="24" viewBox="0 0 25 24" fill="none" xmlns="http://www.w3.org/2000/svg">
<g id="vuesax/outline/clock">
<g id="clock">
<path id="Vector" d="M12.4004 22.75C6.47039 22.75 1.65039 17.93 1.65039 12C1.65039 6.07 6.47039 1.25 12.4004 1.25C18.3304 1.25 23.1504 6.07 23.1504 12C23.1504 17.93 18.3304 22.75 12.4004 22.75ZM12.4004 2.75C7.30039 2.75 3.15039 6.9 3.15039 12C3.15039 17.1 7.30039 21.25 12.4004 21.25C17.5004 21.25 21.6504 17.1 21.6504 12C21.6504 6.9 17.5004 2.75 12.4004 2.75Z" fill="#667085"/>
<path id="Vector_2" d="M16.111 15.93C15.981 15.93 15.851 15.9 15.731 15.82L12.631 13.97C11.861 13.51 11.291 12.5 11.291 11.61V7.51001C11.291 7.10001 11.631 6.76001 12.041 6.76001C12.451 6.76001 12.791 7.10001 12.791 7.51001V11.61C12.791 11.97 13.091 12.5 13.401 12.68L16.501 14.53C16.861 14.74 16.971 15.2 16.761 15.56C16.611 15.8 16.361 15.93 16.111 15.93Z" fill="#667085"/>
</g>
</g>
</svg>
