<svg width="21" height="20" viewBox="0 0 21 20" fill="none" xmlns="http://www.w3.org/2000/svg">
<g id="vuesax/outline/timer">
<g id="timer">
<path id="Vector" d="M10.5007 18.9583C6.13398 18.9583 2.58398 15.4083 2.58398 11.0417C2.58398 6.675 6.13398 3.125 10.5007 3.125C14.8673 3.125 18.4173 6.675 18.4173 11.0417C18.4173 15.4083 14.8673 18.9583 10.5007 18.9583ZM10.5007 4.375C6.82565 4.375 3.83398 7.36667 3.83398 11.0417C3.83398 14.7167 6.82565 17.7083 10.5007 17.7083C14.1757 17.7083 17.1673 14.7167 17.1673 11.0417C17.1673 7.36667 14.1757 4.375 10.5007 4.375Z" fill="#D0D5DD"/>
<path id="Vector_2" d="M10.5 11.4583C10.1583 11.4583 9.875 11.175 9.875 10.8333V6.66663C9.875 6.32496 10.1583 6.04163 10.5 6.04163C10.8417 6.04163 11.125 6.32496 11.125 6.66663V10.8333C11.125 11.175 10.8417 11.4583 10.5 11.4583Z" fill="#D0D5DD"/>
<path id="Vector_3" d="M13 2.29163H8C7.65833 2.29163 7.375 2.00829 7.375 1.66663C7.375 1.32496 7.65833 1.04163 8 1.04163H13C13.3417 1.04163 13.625 1.32496 13.625 1.66663C13.625 2.00829 13.3417 2.29163 13 2.29163Z" fill="#D0D5DD"/>
</g>
</g>
</svg>
