<svg width="20" height="20" viewBox="0 0 20 20" fill="none" xmlns="http://www.w3.org/2000/svg">
<path d="M5.83334 12.2419C5.49167 12.2419 5.20834 11.9586 5.20834 11.6169V8.94189C5.20834 8.60023 5.49167 8.31689 5.83334 8.31689C6.175 8.31689 6.45834 8.60023 6.45834 8.94189V11.6169C6.45834 11.9669 6.175 12.2419 5.83334 12.2419Z" fill="#101323"/>
<path d="M10 13.6917C9.65833 13.6917 9.375 13.4083 9.375 13.0667V7.5C9.375 7.15833 9.65833 6.875 10 6.875C10.3417 6.875 10.625 7.15833 10.625 7.5V13.0667C10.625 13.4083 10.3417 13.6917 10 13.6917Z" fill="#101323"/>
<path d="M14.1667 12.2419C13.825 12.2419 13.5417 11.9586 13.5417 11.6169V8.94189C13.5417 8.60023 13.825 8.31689 14.1667 8.31689C14.5083 8.31689 14.7917 8.60023 14.7917 8.94189V11.6169C14.7917 11.9669 14.5083 12.2419 14.1667 12.2419Z" fill="#101323"/>
<path d="M12.5 18.9582H7.5C2.975 18.9582 1.04166 17.0248 1.04166 12.4998V7.49984C1.04166 2.97484 2.975 1.0415 7.5 1.0415H12.5C17.025 1.0415 18.9583 2.97484 18.9583 7.49984V12.4998C18.9583 17.0248 17.025 18.9582 12.5 18.9582ZM7.5 2.2915C3.65833 2.2915 2.29166 3.65817 2.29166 7.49984V12.4998C2.29166 16.3415 3.65833 17.7082 7.5 17.7082H12.5C16.3417 17.7082 17.7083 16.3415 17.7083 12.4998V7.49984C17.7083 3.65817 16.3417 2.2915 12.5 2.2915H7.5Z" fill="#101323"/>
</svg>
