<svg width="20" height="20" viewBox="0 0 20 20" fill="none" xmlns="http://www.w3.org/2000/svg">
<path d="M6.66666 4.79199C6.325 4.79199 6.04166 4.50866 6.04166 4.16699V1.66699C6.04166 1.32533 6.325 1.04199 6.66666 1.04199C7.00833 1.04199 7.29166 1.32533 7.29166 1.66699V4.16699C7.29166 4.50866 7.00833 4.79199 6.66666 4.79199Z" fill="#101323"/>
<path d="M13.3333 4.79199C12.9917 4.79199 12.7083 4.50866 12.7083 4.16699V1.66699C12.7083 1.32533 12.9917 1.04199 13.3333 1.04199C13.675 1.04199 13.9583 1.32533 13.9583 1.66699V4.16699C13.9583 4.50866 13.675 4.79199 13.3333 4.79199Z" fill="#101323"/>
<path d="M7.08333 12.0829C6.975 12.0829 6.86666 12.0663 6.76666 12.0163C6.66666 11.9746 6.57499 11.9163 6.49166 11.8413C6.34166 11.6829 6.25 11.4663 6.25 11.2496C6.25 11.1413 6.275 11.0329 6.31667 10.9329C6.35833 10.8329 6.41666 10.7413 6.49166 10.6579C6.57499 10.5829 6.66666 10.5246 6.76666 10.4829C7.06666 10.3579 7.44167 10.4246 7.67501 10.6579C7.75001 10.7413 7.80833 10.8329 7.85 10.9329C7.89166 11.0329 7.91667 11.1413 7.91667 11.2496C7.91667 11.4663 7.82501 11.6829 7.67501 11.8413C7.51667 11.9913 7.3 12.0829 7.08333 12.0829Z" fill="#101323"/>
<path d="M10 12.0837C9.78333 12.0837 9.56666 11.992 9.40833 11.842C9.33333 11.7587 9.275 11.6671 9.23333 11.5671C9.19167 11.4671 9.16666 11.3587 9.16666 11.2504C9.16666 11.0337 9.25833 10.8171 9.40833 10.6587C9.64166 10.4254 10.0083 10.3504 10.3167 10.4837C10.4167 10.5254 10.5083 10.5837 10.5917 10.6587C10.7417 10.8171 10.8333 11.0337 10.8333 11.2504C10.8333 11.3587 10.8167 11.4671 10.7667 11.5671C10.725 11.6671 10.6667 11.7587 10.5917 11.842C10.5083 11.917 10.4167 11.9754 10.3167 12.0171C10.2167 12.0671 10.1083 12.0837 10 12.0837Z" fill="#101323"/>
<path d="M7.08333 14.9997C6.975 14.9997 6.86666 14.9747 6.76666 14.9331C6.66666 14.8914 6.57499 14.8331 6.49166 14.7581C6.34166 14.5997 6.25 14.3914 6.25 14.1664C6.25 14.0581 6.275 13.9497 6.31667 13.8497C6.35833 13.7414 6.41666 13.6581 6.49166 13.5747C6.57499 13.4997 6.66666 13.4414 6.76666 13.3997C7.06666 13.2664 7.44167 13.3414 7.67501 13.5747C7.75001 13.6581 7.80833 13.7414 7.85 13.8497C7.89166 13.9497 7.91667 14.0581 7.91667 14.1664C7.91667 14.3914 7.82501 14.5997 7.67501 14.7581C7.51667 14.9081 7.3 14.9997 7.08333 14.9997Z" fill="#101323"/>
<path d="M17.0833 8.20019H2.91666C2.575 8.20019 2.29166 7.91686 2.29166 7.5752C2.29166 7.23353 2.575 6.9502 2.91666 6.9502H17.0833C17.425 6.9502 17.7083 7.23353 17.7083 7.5752C17.7083 7.91686 17.425 8.20019 17.0833 8.20019Z" fill="#101323"/>
<path d="M15 19.7917C12.8167 19.7917 11.0417 18.0167 11.0417 15.8333C11.0417 13.65 12.8167 11.875 15 11.875C17.1833 11.875 18.9583 13.65 18.9583 15.8333C18.9583 18.0167 17.1833 19.7917 15 19.7917ZM15 13.125C13.5083 13.125 12.2917 14.3417 12.2917 15.8333C12.2917 17.325 13.5083 18.5417 15 18.5417C16.4917 18.5417 17.7083 17.325 17.7083 15.8333C17.7083 14.3417 16.4917 13.125 15 13.125Z" fill="#101323"/>
<path d="M16.2417 16.5H13.75C13.4083 16.5 13.125 16.2167 13.125 15.875C13.125 15.5333 13.4083 15.25 13.75 15.25H16.2417C16.5833 15.25 16.8667 15.5333 16.8667 15.875C16.8667 16.2167 16.5917 16.5 16.2417 16.5Z" fill="#101323"/>
<path d="M15 17.7749C14.6583 17.7749 14.375 17.4915 14.375 17.1499V14.6582C14.375 14.3165 14.6583 14.0332 15 14.0332C15.3417 14.0332 15.625 14.3165 15.625 14.6582V17.1499C15.625 17.4915 15.3417 17.7749 15 17.7749Z" fill="#101323"/>
<path d="M12.8083 18.9587H6.66667C3.625 18.9587 1.875 17.2087 1.875 14.167V7.08366C1.875 4.04199 3.625 2.29199 6.66667 2.29199H13.3333C16.375 2.29199 18.125 4.04199 18.125 7.08366V13.6336C18.125 13.892 17.9667 14.1253 17.7167 14.217C17.475 14.3087 17.2 14.242 17.025 14.042C16.5083 13.4587 15.7667 13.1253 14.9917 13.1253C13.5 13.1253 12.2833 14.342 12.2833 15.8337C12.2833 16.3253 12.4167 16.8087 12.675 17.2253C12.8167 17.4753 13 17.6837 13.2 17.8587C13.4 18.0253 13.475 18.3003 13.3833 18.5503C13.3083 18.792 13.075 18.9587 12.8083 18.9587ZM6.66667 3.54199C4.28333 3.54199 3.125 4.70033 3.125 7.08366V14.167C3.125 16.5503 4.28333 17.7087 6.66667 17.7087H11.5167C11.2083 17.142 11.0417 16.5003 11.0417 15.8337C11.0417 13.6503 12.8167 11.8753 15 11.8753C15.6583 11.8753 16.3083 12.042 16.875 12.3503V7.08366C16.875 4.70033 15.7167 3.54199 13.3333 3.54199H6.66667Z" fill="#101323"/>
</svg>
