<svg width="20" height="20" viewBox="0 0 20 20" fill="none" xmlns="http://www.w3.org/2000/svg">
<path d="M10 13.125C8.275 13.125 6.875 11.725 6.875 10C6.875 8.275 8.275 6.875 10 6.875C11.725 6.875 13.125 8.275 13.125 10C13.125 11.725 11.725 13.125 10 13.125ZM10 8.125C8.96667 8.125 8.125 8.96667 8.125 10C8.125 11.0333 8.96667 11.875 10 11.875C11.0333 11.875 11.875 11.0333 11.875 10C11.875 8.96667 11.0333 8.125 10 8.125Z" fill="#101323"/>
<path d="M12.675 18.4917C12.5 18.4917 12.325 18.4667 12.15 18.4251C11.6333 18.2834 11.2 17.9584 10.925 17.5001L10.825 17.3334C10.3333 16.4834 9.65833 16.4834 9.16666 17.3334L9.075 17.4917C8.8 17.9584 8.36666 18.2917 7.85 18.4251C7.325 18.5667 6.78333 18.4917 6.325 18.2167L4.89166 17.3917C4.38333 17.1001 4.01666 16.6251 3.85833 16.0501C3.70833 15.4751 3.78333 14.8834 4.075 14.3751C4.31666 13.9501 4.38333 13.5667 4.24166 13.3251C4.1 13.0834 3.74166 12.9417 3.25 12.9417C2.03333 12.9417 1.04166 11.9501 1.04166 10.7334V9.26674C1.04166 8.05008 2.03333 7.05841 3.25 7.05841C3.74166 7.05841 4.1 6.91674 4.24166 6.67508C4.38333 6.43341 4.325 6.05008 4.075 5.62508C3.78333 5.11674 3.70833 4.51674 3.85833 3.95008C4.00833 3.37508 4.375 2.90008 4.89166 2.60841L6.33333 1.78341C7.275 1.22508 8.51666 1.55008 9.08333 2.50841L9.18333 2.67508C9.675 3.52508 10.35 3.52508 10.8417 2.67508L10.9333 2.51674C11.5 1.55008 12.7417 1.22508 13.6917 1.79174L15.125 2.61674C15.6333 2.90841 16 3.38341 16.1583 3.95841C16.3083 4.53341 16.2333 5.12508 15.9417 5.63341C15.7 6.05841 15.6333 6.44174 15.775 6.68341C15.9167 6.92508 16.275 7.06674 16.7667 7.06674C17.9833 7.06674 18.975 8.05841 18.975 9.27508V10.7417C18.975 11.9584 17.9833 12.9501 16.7667 12.9501C16.275 12.9501 15.9167 13.0917 15.775 13.3334C15.6333 13.5751 15.6917 13.9584 15.9417 14.3834C16.2333 14.8917 16.3167 15.4917 16.1583 16.0584C16.0083 16.6334 15.6417 17.1084 15.125 17.4001L13.6833 18.2251C13.3667 18.4001 13.025 18.4917 12.675 18.4917ZM10 15.4084C10.7417 15.4084 11.4333 15.8751 11.9083 16.7001L12 16.8584C12.1 17.0334 12.2667 17.1584 12.4667 17.2084C12.6667 17.2584 12.8667 17.2334 13.0333 17.1334L14.475 16.3001C14.6917 16.1751 14.8583 15.9667 14.925 15.7167C14.9917 15.4667 14.9583 15.2084 14.8333 14.9917C14.3583 14.1751 14.3 13.3334 14.6667 12.6917C15.0333 12.0501 15.7917 11.6834 16.7417 11.6834C17.275 11.6834 17.7 11.2584 17.7 10.7251V9.25841C17.7 8.73341 17.275 8.30008 16.7417 8.30008C15.7917 8.30008 15.0333 7.93341 14.6667 7.29174C14.3 6.65008 14.3583 5.80841 14.8333 4.99174C14.9583 4.77508 14.9917 4.51674 14.925 4.26674C14.8583 4.01674 14.7 3.81674 14.4833 3.68341L13.0417 2.85841C12.6833 2.64174 12.2083 2.76674 11.9917 3.13341L11.9 3.29174C11.425 4.11674 10.7333 4.58341 9.99166 4.58341C9.25 4.58341 8.55833 4.11674 8.08333 3.29174L7.99166 3.12508C7.78333 2.77508 7.31666 2.65008 6.95833 2.85841L5.51666 3.69174C5.3 3.81674 5.13333 4.02508 5.06666 4.27508C5 4.52508 5.03333 4.78341 5.15833 5.00008C5.63333 5.81674 5.69166 6.65841 5.325 7.30008C4.95833 7.94174 4.2 8.30841 3.25 8.30841C2.71666 8.30841 2.29166 8.73341 2.29166 9.26674V10.7334C2.29166 11.2584 2.71666 11.6917 3.25 11.6917C4.2 11.6917 4.95833 12.0584 5.325 12.7001C5.69166 13.3417 5.63333 14.1834 5.15833 15.0001C5.03333 15.2167 5 15.4751 5.06666 15.7251C5.13333 15.9751 5.29166 16.1751 5.50833 16.3084L6.95 17.1334C7.125 17.2417 7.33333 17.2667 7.525 17.2167C7.725 17.1667 7.89166 17.0334 8 16.8584L8.09166 16.7001C8.56666 15.8834 9.25833 15.4084 10 15.4084Z" fill="#101323"/>
</svg>
