<svg width="20" height="20" viewBox="0 0 20 20" fill="none" xmlns="http://www.w3.org/2000/svg">
<path d="M7.63301 9.68317C7.60801 9.68317 7.59134 9.68317 7.56634 9.68317C7.52468 9.67484 7.46634 9.67484 7.41634 9.68317C4.99967 9.60817 3.17467 7.70817 3.17467 5.3665C3.17467 2.98317 5.11634 1.0415 7.49968 1.0415C9.88301 1.0415 11.8247 2.98317 11.8247 5.3665C11.8163 7.70817 9.98301 9.60817 7.65801 9.68317C7.64967 9.68317 7.64134 9.68317 7.63301 9.68317ZM7.49968 2.2915C5.80801 2.2915 4.42467 3.67484 4.42467 5.3665C4.42467 7.03317 5.72467 8.37484 7.38301 8.43317C7.43301 8.42484 7.54134 8.42484 7.64968 8.43317C9.28301 8.35817 10.5663 7.0165 10.5747 5.3665C10.5747 3.67484 9.19134 2.2915 7.49968 2.2915Z" fill="#101323"/>
<path d="M13.783 9.79183C13.758 9.79183 13.733 9.79183 13.708 9.7835C13.3663 9.81683 13.0163 9.57516 12.983 9.2335C12.9497 8.89183 13.158 8.5835 13.4997 8.54183C13.5997 8.5335 13.708 8.5335 13.7997 8.5335C15.0163 8.46683 15.9663 7.46683 15.9663 6.24183C15.9663 4.97516 14.9413 3.95016 13.6747 3.95016C13.333 3.9585 13.0497 3.67516 13.0497 3.3335C13.0497 2.99183 13.333 2.7085 13.6747 2.7085C15.6247 2.7085 17.2163 4.30016 17.2163 6.25016C17.2163 8.16683 15.7163 9.71683 13.808 9.79183C13.7997 9.79183 13.7913 9.79183 13.783 9.79183Z" fill="#101323"/>
<path d="M7.64134 18.7918C6.00801 18.7918 4.36634 18.3752 3.12467 17.5418C1.96634 16.7752 1.33301 15.7252 1.33301 14.5835C1.33301 13.4418 1.96634 12.3835 3.12467 11.6085C5.62467 9.95016 9.67467 9.95016 12.158 11.6085C13.308 12.3752 13.9497 13.4252 13.9497 14.5668C13.9497 15.7085 13.3163 16.7668 12.158 17.5418C10.908 18.3752 9.27467 18.7918 7.64134 18.7918ZM3.81634 12.6585C3.01634 13.1918 2.58301 13.8752 2.58301 14.5918C2.58301 15.3002 3.02467 15.9835 3.81634 16.5085C5.89134 17.9002 9.39134 17.9002 11.4663 16.5085C12.2663 15.9752 12.6997 15.2918 12.6997 14.5752C12.6997 13.8668 12.258 13.1835 11.4663 12.6585C9.39134 11.2752 5.89134 11.2752 3.81634 12.6585Z" fill="#101323"/>
<path d="M15.283 17.2917C14.9913 17.2917 14.733 17.0917 14.6747 16.7917C14.608 16.45 14.8247 16.125 15.158 16.05C15.683 15.9417 16.1663 15.7333 16.5413 15.4417C17.0163 15.0833 17.2747 14.6333 17.2747 14.1583C17.2747 13.6833 17.0163 13.2333 16.5497 12.8833C16.183 12.6 15.7247 12.4 15.183 12.275C14.8497 12.2 14.633 11.8667 14.708 11.525C14.783 11.1917 15.1163 10.975 15.458 11.05C16.1747 11.2083 16.7997 11.4917 17.308 11.8833C18.083 12.4667 18.5247 13.2917 18.5247 14.1583C18.5247 15.025 18.0747 15.85 17.2997 16.4417C16.783 16.8417 16.133 17.1333 15.4163 17.275C15.3663 17.2917 15.3247 17.2917 15.283 17.2917Z" fill="#101323"/>
</svg>
