<svg width="16" height="16" viewBox="0 0 16 16" fill="none" xmlns="http://www.w3.org/2000/svg">
<g id="vuesax/outline/arrow-left">
<g id="arrow-left">
<path id="Vector" d="M6.38001 12.5467C6.25334 12.5467 6.12667 12.5001 6.02667 12.4001L1.98001 8.35341C1.78667 8.16008 1.78667 7.84008 1.98001 7.64674L6.02667 3.60008C6.22001 3.40674 6.54001 3.40674 6.73334 3.60008C6.92667 3.79341 6.92667 4.11341 6.73334 4.30674L3.04001 8.00008L6.73334 11.6934C6.92667 11.8867 6.92667 12.2067 6.73334 12.4001C6.64001 12.5001 6.50667 12.5467 6.38001 12.5467Z" fill="#667085"/>
<path id="Vector_2" d="M13.6667 8.5H2.44667C2.17334 8.5 1.94667 8.27333 1.94667 8C1.94667 7.72667 2.17334 7.5 2.44667 7.5H13.6667C13.94 7.5 14.1667 7.72667 14.1667 8C14.1667 8.27333 13.94 8.5 13.6667 8.5Z" fill="#667085"/>
</g>
</g>
</svg>
