<svg width="25" height="24" viewBox="0 0 25 24" fill="none" xmlns="http://www.w3.org/2000/svg">
<g id="vuesax/outline/frame">
<g id="frame">
<path id="Vector" d="M12.8266 11.62C12.7966 11.62 12.7766 11.62 12.7466 11.62C12.6966 11.61 12.6266 11.61 12.5666 11.62C9.66656 11.53 7.47656 9.25 7.47656 6.44C7.47656 3.58 9.80656 1.25 12.6666 1.25C15.5266 1.25 17.8566 3.58 17.8566 6.44C17.8466 9.25 15.6466 11.53 12.8566 11.62C12.8466 11.62 12.8366 11.62 12.8266 11.62ZM12.6666 2.75C10.6366 2.75 8.97656 4.41 8.97656 6.44C8.97656 8.44 10.5366 10.05 12.5266 10.12C12.5766 10.11 12.7166 10.11 12.8466 10.12C14.8066 10.03 16.3466 8.42 16.3566 6.44C16.3566 4.41 14.6966 2.75 12.6666 2.75Z" fill="#7B68EE"/>
<path id="Vector_2" d="M12.8366 22.55C10.8766 22.55 8.9066 22.05 7.4166 21.05C6.0266 20.13 5.2666 18.87 5.2666 17.5C5.2666 16.13 6.0266 14.86 7.4166 13.93C10.4166 11.94 15.2766 11.94 18.2566 13.93C19.6366 14.85 20.4066 16.11 20.4066 17.48C20.4066 18.85 19.6466 20.12 18.2566 21.05C16.7566 22.05 14.7966 22.55 12.8366 22.55ZM8.2466 15.19C7.2866 15.83 6.7666 16.65 6.7666 17.51C6.7666 18.36 7.2966 19.18 8.2466 19.81C10.7366 21.48 14.9366 21.48 17.4266 19.81C18.3866 19.17 18.9066 18.35 18.9066 17.49C18.9066 16.64 18.3766 15.82 17.4266 15.19C14.9366 13.53 10.7366 13.53 8.2466 15.19Z" fill="#7B68EE"/>
</g>
</g>
</svg>
