<svg width="16" height="16" viewBox="0 0 16 16" fill="none" xmlns="http://www.w3.org/2000/svg">
<g id="heroicons-mini/bars-arrow-down">
<path id="Vector (Stroke)" fill-rule="evenodd" clip-rule="evenodd" d="M1.6001 3.00039C1.6001 2.66902 1.86873 2.40039 2.2001 2.40039H11.4001C11.7315 2.40039 12.0001 2.66902 12.0001 3.00039C12.0001 3.33176 11.7315 3.60039 11.4001 3.60039H2.2001C1.86873 3.60039 1.6001 3.33176 1.6001 3.00039ZM1.6001 6.00039C1.6001 5.66902 1.86873 5.40039 2.2001 5.40039H8.20667C8.53804 5.40039 8.80667 5.66902 8.80667 6.00039C8.80667 6.33176 8.53804 6.60039 8.20667 6.60039H2.2001C1.86873 6.60039 1.6001 6.33176 1.6001 6.00039ZM11.2001 5.60039C11.5315 5.60039 11.8001 5.86902 11.8001 6.20039L11.8001 11.4725L13.3604 9.79212C13.5859 9.54929 13.9655 9.53523 14.2084 9.76072C14.4512 9.9862 14.4653 10.3658 14.2398 10.6087L11.6398 13.4087C11.5262 13.5309 11.3669 13.6004 11.2001 13.6004C11.0333 13.6004 10.8739 13.5309 10.7604 13.4087L8.16042 10.6087C7.93494 10.3658 7.949 9.9862 8.19183 9.76072C8.43465 9.53523 8.81429 9.54929 9.03977 9.79212L10.6001 11.4725L10.6001 6.20039C10.6001 5.86902 10.8687 5.60039 11.2001 5.60039ZM1.6001 9.00039C1.6001 8.66902 1.86873 8.40039 2.2001 8.40039H5.84974C6.18111 8.40039 6.44974 8.66902 6.44974 9.00039C6.44974 9.33176 6.18111 9.60039 5.84974 9.60039H2.2001C1.86873 9.60039 1.6001 9.33176 1.6001 9.00039Z" fill="#1D2939"/>
</g>
</svg>
