<svg width="16" height="16" viewBox="0 0 16 16" fill="none" xmlns="http://www.w3.org/2000/svg">
<g id="vuesax/outline/grammerly">
<g id="vuesax/outline/grammerly_2">
<g id="grammerly">
<path id="Vector" d="M8.00012 15.1466C6.22012 15.1466 4.43345 14.5066 3.08012 13.2199C1.66012 11.8733 0.860121 10.0599 0.833454 8.11323C0.806787 6.1599 1.55345 4.32656 2.93345 2.94656C5.72678 0.153229 10.2735 0.153229 13.0668 2.94656C14.4468 4.32656 15.1935 6.1599 15.1668 8.11323C15.1401 10.0666 14.3401 11.8799 12.9201 13.2199C11.5668 14.5066 9.78012 15.1466 8.00012 15.1466ZM8.00012 1.85326C6.42012 1.85326 4.84011 2.45323 3.64012 3.65323C2.45345 4.83989 1.81345 6.41992 1.83345 8.09992C1.85345 9.77992 2.54012 11.3399 3.76678 12.4932C6.10012 14.7066 9.90012 14.6999 12.2335 12.4932C13.4535 11.3399 14.1401 9.77326 14.1668 8.09992C14.1935 6.42659 13.5468 4.83989 12.3601 3.65323C11.1601 2.45323 9.58012 1.85326 8.00012 1.85326Z" fill="#667085"/>
<path id="Vector_2" d="M7.99976 10.2177C6.94642 10.2177 5.89975 10.5977 5.09975 11.3511C4.89975 11.5444 4.89309 11.8577 5.07975 12.0577C5.27309 12.2577 5.58642 12.2644 5.78642 12.0777C7.00642 10.9244 8.99309 10.9244 10.2131 12.0777C10.4131 12.2644 10.7331 12.2577 10.9198 12.0577C11.1064 11.8577 11.0998 11.5377 10.8998 11.3511C10.0998 10.5977 9.05309 10.2177 7.99976 10.2177Z" fill="#667085"/>
</g>
</g>
</g>
</svg>
