<svg width="18" height="18" viewBox="0 0 18 18" fill="none" xmlns="http://www.w3.org/2000/svg">
<g id="vuesax/outline/brush">
<g id="brush">
<path id="Vector" d="M7.82255 13.7774C7.71005 13.7774 7.60505 13.7474 7.50755 13.6799C7.35005 13.5749 7.26005 13.4024 7.26005 13.2149C7.26005 13.1024 7.25255 12.9824 7.23755 12.8624C7.17005 12.3299 6.93005 11.8649 6.52505 11.4599C6.12005 11.0549 5.61755 10.7999 5.07755 10.7324C4.98755 10.7249 4.86005 10.7174 4.74005 10.7249C4.54505 10.7399 4.36505 10.6574 4.25255 10.4999C4.14005 10.3499 4.11005 10.1474 4.17005 9.96744C4.28255 9.65994 4.44755 9.38244 4.64255 9.15744L5.79755 7.70244C7.78505 5.21994 11.8126 2.23494 14.7601 1.04994C15.3826 0.809941 16.0501 0.952441 16.5076 1.40244C16.9801 1.87494 17.1226 2.54994 16.8751 3.16494C15.6901 6.11994 12.7126 10.1399 10.2301 12.1274L8.75255 13.3124C8.47505 13.5149 8.25005 13.6424 8.02505 13.7324C7.96505 13.7624 7.89005 13.7774 7.82255 13.7774ZM5.65505 9.70494C6.28505 9.86994 6.84755 10.1999 7.32005 10.6724C7.79255 11.1374 8.10755 11.6774 8.26505 12.2774L9.53255 11.2574C11.8876 9.37494 14.7151 5.55744 15.8326 2.75244C15.9451 2.47494 15.7876 2.27994 15.7126 2.21244C15.6601 2.15994 15.4651 1.99494 15.1651 2.10744C12.3751 3.23244 8.55755 6.05994 6.66755 8.41494L5.65505 9.70494Z" fill="#101323"/>
<path id="Vector_2" d="M3.06002 17.0628C2.49752 17.0628 1.95752 16.8378 1.55252 16.4328C1.08752 15.9678 0.862522 15.3228 0.937522 14.6628L1.14002 12.8178C1.33502 10.9878 2.83502 9.63029 4.69502 9.59279C4.83752 9.58529 5.02502 9.59279 5.19752 9.60779C6.01502 9.71279 6.74252 10.0803 7.32752 10.6653C7.90502 11.2428 8.25002 11.9328 8.35502 12.7053C8.37752 12.8703 8.39252 13.0503 8.39252 13.2078C8.39252 14.1978 8.01002 15.1203 7.32002 15.8178C6.74252 16.3878 6.00002 16.7403 5.16002 16.8453L3.30752 17.0478C3.22502 17.0553 3.14252 17.0628 3.06002 17.0628ZM4.83752 10.7253C4.80752 10.7253 4.77002 10.7253 4.74002 10.7253C3.60752 10.7478 2.40752 11.5203 2.25752 12.9453L2.05502 14.7903C2.01752 15.1053 2.13002 15.4128 2.34752 15.6378C2.56502 15.8553 2.87252 15.9678 3.18002 15.9303L5.02502 15.7278C5.60252 15.6528 6.12002 15.4128 6.51002 15.0228C6.99002 14.5428 7.26002 13.8978 7.26002 13.2078C7.26002 13.0953 7.25252 12.9753 7.23752 12.8553C7.17002 12.3228 6.93002 11.8578 6.52502 11.4528C6.12002 11.0478 5.61752 10.7928 5.07752 10.7253C5.01752 10.7253 4.92752 10.7253 4.83752 10.7253Z" fill="#101323"/>
<path id="Vector_3" d="M10.6799 11.4147C10.3724 11.4147 10.1174 11.1597 10.1174 10.8522C10.1174 9.20219 8.77495 7.86719 7.13245 7.86719C6.82495 7.86719 6.56995 7.61219 6.56995 7.30469C6.56995 6.99719 6.81745 6.74219 7.12495 6.74219C9.38995 6.74219 11.2349 8.58719 11.2349 10.8522C11.2424 11.1672 10.9874 11.4147 10.6799 11.4147Z" fill="#101323"/>
</g>
</g>
</svg>
