<svg width="16" height="16" viewBox="0 0 16 16" fill="none" xmlns="http://www.w3.org/2000/svg">
<g id="vuesax/outline/brush">
<g id="brush">
<path id="Vector" d="M6.95327 12.2465C6.85327 12.2465 6.75994 12.2198 6.67327 12.1598C6.53327 12.0665 6.45327 11.9131 6.45327 11.7465C6.45327 11.6465 6.44661 11.5398 6.43327 11.4331C6.37327 10.9598 6.15994 10.5465 5.79994 10.1865C5.43994 9.82645 4.99327 9.59979 4.51327 9.53979C4.43327 9.53312 4.31994 9.52645 4.21327 9.53312C4.03994 9.54645 3.87994 9.47312 3.77994 9.33312C3.67994 9.19979 3.65327 9.01978 3.70661 8.85979C3.80661 8.58645 3.95327 8.33979 4.12661 8.13979L5.15327 6.84645C6.91994 4.63979 10.4999 1.98645 13.1199 0.933118C13.6733 0.719785 14.2666 0.846452 14.6733 1.24645C15.0933 1.66645 15.2199 2.26645 14.9999 2.81312C13.9466 5.43979 11.2999 9.01312 9.09327 10.7798L7.77994 11.8331C7.53327 12.0131 7.33327 12.1265 7.13327 12.2065C7.07994 12.2331 7.01327 12.2465 6.95327 12.2465ZM5.02661 8.62645C5.58661 8.77312 6.08661 9.06645 6.50661 9.48645C6.92661 9.89979 7.20661 10.3798 7.34661 10.9131L8.47327 10.0065C10.5666 8.33312 13.0799 4.93979 14.0733 2.44645C14.1733 2.19979 14.0333 2.02645 13.9666 1.96645C13.9199 1.91979 13.7466 1.77312 13.4799 1.87312C10.9999 2.87312 7.60661 5.38645 5.92661 7.47979L5.02661 8.62645Z" fill="#667085"/>
<path id="Vector_2" d="M2.72007 15.1665C2.22007 15.1665 1.74007 14.9665 1.38007 14.6065C0.96674 14.1932 0.76674 13.6199 0.833407 13.0332L1.01341 11.3932C1.18674 9.76654 2.52007 8.55987 4.17341 8.52654C4.30007 8.51987 4.46674 8.52654 4.62007 8.53987C5.34674 8.63321 5.99341 8.95987 6.51341 9.47987C7.02674 9.99321 7.33341 10.6065 7.42674 11.2932C7.44674 11.4399 7.46007 11.5999 7.46007 11.7399C7.46007 12.6199 7.12007 13.4399 6.50674 14.0599C5.99341 14.5665 5.33341 14.8799 4.58674 14.9732L2.94007 15.1532C2.86674 15.1599 2.79341 15.1665 2.72007 15.1665ZM4.30007 9.53321C4.27341 9.53321 4.24007 9.53321 4.21341 9.53321C3.20674 9.55321 2.14007 10.2399 2.00674 11.5065L1.82674 13.1465C1.79341 13.4265 1.89341 13.6999 2.08674 13.8999C2.28007 14.0932 2.55341 14.1932 2.82674 14.1599L4.46674 13.9799C4.98007 13.9132 5.44007 13.6999 5.78674 13.3532C6.21341 12.9265 6.45341 12.3532 6.45341 11.7399C6.45341 11.6399 6.44674 11.5332 6.43341 11.4265C6.37341 10.9532 6.16007 10.5399 5.80007 10.1799C5.44007 9.81987 4.99341 9.59321 4.51341 9.53321C4.46007 9.53321 4.38007 9.53321 4.30007 9.53321Z" fill="#667085"/>
<path id="Vector_3" d="M9.49342 10.1465C9.22009 10.1465 8.99342 9.91983 8.99342 9.6465C8.99342 8.17983 7.80009 6.99316 6.34009 6.99316C6.06675 6.99316 5.84009 6.7665 5.84009 6.49316C5.84009 6.21983 6.06009 5.99316 6.33342 5.99316C8.34675 5.99316 9.98675 7.63316 9.98675 9.6465C9.99342 9.9265 9.76675 10.1465 9.49342 10.1465Z" fill="#667085"/>
</g>
</g>
</svg>
