<svg width="24" height="25" viewBox="0 0 24 25" fill="none" xmlns="http://www.w3.org/2000/svg">
<g id="vuesax/outline/close-circle">
<g id="close-circle">
<path id="Vector" d="M12 23.25C6.07 23.25 1.25 18.43 1.25 12.5C1.25 6.57 6.07 1.75 12 1.75C17.93 1.75 22.75 6.57 22.75 12.5C22.75 18.43 17.93 23.25 12 23.25ZM12 3.25C6.9 3.25 2.75 7.4 2.75 12.5C2.75 17.6 6.9 21.75 12 21.75C17.1 21.75 21.25 17.6 21.25 12.5C21.25 7.4 17.1 3.25 12 3.25Z" fill="#101323"/>
<path id="Vector_2" d="M9.16986 16.08C8.97986 16.08 8.78986 16.01 8.63986 15.86C8.34986 15.57 8.34986 15.09 8.63986 14.8L14.2999 9.13999C14.5899 8.84999 15.0699 8.84999 15.3599 9.13999C15.6499 9.42999 15.6499 9.90998 15.3599 10.2L9.69986 15.86C9.55986 16.01 9.35986 16.08 9.16986 16.08Z" fill="#101323"/>
<path id="Vector_3" d="M14.8299 16.08C14.6399 16.08 14.4499 16.01 14.2999 15.86L8.63986 10.2C8.34986 9.90998 8.34986 9.42999 8.63986 9.13999C8.92986 8.84999 9.40986 8.84999 9.69986 9.13999L15.3599 14.8C15.6499 15.09 15.6499 15.57 15.3599 15.86C15.2099 16.01 15.0199 16.08 14.8299 16.08Z" fill="#101323"/>
</g>
</g>
</svg>
