<svg width="20" height="20" viewBox="0 0 20 20" fill="none" xmlns="http://www.w3.org/2000/svg">
<g id="Icon">
<g id="Icon_2">
<path d="M6.66667 2.5C4.36548 2.5 2.5 4.36548 2.5 6.66667C2.5 8.96785 4.36548 10.8333 6.66667 10.8333C8.96785 10.8333 10.8333 8.96785 10.8333 6.66667C10.8333 4.36548 8.96785 2.5 6.66667 2.5Z" fill="white"/>
<path d="M16.135 6.10582C15.8197 5.94516 15.492 5.88573 15.1625 5.85881C14.8504 5.83331 14.4714 5.83332 14.0321 5.83333L12.5 5.83334V6.66667C12.5 9.88833 9.88833 12.5 6.66667 12.5H5.83334L5.83333 14.0321C5.83332 14.4714 5.83331 14.8504 5.85881 15.1625C5.88573 15.492 5.94516 15.8197 6.10582 16.135C6.3455 16.6054 6.72795 16.9878 7.19836 17.2275C7.51368 17.3882 7.84136 17.4476 8.17081 17.4745C8.48294 17.5 8.86188 17.5 9.30113 17.5H14.0321C14.4714 17.5 14.8504 17.5 15.1625 17.4745C15.492 17.4476 15.8197 17.3882 16.135 17.2275C16.6054 16.9878 16.9878 16.6054 17.2275 16.135C17.3882 15.8197 17.4476 15.492 17.4745 15.1625C17.5 14.8504 17.5 14.4715 17.5 14.0322V9.30123C17.5 8.86198 17.5 8.48294 17.4745 8.17081C17.4476 7.84136 17.3882 7.51368 17.2275 7.19836C16.9878 6.72795 16.6054 6.3455 16.135 6.10582Z" fill="white"/>
</g>
</g>
</svg>
