<svg width="21" height="20" viewBox="0 0 21 20" fill="none" xmlns="http://www.w3.org/2000/svg">
<g id="Icon">
<path id="Icon_2" d="M7.08937 5.24484C7.24555 4.91848 7.33301 4.55295 7.33301 4.16699C7.33301 2.78628 6.21372 1.66699 4.83301 1.66699C3.4523 1.66699 2.33301 2.78628 2.33301 4.16699C2.33301 5.5477 3.4523 6.66699 4.83301 6.66699C5.21896 6.66699 5.58449 6.57953 5.91085 6.42335L7.19001 7.7025C6.75374 8.3612 6.49967 9.15109 6.49967 10.0003C6.49967 10.8496 6.75374 11.6395 7.19001 12.2982L6.09804 13.3901C5.96036 13.3533 5.81564 13.3337 5.66634 13.3337C4.74587 13.3337 3.99967 14.0799 3.99967 15.0003C3.99967 15.9208 4.74587 16.667 5.66634 16.667C6.58682 16.667 7.33301 15.9208 7.33301 15.0003C7.33301 14.851 7.31338 14.7063 7.27656 14.5686L8.36852 13.4767C9.02721 13.9129 9.81711 14.167 10.6663 14.167C11.5156 14.167 12.3055 13.9129 12.9642 13.4767L14.2433 14.7558C14.0871 15.0822 13.9997 15.4477 13.9997 15.8337C13.9997 17.2144 15.119 18.3337 16.4997 18.3337C17.8804 18.3337 18.9997 17.2144 18.9997 15.8337C18.9997 14.4529 17.8804 13.3337 16.4997 13.3337C16.1137 13.3337 15.7482 13.4211 15.4218 13.5773L14.1427 12.2982C14.5789 11.6395 14.833 10.8496 14.833 10.0003C14.833 9.15109 14.5789 8.3612 14.1427 7.7025L15.2346 6.61054C15.3723 6.64736 15.517 6.66699 15.6663 6.66699C16.5868 6.66699 17.333 5.9208 17.333 5.00033C17.333 4.07985 16.5868 3.33366 15.6663 3.33366C14.7459 3.33366 13.9997 4.07985 13.9997 5.00033C13.9997 5.14963 14.0193 5.29434 14.0561 5.43203L12.9642 6.52399C12.3055 6.08772 11.5156 5.83366 10.6663 5.83366C9.81711 5.83366 9.02721 6.08772 8.36852 6.52399L7.08937 5.24484Z" fill="white"/>
</g>
</svg>
