<svg width="73" height="72" viewBox="0 0 73 72" fill="none" xmlns="http://www.w3.org/2000/svg">
<g id="vuesax/outline/document-text">
<g id="document-text">
<path id="Vector" d="M45.5 68.25H27.5C11.21 68.25 4.25 61.29 4.25 45V27C4.25 10.71 11.21 3.75 27.5 3.75H42.5C43.73 3.75 44.75 4.77 44.75 6C44.75 7.23 43.73 8.25 42.5 8.25H27.5C13.67 8.25 8.75 13.17 8.75 27V45C8.75 58.83 13.67 63.75 27.5 63.75H45.5C59.33 63.75 64.25 58.83 64.25 45V30C64.25 28.77 65.27 27.75 66.5 27.75C67.73 27.75 68.75 28.77 68.75 30V45C68.75 61.29 61.79 68.25 45.5 68.25Z" fill="#7B68EE"/>
<path id="Vector_2" d="M66.5 32.2505H54.5C44.24 32.2505 40.25 28.2605 40.25 18.0005V6.00045C40.25 5.10045 40.79 4.26045 41.63 3.93045C42.47 3.57045 43.43 3.78045 44.09 4.41045L68.09 28.4105C68.72 29.0405 68.93 30.0305 68.57 30.8705C68.21 31.7105 67.4 32.2505 66.5 32.2505ZM44.75 11.4305V18.0005C44.75 25.7405 46.76 27.7505 54.5 27.7505H61.07L44.75 11.4305Z" fill="#7B68EE"/>
<path id="Vector_3" d="M39.5 41.25H21.5C20.27 41.25 19.25 40.23 19.25 39C19.25 37.77 20.27 36.75 21.5 36.75H39.5C40.73 36.75 41.75 37.77 41.75 39C41.75 40.23 40.73 41.25 39.5 41.25Z" fill="#7B68EE"/>
<path id="Vector_4" d="M33.5 53.25H21.5C20.27 53.25 19.25 52.23 19.25 51C19.25 49.77 20.27 48.75 21.5 48.75H33.5C34.73 48.75 35.75 49.77 35.75 51C35.75 52.23 34.73 53.25 33.5 53.25Z" fill="#7B68EE"/>
</g>
</g>
</svg>
