<svg width="20" height="20" viewBox="0 0 20 20" fill="none" xmlns="http://www.w3.org/2000/svg">
<g id="dot menu">
<path id="Icon" d="M9.68746 9.68729H10.3125M9.68746 10.3123H10.3125M3.85413 9.68729H4.47913M3.85413 10.3123H4.47913M15.5208 9.68729H16.1458M15.5208 10.3123H16.1458M10.8335 9.99984C10.8335 10.4601 10.4604 10.8332 10.0002 10.8332C9.53993 10.8332 9.16683 10.4601 9.16683 9.99984C9.16683 9.5396 9.53993 9.1665 10.0002 9.1665C10.4604 9.1665 10.8335 9.5396 10.8335 9.99984ZM5.00016 9.99984C5.00016 10.4601 4.62707 10.8332 4.16683 10.8332C3.70659 10.8332 3.3335 10.4601 3.3335 9.99984C3.3335 9.5396 3.70659 9.1665 4.16683 9.1665C4.62707 9.1665 5.00016 9.5396 5.00016 9.99984ZM16.6668 9.99984C16.6668 10.4601 16.2937 10.8332 15.8335 10.8332C15.3733 10.8332 15.0002 10.4601 15.0002 9.99984C15.0002 9.5396 15.3733 9.1665 15.8335 9.1665C16.2937 9.1665 16.6668 9.5396 16.6668 9.99984Z" stroke="#667085" stroke-width="2" stroke-linecap="round"/>
</g>
</svg>
