<svg width="21" height="20" viewBox="0 0 21 20" fill="none" xmlns="http://www.w3.org/2000/svg">
<g id="Icon">
<path id="Icon_2" d="M15.3333 7.49967C17.1743 7.49967 18.6667 6.00729 18.6667 4.16634C18.6667 2.32539 17.1743 0.833008 15.3333 0.833008C13.4924 0.833008 12 2.32539 12 4.16634C12 4.48069 12.0435 4.78488 12.1248 5.07321L7.70128 7.65362C7.09722 7.04396 6.25938 6.66634 5.33333 6.66634C3.49238 6.66634 2 8.15872 2 9.99967C2 11.8406 3.49238 13.333 5.33333 13.333C6.25938 13.333 7.09722 12.9554 7.70128 12.3457L12.1248 14.9261C12.0435 15.2145 12 15.5187 12 15.833C12 17.674 13.4924 19.1663 15.3333 19.1663C17.1743 19.1663 18.6667 17.674 18.6667 15.833C18.6667 13.9921 17.1743 12.4997 15.3333 12.4997C14.4073 12.4997 13.5694 12.8773 12.9654 13.487L8.54182 10.9065C8.62315 10.6182 8.66667 10.314 8.66667 9.99967C8.66667 9.68532 8.62315 9.38114 8.54182 9.09281L12.9654 6.51239C13.5694 7.12205 14.4073 7.49967 15.3333 7.49967Z" fill="white"/>
</g>
</svg>
