<svg width="24" height="24" viewBox="0 0 24 24" fill="none" xmlns="http://www.w3.org/2000/svg">
<g id="vuesax/outline/grammerly">
<g id="vuesax/outline/grammerly_2">
<g id="grammerly">
<path id="Vector" d="M12.0001 22.7198C9.33006 22.7198 6.65005 21.7599 4.62005 19.8299C2.49005 17.8099 1.29006 15.0898 1.25006 12.1698C1.21006 9.23984 2.33005 6.48984 4.40005 4.41984C8.59005 0.229843 15.4101 0.229843 19.6001 4.41984C21.6701 6.48984 22.7901 9.23984 22.7501 12.1698C22.7101 15.0998 21.5101 17.8199 19.3801 19.8299C17.3501 21.7599 14.6701 22.7198 12.0001 22.7198ZM12.0001 2.77989C9.63006 2.77989 7.26005 3.67984 5.46005 5.47984C3.68005 7.25984 2.72006 9.62989 2.75006 12.1499C2.78006 14.6699 3.81005 17.0099 5.65005 18.7399C9.15005 22.0599 14.8501 22.0499 18.3501 18.7399C20.1801 17.0099 21.2101 14.6599 21.2501 12.1499C21.2901 9.63989 20.3201 7.25984 18.5401 5.47984C16.7401 3.67984 14.3701 2.77989 12.0001 2.77989Z" fill="#7B68EE"/>
<path id="Vector_2" d="M11.9998 15.3276C10.4198 15.3276 8.84975 15.8976 7.64975 17.0276C7.34975 17.3176 7.33975 17.7876 7.61975 18.0876C7.90975 18.3876 8.37975 18.3975 8.67975 18.1175C10.5097 16.3875 13.4898 16.3875 15.3198 18.1175C15.6198 18.3975 16.0998 18.3876 16.3798 18.0876C16.6598 17.7876 16.6498 17.3076 16.3498 17.0276C15.1498 15.8976 13.5798 15.3276 11.9998 15.3276Z" fill="#7B68EE"/>
</g>
</g>
</g>
</svg>
