<svg width="16" height="16" viewBox="0 0 16 16" fill="none" xmlns="http://www.w3.org/2000/svg">
<g id="vuesax/outline/filter">
<g id="filter">
<path id="Vector" d="M7.29327 15.0999C6.97327 15.0999 6.65993 15.0199 6.3666 14.8599C5.77993 14.5332 5.4266 13.9399 5.4266 13.2732V9.7399C5.4266 9.40657 5.2066 8.90657 4.99993 8.65324L2.5066 6.01324C2.0866 5.59324 1.7666 4.87324 1.7666 4.33324V2.7999C1.7666 1.73324 2.57327 0.899902 3.59993 0.899902H12.3999C13.4133 0.899902 14.2333 1.7199 14.2333 2.73324V4.1999C14.2333 4.8999 13.8133 5.69324 13.4199 6.08657L10.5333 8.6399C10.2533 8.87324 10.0333 9.38657 10.0333 9.7999V12.6666C10.0333 13.2599 9.65993 13.9466 9.19327 14.2266L8.27327 14.8199C7.97327 15.0066 7.63327 15.0999 7.29327 15.0999ZM3.59993 1.8999C3.13327 1.8999 2.7666 2.29324 2.7666 2.7999V4.33324C2.7666 4.5799 2.9666 5.0599 3.21993 5.31324L5.75994 7.98657C6.09994 8.40657 6.43327 9.10657 6.43327 9.73324V13.2666C6.43327 13.6999 6.73327 13.9132 6.85993 13.9799C7.13994 14.1332 7.47993 14.1332 7.73993 13.9732L8.6666 13.3799C8.85327 13.2666 9.03994 12.9066 9.03994 12.6666V9.7999C9.03994 9.08657 9.3866 8.2999 9.8866 7.8799L12.7399 5.35324C12.9666 5.12657 13.2399 4.58657 13.2399 4.19324V2.73324C13.2399 2.27324 12.8666 1.8999 12.4066 1.8999H3.59993Z" fill="#667085"/>
<path id="Vector_2" d="M3.99995 7.16652C3.90661 7.16652 3.81995 7.13985 3.73328 7.09318C3.49995 6.94652 3.42661 6.63318 3.57328 6.39985L6.85995 1.13318C7.00661 0.89985 7.31328 0.826517 7.54661 0.973183C7.77995 1.11985 7.85328 1.42652 7.70661 1.65985L4.41995 6.92652C4.32661 7.07985 4.16661 7.16652 3.99995 7.16652Z" fill="#667085"/>
</g>
</g>
</svg>
