<svg width="25" height="25" viewBox="0 0 25 25" fill="none" xmlns="http://www.w3.org/2000/svg">
<g id="vuesax/outline/forbidden">
<g id="forbidden">
<path id="Vector" d="M15.4 23.25H9.60001C8.71001 23.25 7.57 22.78 6.95 22.15L2.85001 18.05C2.22001 17.42 1.75 16.28 1.75 15.4V9.60001C1.75 8.71001 2.22001 7.57001 2.85001 6.95001L6.95 2.85001C7.58 2.22001 8.72001 1.75 9.60001 1.75H15.4C16.29 1.75 17.43 2.22001 18.05 2.85001L22.15 6.95001C22.78 7.58001 23.25 8.72001 23.25 9.60001V15.4C23.25 16.29 22.78 17.43 22.15 18.05L18.05 22.15C17.42 22.78 16.29 23.25 15.4 23.25ZM9.60001 3.25C9.11001 3.25 8.34999 3.56 8.00999 3.91L3.91 8.01001C3.57 8.36001 3.25 9.11001 3.25 9.60001V15.4C3.25 15.89 3.56 16.65 3.91 16.99L8.00999 21.09C8.35999 21.43 9.11001 21.75 9.60001 21.75H15.4C15.89 21.75 16.65 21.44 16.99 21.09L21.09 16.99C21.43 16.64 21.75 15.89 21.75 15.4V9.60001C21.75 9.11001 21.44 8.35001 21.09 8.01001L16.99 3.91C16.64 3.57 15.89 3.25 15.4 3.25H9.60001Z" fill="#98A2B3"/>
<path id="Vector_2" d="M5.43988 20.3299C5.24988 20.3299 5.05988 20.2599 4.90988 20.1099C4.61988 19.8199 4.61988 19.3399 4.90988 19.0499L19.0499 4.90988C19.3399 4.61988 19.8199 4.61988 20.1099 4.90988C20.3999 5.19988 20.3999 5.67988 20.1099 5.96988L5.96988 20.1099C5.81988 20.2599 5.62988 20.3299 5.43988 20.3299Z" fill="#98A2B3"/>
</g>
</g>
</svg>
