<svg width="25" height="25" viewBox="0 0 25 25" fill="none" xmlns="http://www.w3.org/2000/svg">
<g id="vuesax/outline/moon">
<g id="moon">
<path id="Vector" d="M12.9599 23.2501C12.7899 23.2501 12.6199 23.2501 12.4499 23.2401C6.84995 22.9901 2.16995 18.4801 1.77995 12.9801C1.43995 8.26011 4.16995 3.85011 8.56995 2.00011C9.81995 1.48011 10.4799 1.88011 10.7599 2.17011C11.0399 2.45011 11.4299 3.10011 10.9099 4.29011C10.4499 5.35011 10.2199 6.48011 10.2299 7.64011C10.2499 12.0701 13.9299 15.8301 18.4199 16.0101C19.0699 16.0401 19.7099 15.9901 20.3299 15.8801C21.6499 15.6401 22.1999 16.1701 22.4099 16.5101C22.6199 16.8501 22.8599 17.5801 22.0599 18.6601C19.9399 21.5601 16.5699 23.2501 12.9599 23.2501ZM3.26995 12.8701C3.60995 17.6301 7.66995 21.5301 12.5099 21.7401C15.7999 21.9001 18.9199 20.4001 20.8399 17.7801C20.9899 17.5701 21.0599 17.4201 21.0899 17.3401C20.9999 17.3301 20.8399 17.3201 20.5899 17.3701C19.8599 17.5001 19.0999 17.5501 18.3499 17.5201C13.0699 17.3101 8.74995 12.8801 8.71995 7.66011C8.71995 6.28011 8.98995 4.95011 9.53995 3.70011C9.63995 3.48011 9.65995 3.33011 9.66995 3.25011C9.57995 3.25011 9.41995 3.27011 9.15995 3.38011C5.34995 4.98011 2.98995 8.80011 3.26995 12.8701Z" fill="#101323"/>
</g>
</g>
</svg>
