<svg width="21" height="20" viewBox="0 0 21 20" fill="none" xmlns="http://www.w3.org/2000/svg">
<g id="Icon">
<path id="Icon_2" fill-rule="evenodd" clip-rule="evenodd" d="M1.5 9.99967C1.5 4.93706 5.60406 0.833008 10.6667 0.833008C15.7293 0.833008 19.8333 4.93706 19.8333 9.99967C19.8333 15.0623 15.7293 19.1663 10.6667 19.1663C5.60406 19.1663 1.5 15.0623 1.5 9.99967ZM10.6667 3.33301C11.1269 3.33301 11.5 3.7061 11.5 4.16634V7.40708C11.5 7.86732 11.1269 8.24042 10.6667 8.24042C10.2064 8.24042 9.83333 7.86732 9.83333 7.40708V4.16634C9.83333 3.7061 10.2064 3.33301 10.6667 3.33301ZM16.5 10.833C16.9602 10.833 17.3333 10.4599 17.3333 9.99967C17.3333 9.53944 16.9602 9.16634 16.5 9.16634H13.2593C12.799 9.16634 12.4259 9.53944 12.4259 9.99967C12.4259 10.4599 12.799 10.833 13.2593 10.833H16.5ZM10.6667 11.7589C11.1269 11.7589 11.5 12.132 11.5 12.5923V15.833C11.5 16.2932 11.1269 16.6663 10.6667 16.6663C10.2064 16.6663 9.83333 16.2932 9.83333 15.833V12.5923C9.83333 12.132 10.2064 11.7589 10.6667 11.7589ZM8.07407 10.833C8.53431 10.833 8.90741 10.4599 8.90741 9.99967C8.90741 9.53944 8.53431 9.16634 8.07407 9.16634H4.83333C4.3731 9.16634 4 9.53944 4 9.99967C4 10.4599 4.3731 10.833 4.83333 10.833H8.07407Z" fill="white"/>
</g>
</svg>
