<svg width="16" height="16" viewBox="0 0 16 16" fill="none" xmlns="http://www.w3.org/2000/svg">
<g id="vuesax/outline/eye-slash">
<g id="eye-slash">
<path id="Vector" d="M6.31328 10.1866C6.18661 10.1866 6.05995 10.1399 5.95995 10.0399C5.41328 9.49328 5.11328 8.76661 5.11328 7.99995C5.11328 6.40661 6.40661 5.11328 7.99995 5.11328C8.76661 5.11328 9.49328 5.41328 10.0399 5.95995C10.1333 6.05328 10.1866 6.17995 10.1866 6.31328C10.1866 6.44661 10.1333 6.57328 10.0399 6.66661L6.66661 10.0399C6.56661 10.1399 6.43995 10.1866 6.31328 10.1866ZM7.99995 6.11328C6.95995 6.11328 6.11328 6.95995 6.11328 7.99995C6.11328 8.33328 6.19995 8.65328 6.35995 8.93328L8.93328 6.35995C8.65328 6.19995 8.33328 6.11328 7.99995 6.11328Z" fill="#344054"/>
<path id="Vector_2" d="M3.73335 12.3397C3.62002 12.3397 3.50002 12.2997 3.40668 12.2197C2.69335 11.613 2.05335 10.8663 1.50668 9.99966C0.800018 8.89966 0.800018 7.10633 1.50668 5.99966C3.13335 3.45299 5.50002 1.98633 8.00002 1.98633C9.46668 1.98633 10.9134 2.49299 12.18 3.44633C12.4 3.61299 12.4467 3.92633 12.28 4.14633C12.1134 4.36633 11.8 4.41299 11.58 4.24633C10.4867 3.41966 9.24669 2.98633 8.00002 2.98633C5.84668 2.98633 3.78668 4.27966 2.34668 6.53966C1.84668 7.31966 1.84668 8.67966 2.34668 9.45966C2.84668 10.2397 3.42002 10.913 4.05335 11.4597C4.26002 11.6397 4.28668 11.953 4.10668 12.1663C4.01335 12.2797 3.87335 12.3397 3.73335 12.3397Z" fill="#344054"/>
<path id="Vector_3" d="M7.99996 14.0137C7.11329 14.0137 6.24663 13.8337 5.41329 13.4803C5.15996 13.3737 5.03996 13.0803 5.14663 12.827C5.25329 12.5737 5.54663 12.4537 5.79996 12.5603C6.50663 12.8603 7.24663 13.0137 7.99329 13.0137C10.1466 13.0137 12.2066 11.7203 13.6466 9.46032C14.1466 8.68032 14.1466 7.32032 13.6466 6.54032C13.44 6.21366 13.2133 5.90032 12.9733 5.60699C12.8 5.39366 12.8333 5.08032 13.0466 4.90032C13.26 4.72699 13.5733 4.75366 13.7533 4.97366C14.0133 5.29366 14.2666 5.64032 14.4933 6.00032C15.2 7.10032 15.2 8.89366 14.4933 10.0003C12.8666 12.547 10.5 14.0137 7.99996 14.0137Z" fill="#344054"/>
<path id="Vector_4" d="M8.45997 10.8469C8.22664 10.8469 8.01331 10.6802 7.96664 10.4402C7.91331 10.1669 8.09331 9.9069 8.36664 9.86023C9.09997 9.7269 9.71331 9.11356 9.84664 8.38023C9.89997 8.1069 10.16 7.93356 10.4333 7.98023C10.7066 8.03356 10.8866 8.29356 10.8333 8.5669C10.62 9.72023 9.69997 10.6336 8.55331 10.8469C8.51997 10.8402 8.49331 10.8469 8.45997 10.8469Z" fill="#344054"/>
<path id="Vector_5" d="M1.33329 15.1668C1.20663 15.1668 1.07996 15.1201 0.979961 15.0201C0.786628 14.8268 0.786628 14.5068 0.979961 14.3135L5.95996 9.33348C6.15329 9.14014 6.47329 9.14014 6.66663 9.33348C6.85996 9.52681 6.85996 9.84681 6.66663 10.0401L1.68663 15.0201C1.58663 15.1201 1.45996 15.1668 1.33329 15.1668Z" fill="#344054"/>
<path id="Vector_6" d="M9.68669 6.81329C9.56002 6.81329 9.43335 6.76663 9.33335 6.66663C9.14002 6.47329 9.14002 6.15329 9.33335 5.95996L14.3134 0.979961C14.5067 0.786628 14.8267 0.786628 15.02 0.979961C15.2134 1.17329 15.2134 1.49329 15.02 1.68663L10.04 6.66663C9.94002 6.76663 9.81335 6.81329 9.68669 6.81329Z" fill="#344054"/>
</g>
</g>
</svg>
