<svg width="20" height="20" viewBox="0 0 20 20" fill="none" xmlns="http://www.w3.org/2000/svg">
<g id="Icon">
<path id="Icon_2" d="M5 7.5V12.5M12.5 5L7.5 5M15 7.5V12.5M12.5 15H7.5M3.83333 7.5H6.16667C6.63338 7.5 6.86673 7.5 7.04499 7.40917C7.20179 7.32928 7.32928 7.20179 7.40917 7.04499C7.5 6.86673 7.5 6.63338 7.5 6.16667V3.83333C7.5 3.36662 7.5 3.13327 7.40917 2.95501C7.32928 2.79821 7.20179 2.67072 7.04499 2.59083C6.86673 2.5 6.63338 2.5 6.16667 2.5H3.83333C3.36662 2.5 3.13327 2.5 2.95501 2.59083C2.79821 2.67072 2.67072 2.79821 2.59083 2.95501C2.5 3.13327 2.5 3.36662 2.5 3.83333V6.16667C2.5 6.63338 2.5 6.86673 2.59083 7.04499C2.67072 7.20179 2.79821 7.32928 2.95501 7.40917C3.13327 7.5 3.36662 7.5 3.83333 7.5ZM3.83333 17.5H6.16667C6.63338 17.5 6.86673 17.5 7.04499 17.4092C7.20179 17.3293 7.32928 17.2018 7.40917 17.045C7.5 16.8667 7.5 16.6334 7.5 16.1667V13.8333C7.5 13.3666 7.5 13.1333 7.40917 12.955C7.32928 12.7982 7.20179 12.6707 7.04499 12.5908C6.86673 12.5 6.63338 12.5 6.16667 12.5H3.83333C3.36662 12.5 3.13327 12.5 2.95501 12.5908C2.79821 12.6707 2.67072 12.7982 2.59083 12.955C2.5 13.1333 2.5 13.3666 2.5 13.8333V16.1667C2.5 16.6334 2.5 16.8667 2.59083 17.045C2.67072 17.2018 2.79821 17.3293 2.95501 17.4092C3.13327 17.5 3.36662 17.5 3.83333 17.5ZM13.8333 7.5H16.1667C16.6334 7.5 16.8667 7.5 17.045 7.40917C17.2018 7.32928 17.3293 7.20179 17.4092 7.04499C17.5 6.86673 17.5 6.63338 17.5 6.16667V3.83333C17.5 3.36662 17.5 3.13327 17.4092 2.95501C17.3293 2.79821 17.2018 2.67072 17.045 2.59083C16.8667 2.5 16.6334 2.5 16.1667 2.5H13.8333C13.3666 2.5 13.1333 2.5 12.955 2.59083C12.7982 2.67072 12.6707 2.79821 12.5908 2.95501C12.5 3.13327 12.5 3.36662 12.5 3.83333V6.16667C12.5 6.63338 12.5 6.86673 12.5908 7.04499C12.6707 7.20179 12.7982 7.32928 12.955 7.40917C13.1333 7.5 13.3666 7.5 13.8333 7.5ZM13.8333 17.5H16.1667C16.6334 17.5 16.8667 17.5 17.045 17.4092C17.2018 17.3293 17.3293 17.2018 17.4092 17.045C17.5 16.8667 17.5 16.6334 17.5 16.1667V13.8333C17.5 13.3666 17.5 13.1333 17.4092 12.955C17.3293 12.7982 17.2018 12.6707 17.045 12.5908C16.8667 12.5 16.6334 12.5 16.1667 12.5H13.8333C13.3666 12.5 13.1333 12.5 12.955 12.5908C12.7982 12.6707 12.6707 12.7982 12.5908 12.955C12.5 13.1333 12.5 13.3666 12.5 13.8333V16.1667C12.5 16.6334 12.5 16.8667 12.5908 17.045C12.6707 17.2018 12.7982 17.3293 12.955 17.4092C13.1333 17.5 13.3666 17.5 13.8333 17.5Z" stroke="#7B68EE" stroke-width="1.67" stroke-linecap="round"/>
</g>
</svg>
