<svg width="16" height="17" viewBox="0 0 16 17" fill="none" xmlns="http://www.w3.org/2000/svg">
<g id="vuesax/outline/arrow-2">
<g id="arrow-2">
<path id="Vector" d="M7.46666 4.98016C7.46666 5.10683 7.41997 5.23352 7.31997 5.33352C7.12663 5.52685 6.80664 5.52685 6.6133 5.33352L4.48663 3.20685L2.35997 5.33352C2.16663 5.52685 1.84663 5.52685 1.6533 5.33352C1.45997 5.14018 1.45997 4.82018 1.6533 4.62685L4.13332 2.14683C4.22666 2.0535 4.3533 2.00018 4.48663 2.00018C4.61997 2.00018 4.74665 2.0535 4.83999 2.14683L7.31997 4.62685C7.4133 4.72685 7.46666 4.8535 7.46666 4.98016Z" fill="#344054"/>
<path id="Vector_2" d="M4.98663 2.5L4.98663 14.5C4.98663 14.7733 4.75997 15 4.48663 15C4.2133 15 3.98663 14.7733 3.98663 14.5L3.98663 2.5C3.98663 2.22667 4.2133 2 4.48663 2C4.75997 2 4.98663 2.22667 4.98663 2.5Z" fill="#344054"/>
<path id="Vector_3" d="M14.5 12.02C14.5 12.1467 14.4534 12.2733 14.3534 12.3733L11.8733 14.8534C11.78 14.9467 11.6534 15 11.52 15C11.3867 15 11.26 14.9467 11.1667 14.8534L8.68669 12.3733C8.49335 12.18 8.49335 11.86 8.68669 11.6667C8.88002 11.4733 9.20002 11.4733 9.39335 11.6667L11.52 13.7933L13.6466 11.6667C13.84 11.4733 14.16 11.4733 14.3534 11.6667C14.4534 11.76 14.5 11.8867 14.5 12.02Z" fill="#344054"/>
<path id="Vector_4" d="M12.0134 2.5V14.5C12.0134 14.7733 11.7867 15 11.5134 15C11.24 15 11.0134 14.7733 11.0134 14.5V2.5C11.0134 2.22667 11.24 2 11.5134 2C11.7867 2 12.0134 2.22667 12.0134 2.5Z" fill="#344054"/>
</g>
</g>
</svg>
