<svg width="20" height="20" viewBox="0 0 20 20" fill="none" xmlns="http://www.w3.org/2000/svg">
<g id="Icon">
<path id="Icon_2" d="M10.8332 7.39466C12.2709 7.02462 13.3332 5.71954 13.3332 4.16634C13.3332 2.32539 11.8408 0.833008 9.99984 0.833008C8.15889 0.833008 6.6665 2.32539 6.6665 4.16634C6.6665 5.71954 7.72881 7.02462 9.1665 7.39466V9.16634H6.6665C5.28579 9.16634 4.1665 10.2856 4.1665 11.6663V12.6047C2.72881 12.9747 1.6665 14.2798 1.6665 15.833C1.6665 17.674 3.15889 19.1663 4.99984 19.1663C6.84079 19.1663 8.33317 17.674 8.33317 15.833C8.33317 14.2798 7.27086 12.9747 5.83317 12.6047V11.6663C5.83317 11.2061 6.20627 10.833 6.6665 10.833H13.3332C13.7934 10.833 14.1665 11.2061 14.1665 11.6663V12.6047C12.7288 12.9747 11.6665 14.2798 11.6665 15.833C11.6665 17.674 13.1589 19.1663 14.9998 19.1663C16.8408 19.1663 18.3332 17.674 18.3332 15.833C18.3332 14.2798 17.2709 12.9747 15.8332 12.6047V11.6663C15.8332 10.2856 14.7139 9.16634 13.3332 9.16634H10.8332V7.39466Z" fill="white"/>
</g>
</svg>
