<svg width="25" height="25" viewBox="0 0 25 25" fill="none" xmlns="http://www.w3.org/2000/svg">
<g id="vuesax/outline/sun-fog">
<g id="sun-fog">
<path id="Vector" d="M19 13.25C18.59 13.25 18.25 12.91 18.25 12.5C18.25 9.33 15.67 6.75 12.5 6.75C9.33 6.75 6.75 9.33 6.75 12.5C6.75 12.91 6.41 13.25 6 13.25C5.59 13.25 5.25 12.91 5.25 12.5C5.25 8.5 8.5 5.25 12.5 5.25C16.5 5.25 19.75 8.5 19.75 12.5C19.75 12.91 19.41 13.25 19 13.25Z" fill="#101323"/>
<path id="Vector_2" d="M22.5 13.5H22.42C21.87 13.5 21.42 13.05 21.42 12.5C21.42 11.95 21.87 11.5 22.42 11.5C22.97 11.5 23.46 11.95 23.46 12.5C23.46 13.05 23.05 13.5 22.5 13.5ZM2.58002 13.5H2.5C1.95 13.5 1.5 13.05 1.5 12.5C1.5 11.95 1.95 11.5 2.5 11.5C3.05 11.5 3.53998 11.95 3.53998 12.5C3.53998 13.05 3.13002 13.5 2.58002 13.5ZM19.51 6.48999C19.25 6.48999 19 6.39001 18.8 6.20001C18.41 5.81001 18.41 5.18001 18.8 4.79001L18.93 4.66C19.32 4.27 19.95 4.27 20.34 4.66C20.73 5.05 20.73 5.68001 20.34 6.07001L20.21 6.20001C20.02 6.39001 19.77 6.48999 19.51 6.48999ZM5.48999 6.48999C5.22999 6.48999 4.98003 6.39001 4.78003 6.20001L4.65002 6.07001C4.26002 5.68001 4.26002 5.05 4.65002 4.66C5.04002 4.27 5.67 4.27 6.06 4.66L6.19 4.79001C6.58 5.18001 6.58 5.81001 6.19 6.20001C6 6.39001 5.73999 6.48999 5.48999 6.48999ZM12.5 3.54001C11.95 3.54001 11.5 3.12999 11.5 2.57999V2.5C11.5 1.95 11.95 1.5 12.5 1.5C13.05 1.5 13.5 1.95 13.5 2.5C13.5 3.05 13.05 3.54001 12.5 3.54001Z" fill="#101323"/>
<path id="Vector_3" d="M20.5 16.25H4.5C4.09 16.25 3.75 15.91 3.75 15.5C3.75 15.09 4.09 14.75 4.5 14.75H20.5C20.91 14.75 21.25 15.09 21.25 15.5C21.25 15.91 20.91 16.25 20.5 16.25Z" fill="#101323"/>
<path id="Vector_4" d="M18.5 19.25H6.5C6.09 19.25 5.75 18.91 5.75 18.5C5.75 18.09 6.09 17.75 6.5 17.75H18.5C18.91 17.75 19.25 18.09 19.25 18.5C19.25 18.91 18.91 19.25 18.5 19.25Z" fill="#101323"/>
<path id="Vector_5" d="M15.5 22.25H9.5C9.09 22.25 8.75 21.91 8.75 21.5C8.75 21.09 9.09 20.75 9.5 20.75H15.5C15.91 20.75 16.25 21.09 16.25 21.5C16.25 21.91 15.91 22.25 15.5 22.25Z" fill="#101323"/>
</g>
</g>
</svg>
