<svg width="32" height="32" viewBox="0 0 32 32" fill="none" xmlns="http://www.w3.org/2000/svg">
<g id="vuesax/outline/tick-circle">
<g id="tick-circle">
<path id="Vector" d="M16.0003 30.3332C8.09366 30.3332 1.66699 23.9065 1.66699 15.9998C1.66699 8.09317 8.09366 1.6665 16.0003 1.6665C23.907 1.6665 30.3337 8.09317 30.3337 15.9998C30.3337 23.9065 23.907 30.3332 16.0003 30.3332ZM16.0003 3.6665C9.20033 3.6665 3.66699 9.19984 3.66699 15.9998C3.66699 22.7998 9.20033 28.3332 16.0003 28.3332C22.8003 28.3332 28.3337 22.7998 28.3337 15.9998C28.3337 9.19984 22.8003 3.6665 16.0003 3.6665Z" fill="#667085"/>
<path id="Vector_2" d="M14.1069 20.7735C13.8402 20.7735 13.5869 20.6668 13.4002 20.4801L9.62691 16.7068C9.24025 16.3201 9.24025 15.6801 9.62691 15.2935C10.0136 14.9068 10.6536 14.9068 11.0402 15.2935L14.1069 18.3601L20.9602 11.5068C21.3469 11.1201 21.9869 11.1201 22.3736 11.5068C22.7602 11.8935 22.7602 12.5335 22.3736 12.9201L14.8136 20.4801C14.6269 20.6668 14.3736 20.7735 14.1069 20.7735Z" fill="#667085"/>
</g>
</g>
</svg>
