<svg width="21" height="20" viewBox="0 0 21 20" fill="none" xmlns="http://www.w3.org/2000/svg">
<g id="Icon">
<g id="Icon_2">
<path d="M14.7442 8.92279L9.61728 14.0497C8.83275 12.6547 7.67896 11.5009 6.28395 10.7164L12.724 4.27634C13.054 3.94633 13.219 3.78132 13.4093 3.7195C13.5766 3.66512 13.7569 3.66512 13.9243 3.7195C14.1146 3.78132 14.2796 3.94633 14.6096 4.27634L16.0573 5.72406C16.3873 6.05407 16.5523 6.21908 16.6142 6.40935C16.6685 6.57672 16.6685 6.75701 16.6142 6.92438C16.5523 7.11465 16.3873 7.27966 16.0573 7.60968L15.9227 7.74428L17.2948 9.11631C17.7829 9.60447 17.7829 10.3959 17.2948 10.8841L15.0894 13.0895C14.764 13.4149 14.2363 13.4149 13.9109 13.0895C13.5854 12.764 13.5854 12.2364 13.9109 11.9109L15.8216 10.0002L14.7442 8.92279Z" fill="white"/>
<path d="M5.13439 12.2641L4.51006 14.137C4.23865 14.9513 4.10294 15.3584 4.19948 15.6291C4.2835 15.8648 4.4689 16.0502 4.70451 16.1342C4.97524 16.2307 5.38237 16.095 6.1966 15.8236L8.06958 15.1993C8.16394 15.1678 8.2385 15.143 8.30078 15.1209C7.62328 13.792 6.54163 12.7104 5.21275 12.0329C5.19069 12.0952 5.16584 12.1697 5.13439 12.2641Z" fill="white"/>
</g>
</g>
</svg>
