<svg width="16" height="16" viewBox="0 0 16 16" fill="none" xmlns="http://www.w3.org/2000/svg">
<g id="vuesax/outline/timer">
<g id="timer">
<path id="Vector" d="M10.1602 15.1663H5.84021C4.58021 15.1663 3.66021 14.6397 3.30687 13.733C2.94021 12.7863 3.28021 11.613 4.16021 10.8197L7.25354 7.99967L4.16021 5.17967C3.28021 4.38634 2.94021 3.21301 3.30687 2.26634C3.66021 1.35301 4.58021 0.833008 5.84021 0.833008H10.1602C11.4202 0.833008 12.3402 1.35967 12.6935 2.26634C13.0602 3.21301 12.7202 4.38634 11.8402 5.17967L8.74687 7.99967L11.8469 10.8197C12.7202 11.613 13.0669 12.7863 12.7002 13.733C12.3402 14.6397 11.4202 15.1663 10.1602 15.1663ZM8.00021 8.67301L4.83354 11.553C4.27354 12.0663 4.02687 12.813 4.24021 13.3663C4.44021 13.8797 5.00687 14.1663 5.84021 14.1663H10.1602C10.9935 14.1663 11.5602 13.8863 11.7602 13.3663C11.9735 12.813 11.7335 12.0663 11.1669 11.553L8.00021 8.67301ZM5.84021 1.83301C5.00687 1.83301 4.44021 2.11301 4.24021 2.63301C4.02687 3.18634 4.26687 3.93301 4.83354 4.44634L8.00021 7.32634L11.1669 4.44634C11.7269 3.93301 11.9735 3.18634 11.7602 2.63301C11.5602 2.11967 10.9935 1.83301 10.1602 1.83301H5.84021Z" fill="#E62E2E"/>
</g>
</g>
</svg>
