<svg width="16" height="16" viewBox="0 0 16 16" fill="none" xmlns="http://www.w3.org/2000/svg">
<g id="vuesax/outline/trash">
<g id="trash">
<path id="Vector" d="M13.9999 4.48681C13.9866 4.48681 13.9666 4.48681 13.9466 4.48681C10.4199 4.13348 6.89994 4.00015 3.41328 4.35348L2.05328 4.48681C1.77328 4.51348 1.52661 4.31348 1.49994 4.03348C1.47328 3.75348 1.67328 3.51348 1.94661 3.48681L3.30661 3.35348C6.85328 2.99348 10.4466 3.13348 14.0466 3.48681C14.3199 3.51348 14.5199 3.76015 14.4933 4.03348C14.4733 4.29348 14.2533 4.48681 13.9999 4.48681Z" fill="#667085"/>
<path id="Vector_2" d="M5.66675 3.8135C5.64009 3.8135 5.61342 3.8135 5.58009 3.80683C5.31342 3.76016 5.12675 3.50016 5.17342 3.2335L5.32009 2.36016C5.42675 1.72016 5.57342 0.833496 7.12675 0.833496H8.87342C10.4334 0.833496 10.5801 1.7535 10.6801 2.36683L10.8268 3.2335C10.8734 3.50683 10.6868 3.76683 10.4201 3.80683C10.1468 3.8535 9.88675 3.66683 9.84676 3.40016L9.70009 2.5335C9.60675 1.9535 9.58675 1.84016 8.88009 1.84016H7.13342C6.42675 1.84016 6.41342 1.9335 6.31342 2.52683L6.16009 3.3935C6.12009 3.64016 5.90675 3.8135 5.66675 3.8135Z" fill="#667085"/>
<path id="Vector_3" d="M10.1401 15.1667H5.8601C3.53343 15.1667 3.4401 13.8801 3.36676 12.8401L2.93343 6.12672C2.91343 5.85338 3.12676 5.61338 3.4001 5.59338C3.6801 5.58005 3.91343 5.78672 3.93343 6.06005L4.36676 12.7734C4.4401 13.7867 4.46676 14.1667 5.8601 14.1667H10.1401C11.5401 14.1667 11.5668 13.7867 11.6334 12.7734L12.0668 6.06005C12.0868 5.78672 12.3268 5.58005 12.6001 5.59338C12.8734 5.61338 13.0868 5.84672 13.0668 6.12672L12.6334 12.8401C12.5601 13.8801 12.4668 15.1667 10.1401 15.1667Z" fill="#667085"/>
<path id="Vector_4" d="M9.10672 11.5H6.88672C6.61339 11.5 6.38672 11.2733 6.38672 11C6.38672 10.7267 6.61339 10.5 6.88672 10.5H9.10672C9.38005 10.5 9.60672 10.7267 9.60672 11C9.60672 11.2733 9.38005 11.5 9.10672 11.5Z" fill="#667085"/>
<path id="Vector_5" d="M9.66659 8.8335H6.33325C6.05992 8.8335 5.83325 8.60683 5.83325 8.3335C5.83325 8.06016 6.05992 7.8335 6.33325 7.8335H9.66659C9.93992 7.8335 10.1666 8.06016 10.1666 8.3335C10.1666 8.60683 9.93992 8.8335 9.66659 8.8335Z" fill="#667085"/>
</g>
</g>
</svg>
