<svg width="308" height="266" viewBox="0 0 308 266" fill="none" xmlns="http://www.w3.org/2000/svg">
<path d="M85.9184 238.654C88.2793 233.502 88.718 228.103 89.1907 222.602C86.9557 222.646 85.2296 221.753 83.4774 220.856C82.3359 220.271 81.0424 219.983 79.8929 219.412C77.7382 218.341 75.7096 217.119 74.0916 215.223C73.2226 214.206 71.9148 213.549 70.7637 212.792C68.8933 211.56 67.8079 209.716 67.7438 207.632C67.6558 204.774 68.0803 201.9 68.2906 199.033C68.3187 198.638 68.4126 198.246 68.4226 197.851C68.4928 195.154 68.5429 192.457 68.6148 189.759C68.6669 187.753 68.8193 185.744 68.7872 183.74C68.749 181.393 68.5387 179.05 68.4449 176.705C68.3446 174.216 68.2285 171.725 68.2366 169.234C68.2505 164.981 68.1964 160.715 68.4747 156.476C68.7089 152.9 68.6248 149.357 68.4689 145.791C68.3805 143.79 68.7471 141.772 68.8193 139.757C68.8471 138.996 68.629 138.225 68.5129 137.382C64.2335 140.474 59.2494 141.421 54.7817 143.52C52.7894 144.455 50.9931 145.861 49.223 147.203C46.6936 149.121 44.1687 150.989 41.199 152.227C40.1737 152.655 39.3668 153.609 38.4635 154.327C37.929 154.752 37.4023 155.188 36.8695 155.621C37.4023 156.826 37.0519 158.054 35.8862 159.031C33.3733 161.14 30.3855 162.438 27.494 163.891C26.3966 164.444 24.9828 163.751 24.324 162.341C23.5993 160.791 23.0506 159.157 22.3495 157.596C22.0211 156.862 21.6047 156.128 21.0719 155.537C19.45 153.739 17.5858 152.253 15.4931 150.983C14.1255 150.154 13 148.899 11.8446 147.753C10.8252 146.742 9.68391 145.749 9.01309 144.519C7.88366 142.451 6.88242 140.266 6.18957 138.017C5.02413 134.227 4.151 130.346 3.13772 126.509C2.90746 125.634 2.54901 124.793 2.34075 123.914C1.72798 121.332 3.00361 119.516 4.90396 118.048C5.42262 117.648 6.2016 117.311 6.81836 117.376C7.77754 117.474 8.46438 118.223 8.94699 119.08C10.1264 121.182 11.5502 123.085 13.3144 124.753C14.8444 126.201 16.2861 127.748 17.6877 129.322C19.558 131.421 22.0392 132.316 24.6184 133.077C25.3953 133.307 26.1624 133.596 26.8994 133.932C27.9305 134.405 28.199 135.008 27.9525 136.091C27.8383 136.599 27.6781 137.096 27.582 137.607C27.4559 138.276 27.8904 138.616 28.4232 138.424C30.4194 137.701 32.414 138.49 34.4086 138.333C35.1816 138.273 35.9283 138.418 36.5812 137.817C36.8154 137.601 37.2402 137.466 37.5605 137.493C40.1317 137.705 42.4767 136.802 44.8876 136.143C48.2378 135.226 50.9873 133.319 53.6726 131.235C57.2247 128.477 60.8033 125.75 64.4056 123.059C68.1864 120.233 72.0672 117.538 75.7937 114.644C78.8997 112.235 81.9195 109.704 84.8449 107.081C87.5523 104.654 90.4699 102.549 93.5979 100.733C95.312 99.7376 97.1302 98.9226 98.9045 98.0235C97.0681 98.0235 95.1719 98.0675 93.2795 98.0116C91.2332 97.9514 89.2887 97.425 87.5044 96.4055C87.2119 96.2393 86.8654 95.8089 86.8816 95.5184C86.9518 94.265 87.1479 93.0175 87.3223 91.5515C86.6713 90.8786 85.7563 89.9474 84.855 89.0024C83.7436 87.837 83.4573 86.3653 83.213 84.8372C83.115 84.2244 82.7145 83.4777 82.2159 83.147C80.6299 82.0939 79.8308 80.5358 79.316 78.8518C78.2267 75.2754 76.3065 72.2235 73.8214 69.4861C70.8737 66.2381 68.7189 62.5055 67.067 58.4645C66.426 56.8967 65.7414 55.3466 65.1688 53.7567C64.9663 53.1918 64.9624 52.5231 65.0086 51.9103C65.0565 51.2577 65.393 50.8549 66.0679 50.4625C67.8221 49.4434 69.2719 49.5035 70.8258 50.8391C74.0016 53.5704 77.2558 56.2137 80.5558 58.9592C81.8014 57.7078 83.2451 56.2438 84.6987 54.794C87.3381 52.1627 90.3981 50.0642 93.4397 47.9454C95.6886 46.3795 97.9112 44.7676 100.232 43.3098C101.98 42.2123 103.861 41.3252 105.685 40.352C107.738 39.2568 109.734 38.0213 111.872 37.126C113.386 36.4932 115.089 36.289 116.719 35.9565C118.253 35.6442 119.802 35.398 121.348 35.1557C122.175 35.0253 122.678 35.8264 122.786 36.6595C122.908 37.6126 122.526 38.8802 123.931 39.383C124.198 39.4791 124.41 39.9916 124.472 40.342C124.769 42.0561 125.041 43.7783 125.243 45.5066C125.301 46.0009 125.105 46.5257 125.017 47.0945C134.459 61.0117 144.033 74.949 153.987 88.8963C155.369 85.47 156.844 82.4563 157.161 79.0239C157.349 76.9834 157.88 74.9749 158.194 72.9424C158.424 71.4506 158.635 69.9448 158.711 68.4388C158.799 66.6946 158.637 64.9365 158.753 63.1965C158.925 60.6031 159.311 58.0261 159.482 55.4327C159.604 53.5723 159.476 51.6961 159.548 49.8297C159.606 48.3301 159.814 46.836 159.93 45.3383C160.142 42.6291 160.144 39.8855 160.601 37.2182C160.923 35.334 161.821 33.5435 162.514 31.7314C163.034 30.3677 163.575 29.0059 164.22 27.6985C165.455 25.1992 167.688 24.0639 170.251 23.2868C171.623 22.8723 172.796 23.1108 174.134 23.7355C174.498 22.9345 174.847 22.1797 175.185 21.4187C177.221 16.841 180.446 13.2546 184.343 10.1745C187.456 7.71567 190.813 5.65119 194.537 4.37937C197.415 3.39841 200.475 2.94578 203.464 2.30486C205.343 1.90238 207.227 1.81826 209.161 2.06673C212.225 2.46112 214.842 3.58865 217.263 5.5771C220.399 8.15212 222.966 11.162 225.295 14.5242C225.818 13.4325 226.827 13.1543 227.822 12.922C230.071 12.3953 232.328 11.8928 234.593 11.4402C236.992 10.9598 239.401 10.523 241.814 10.1147C243.942 9.75426 246.079 9.41585 248.222 9.14537C249.435 8.99331 250.669 8.98101 251.894 8.92925C253.887 8.84513 255.881 8.73286 257.876 8.71895C259.376 8.70892 260.875 8.8131 262.375 8.90725C264.139 9.01725 265.922 9.04119 267.654 9.34952C268.845 9.56176 269.969 10.1745 271.108 10.6433C272.6 11.2581 274.08 11.9067 275.562 12.5457C276.795 13.0783 277.824 13.8674 278.513 15.0347C279.16 16.1302 279.735 17.2694 280.383 18.3629C281.176 19.6965 281.016 21.1104 280.862 22.5478C280.738 23.7174 280.7 24.8948 280.614 26.2206C281.355 25.8621 281.883 25.5218 282.46 25.3435C283.898 24.899 285.34 24.4243 286.815 24.1519C288.367 23.8656 289.707 24.4823 290.862 25.5496C291.608 26.2384 292.152 27.0715 293.4 27.2579C294.237 27.3821 294.93 28.4333 295.704 29.0461C297.347 30.3476 299.025 31.6052 300.641 32.9388C301.368 33.5396 302.144 34.1844 302.603 34.9794C303.606 36.7155 305.385 37.9672 305.77 40.0838C305.929 40.9467 306.1 41.8118 306.336 42.6569C306.579 43.522 306.042 43.7643 305.291 44.1969C304.842 49.4094 303.111 54.5737 301.838 59.8463C300.897 63.7472 300.148 67.696 299.309 71.6208C298.997 73.0806 298.706 74.5465 298.334 75.9904C298.222 76.4249 297.889 76.8155 297.607 77.1878C297.511 77.316 297.262 77.3279 296.904 77.458C296.904 79.5788 296.892 81.9238 296.932 84.2704C296.934 84.4227 297.334 84.6971 297.547 84.6952C299.011 84.6871 299.679 85.5901 299.171 86.9437C298.996 87.4083 298.849 87.883 298.652 88.4618C299.706 89.9817 300.4 91.824 300.302 93.8904C300.128 97.5589 300.074 101.246 299.657 104.888C299.299 108.022 298.48 111.102 297.909 114.214C297.409 116.941 296.928 119.676 296.514 122.418C296.013 125.732 295.254 128.956 293.92 132.054C292.813 134.629 291.888 137.284 290.893 139.908C290.192 141.756 288.944 143.128 287.326 144.241C285.915 145.214 284.601 146.329 283.215 147.345C282.981 147.517 282.604 147.585 282.306 147.561C281.605 147.507 281.058 147.569 280.658 148.292C278.922 151.422 278.171 154.854 277.716 158.33C277.22 162.115 277.079 165.944 276.637 169.735C276.354 172.161 275.854 174.567 275.365 176.963C274.64 180.51 273.843 184.04 273.071 187.577C272.502 190.184 271.867 192.777 271.37 195.398C271.036 197.165 270.838 198.963 270.682 200.757C270.389 204.141 270.163 207.529 269.924 210.917C269.833 212.237 269.826 213.565 269.692 214.88C269.62 215.585 269.448 216.314 269.156 216.957C268.815 217.704 268.359 218.202 267.277 218.207C265.385 218.213 263.495 218.599 261.602 218.821C259.413 219.08 257.229 219.356 255.036 219.58C252.657 219.825 250.254 219.905 247.893 220.259C244.303 220.8 240.744 221.541 237.164 222.137C236.297 222.282 235.388 222.157 234.505 222.233C231.401 222.5 228.291 222.734 225.199 223.105C222.376 223.443 219.582 224.112 216.753 224.32C213.601 224.553 210.423 224.422 207.257 224.46C204.832 224.49 202.403 224.466 199.982 224.59C196.029 224.795 192.08 225.097 188.131 225.366C185.27 225.56 182.41 225.916 179.55 225.91C177.702 225.906 175.84 225.447 174.012 225.063C172.71 224.789 171.406 224.404 170.195 223.866C169.516 223.563 168.949 222.904 168.461 222.302C167.878 221.583 167.273 221.376 166.432 221.757C163.515 223.075 160.553 223.373 157.483 222.223C156.672 221.921 155.761 221.823 154.886 221.769C151.133 221.541 147.375 221.427 143.628 221.144C141.423 220.978 139.238 220.556 137.038 220.293C136.473 220.225 135.884 220.381 135.314 220.347C133.64 220.247 131.97 220.067 130.293 219.985C129.028 219.923 127.752 220.027 126.489 219.937C123.507 219.726 120.531 219.418 117.548 219.202C115.723 219.07 113.889 219.078 112.065 218.951C109.822 218.797 107.581 218.577 105.343 218.359C105.128 218.339 104.834 218.157 104.75 217.972C104.361 217.103 103.787 217.109 103.003 217.418C102.463 217.63 101.836 217.618 101.267 217.774C99.6635 218.214 98.7702 219.935 99.0226 221.573C99.5073 224.715 99.9236 227.873 100.234 231.036C100.48 233.54 100.48 236.067 100.675 238.576C100.761 239.677 101.031 240.767 101.277 241.848C101.326 242.062 101.666 242.388 101.834 242.366C102.727 242.253 102.952 242.909 103.02 243.484C103.106 244.223 102.966 244.99 102.908 245.745C102.834 246.71 102.689 247.673 102.669 248.638C102.631 250.557 102.657 252.475 102.659 254.394C102.659 254.624 102.659 254.862 102.709 255.084C103.22 257.447 102.675 257.958 100.284 258.198C98.8324 258.344 97.3625 258.29 95.9108 258.428C94.6151 258.553 93.2815 258.657 92.054 259.051C89.6611 259.822 87.2559 259.876 84.789 259.71C81.8111 259.512 79.0119 260.211 76.1984 261.252C73.0705 262.409 69.8144 263.319 66.5383 263.941C63.8209 264.458 61.3718 263.236 59.1533 261.66C57.9818 260.829 57.3651 260.052 57.4589 258.294C57.5731 256.138 58.6606 255.044 60.1165 254.047C60.8354 253.556 61.7846 253.33 62.6637 253.162C64.632 252.786 66.1879 251.608 67.7218 250.505C70.8478 248.254 73.8916 245.881 76.8433 243.408C78.1788 242.29 79.2581 240.851 80.3795 239.495C81.7011 237.895 83.2671 237.603 85.1174 238.384C85.3539 238.484 85.6082 238.544 85.9123 238.64L85.9184 238.654ZM120.119 102.393C119.991 102.347 119.863 102.301 119.734 102.255C119.796 102.349 119.859 102.443 119.921 102.537C120.578 103.07 121.242 103.593 121.889 104.139C123.793 105.753 125.68 107.387 127.592 108.991C129.416 110.523 131.331 111.955 133.087 113.559C135.999 116.218 138.309 119.36 140.132 122.862C140.398 123.375 140.758 123.84 141.077 124.326C141.371 123.407 141.676 122.522 141.469 121.777C140.989 120.039 140.396 118.305 139.605 116.687C138.073 113.557 135.256 111.656 132.438 109.854C129.468 107.956 126.385 106.242 123.359 104.431C122.263 103.777 121.198 103.072 120.119 102.391V102.393Z" fill="white"/>
<path d="M290.204 65.682C290.354 65.1611 289.871 65.3995 289.714 65.3193C288.692 64.8029 287.631 64.3041 286.561 63.9637C285.442 63.6075 285.724 63.0727 285.877 62.3318C286.525 59.1498 287.014 55.9319 288.113 52.8561C288.256 52.4555 288.454 52.0712 288.664 51.7027C288.944 51.2119 289.185 50.8757 289.735 51.5603C290.092 52.0048 290.827 51.8146 291.385 51.957C294.285 52.6917 297.128 53.5128 299.68 55.1868C300.539 55.7517 300.701 56.4463 300.467 57.1914C299.62 59.8988 299.203 62.7663 297.589 65.1973C297.463 65.3876 297.515 65.5717 297.507 65.768C297.477 66.4229 297.098 66.639 296.47 66.627C295.166 66.6012 293.874 66.4449 292.625 66.1165C292.066 65.9683 291.932 66.0663 291.836 66.5711C291.788 66.8173 291.628 67.0716 291.452 67.2579C291.105 67.6242 291.255 67.8545 291.55 68.157C292.435 69.062 293.003 70.0633 292.248 71.3348C292.12 71.5512 292.267 71.6833 292.393 71.7172C294.666 72.3242 295.677 74.2246 296.816 75.9986C296.866 76.0769 296.97 76.1209 297.112 76.2289C297.557 75.0856 297.667 73.9001 297.9 72.7487C298.959 67.5041 300.176 62.2997 301.614 57.1413C302.747 53.0683 303.784 48.9652 304.551 44.802C304.713 43.9249 305.01 43.074 305.23 42.2088C305.369 41.6663 305.767 41.4259 306.256 41.4579C306.712 41.4899 306.809 41.9206 306.926 42.3208C307.395 43.9511 307.036 45.5791 306.819 47.1709C305.754 54.9946 303.574 62.59 301.948 70.2995C301.083 74.3968 300.314 78.5157 299.521 82.6288C299.453 82.9772 299.285 83.4638 299.88 83.578C301.025 83.7984 300.859 84.6535 300.631 85.3543C300.382 86.1171 300.286 86.9723 299.716 87.6032C299.495 87.8474 299.672 87.9396 299.802 88.0736C302.211 90.5768 302.933 93.6044 302.784 96.9967C302.511 103.104 301.834 109.164 300.883 115.195C300.008 120.736 298.534 126.119 296.724 131.425C295.667 134.523 294.804 137.687 293.712 140.779C292.921 143.02 291.57 144.782 289.689 146.174C289.405 146.384 289.076 146.546 288.676 146.474C287.561 146.272 286.95 146.55 286.525 147.578C286.185 148.405 285.472 148.559 284.773 148.627C283.634 148.735 282.787 149.298 282.544 150.361C280.852 157.82 279.106 165.267 277.508 172.747C276.275 178.518 275.159 184.315 274.128 190.124C273.447 193.965 272.994 197.846 272.466 201.715C272.059 204.692 271.329 207.598 270.617 210.511C270.333 211.679 271.01 212.822 270.906 214.022C270.83 214.909 270.962 215.818 270.648 216.679C270.536 216.985 270.419 217.384 270.177 217.532C269.078 218.201 268.441 219.551 267.011 219.715C266.318 219.795 266.514 220.317 266.497 220.696C266.408 222.52 266.382 224.346 265.689 226.087C265.523 226.503 265.277 226.836 265.041 227.194C264.496 228.025 264.694 228.418 265.667 228.602C266.567 228.772 267.46 228.994 268.341 229.247C268.673 229.341 269.076 229.511 269.032 229.971C268.996 230.358 268.657 230.486 268.323 230.568C267.39 230.796 266.466 231.025 265.481 231.007C263.148 230.965 260.813 231.035 258.48 230.983C256.092 230.929 253.713 230.693 251.344 230.372C251.149 230.346 250.965 230.256 250.775 230.194C250.34 230.05 249.928 229.785 249.912 229.335C249.9 228.966 250.344 228.788 250.665 228.618C251.824 227.999 253.108 227.801 254.38 227.611C254.88 227.535 254.908 227.344 254.794 226.964C254.311 225.358 254.177 223.71 254.235 222.046C254.258 221.447 254.021 221.305 253.477 221.377C248.45 222.04 243.426 222.733 238.392 223.329C234.835 223.75 231.265 224.058 227.697 224.369C222.206 224.843 216.713 225.292 211.218 225.722C208.04 225.971 204.856 226.167 201.674 226.377C198.662 226.575 195.649 226.768 192.635 226.948C192.241 226.972 192.06 227.098 191.964 227.506C191.139 231.007 190.772 234.583 190.154 238.118C189.996 239.025 189.765 239.928 189.477 240.803C189.295 241.36 189.483 241.436 189.954 241.414C191.119 241.362 192.26 241.544 193.386 241.82C193.728 241.904 194.235 241.979 194.225 242.373C194.213 242.809 193.702 243.012 193.32 242.988C192.344 242.926 191.407 243.234 190.444 243.212C189.026 243.182 187.713 243.55 186.371 244.007C184.811 244.54 183.145 244.748 181.477 244.464C178.712 243.991 175.946 243.506 173.187 243C172.572 242.888 171.961 242.694 171.43 242.345C170.836 241.955 170.84 241.544 171.533 241.296C172.864 240.817 174.244 240.665 175.642 240.911C176.208 241.011 176.937 241.226 177.276 240.913C177.626 240.589 177.077 239.976 176.905 239.505C176.008 237.049 175.63 234.475 175.145 231.926C174.849 230.366 174.43 228.788 174.605 227.218C174.715 226.229 174.362 226.031 173.605 225.979C172.078 225.876 170.98 224.905 169.799 224.112C169.51 223.918 169.258 223.756 168.895 223.792C164.948 224.191 161.032 224.036 157.103 223.43C153.622 222.893 150.13 222.384 146.602 222.166C143.594 221.978 140.588 221.711 137.593 221.375C131.479 220.686 125.35 220.396 119.198 220.356C116.37 220.338 113.543 220.135 110.719 219.971C109.836 219.919 108.965 219.711 108.086 219.589C107.878 219.561 107.648 219.555 107.63 219.308C107.611 219.082 107.822 218.942 108.016 218.91C108.703 218.798 109.392 218.654 110.083 218.64C113.607 218.559 117.133 218.421 120.654 218.483C126.114 218.579 131.563 218.904 136.994 219.557C141.92 220.15 146.87 220.524 151.808 221.021C154.92 221.335 157.996 221.976 161.132 222.098C163.026 222.172 164.918 222.358 166.817 222.182C167.268 222.14 167.718 222.064 168.221 222.44C166.453 218.689 166.559 214.817 166.539 210.966C166.519 207.107 166.312 203.233 166.595 199.394C167.119 192.239 167.213 185.082 167.111 177.921C167.061 174.469 166.749 171.023 166.37 167.584C166.048 164.653 165.771 161.713 165.545 158.771C165.401 156.913 165.455 156.991 163.593 156.885C161.891 156.787 160.421 157.662 158.775 157.802C156.472 157.998 154.187 158.425 151.89 158.703C149.067 159.046 146.237 159.352 143.408 159.645C141.658 159.827 139.899 159.943 138.147 160.115C135.778 160.349 133.413 160.628 131.043 160.858C128.596 161.094 126.145 161.312 123.693 161.507C120.383 161.771 117.075 162.037 113.761 162.242C112.265 162.334 110.761 162.3 109.26 162.296C108.633 162.296 108.078 161.897 108.042 161.354C108.008 160.848 108.635 160.618 109.145 160.524C111.59 160.075 114.067 159.931 116.538 159.722C117.299 159.658 118.033 159.382 118.839 159.442C114.262 158.207 110.874 155.039 107.183 152.277C106.594 156.454 106.056 160.515 105.445 164.565C104.81 168.782 104.614 173.019 104.626 177.276C104.65 185.831 104.598 194.385 104.7 202.938C104.732 205.622 105.254 208.295 105.377 210.98C105.537 214.488 105.781 218.013 105.104 221.507C105.03 221.893 105.06 222.304 105.06 222.703C105.058 224.122 104.113 225.294 102.715 225.39C102.123 225.43 102.239 225.734 102.269 226.021C102.693 230.11 103.15 234.195 103.506 238.29C103.602 239.397 103.496 240.549 103.971 241.64C104.205 241.38 104.562 240.989 104.948 241.318C105.439 241.734 105.893 242.279 105.841 242.982C105.717 244.634 105.555 246.284 105.363 247.93C105.076 250.389 104.752 252.842 104.439 255.335C104.896 255.281 104.988 254.869 105.387 254.712C105.465 254.88 105.665 255.103 105.619 255.247C105.325 256.176 105.946 256.4 106.598 256.693C107.441 257.069 108.246 257.534 109.073 257.948C109.392 258.106 109.66 258.311 109.64 258.687C109.618 259.1 109.293 259.162 108.943 259.254C108.421 259.39 107.902 259.438 107.367 259.438C106.726 259.438 106.164 259.478 105.569 259.951C104.876 260.504 103.839 260.381 102.972 260.395C99.3752 260.453 95.7969 260.928 92.2144 260.968C87.5946 261.018 83.1592 262.144 78.6796 262.94C75.6979 263.471 72.7864 264.484 69.7988 265.091C66.9232 265.676 64.0334 266.082 61.208 264.845C59.1493 263.944 57.5614 262.554 56.8364 260.355C56.7464 260.085 56.5982 259.923 56.3841 259.911C55.1643 259.847 55.0802 258.913 55.0362 258.064C54.9783 256.945 55.3125 255.918 56.0735 255.037C57.5896 253.279 59.514 252.131 61.6706 251.414C66.7087 249.744 70.6038 246.476 74.2141 242.745C75.9282 240.975 77.608 239.163 79.5266 237.595C80.3496 236.922 81.1245 236.411 82.3022 236.7C82.9509 236.858 83.4954 236.055 84.2123 236.047C85.2538 236.035 85.0134 235.176 85.1616 234.597C85.522 233.182 85.5042 231.652 86.7696 230.254C84.7452 230.786 82.981 230.587 81.2329 230.663C78.9319 230.763 76.6271 230.642 74.3782 230.022C73.9255 229.897 73.435 229.703 73.5053 229.269C73.5774 228.814 73.7977 228.33 74.4885 228.199C76.1204 227.895 76.0444 227.853 75.726 226.183C75.5096 225.05 75.4034 223.888 75.4177 222.719C75.4335 221.155 75.5118 219.585 75.2672 218.027C75.1831 217.492 75.3656 216.98 75.5157 216.333C79.1461 218.331 82.7066 220.392 86.5153 221.952C85.8766 221.229 84.9833 220.934 84.1945 220.468C80.9983 218.578 77.8966 216.525 74.5645 214.867C74.0058 214.589 73.7233 214.08 73.3571 213.599C72.0254 211.845 71.7831 210.003 72.412 207.908C73.1688 205.387 73.6813 202.794 74.6286 200.329C74.8389 199.78 74.999 199.194 75.616 198.921C75.9463 198.775 75.8082 198.463 75.826 198.216C76.1084 194.357 76.0706 190.491 76.0143 186.628C75.9622 183.056 76.1003 179.489 76.2585 175.926C76.473 171.116 76.8833 166.315 77.1919 161.509C77.354 158.987 77.4983 156.463 77.6164 153.939C77.7847 150.319 78.1088 146.712 78.3832 143.1C78.5793 140.513 78.7756 137.924 79.0562 135.344C79.2263 133.772 79.3985 132.182 79.941 130.668C80.0332 130.412 79.8611 130.062 79.765 129.463C79.5185 130.438 79.3143 131.117 79.1801 131.81C78.7857 133.855 77.398 135.304 76.1605 136.83C74.3342 139.085 72.1234 140.955 69.9548 142.862C69.5462 143.22 69.2737 143.564 69.5222 144.147C69.6222 144.381 69.6163 144.67 69.6163 144.934C69.6163 149.201 69.7564 153.475 69.4041 157.73C68.6289 167.068 68.4869 176.423 68.6671 185.777C68.7593 190.545 68.8994 195.311 68.7312 200.071C68.6393 202.702 68.7412 205.329 68.6351 207.956C68.5992 208.863 68.8454 209.727 69.4122 210.469C69.6122 210.732 69.8267 210.988 69.9968 211.269C70.267 211.713 70.5837 212.308 70.2333 212.692C69.8328 213.131 69.3339 212.636 68.9337 212.382C67.626 211.549 67.0371 210.401 67.0171 208.793C66.9449 203.128 67.4616 197.479 67.4477 191.818C67.4338 185.725 67.4076 179.631 67.6078 173.54C67.8162 167.196 68.0443 160.852 68.3329 154.512C68.473 151.434 68.3889 148.348 68.3927 145.265C68.3927 145.05 68.505 144.756 68.2526 144.622C67.9725 144.472 67.8521 144.776 67.6981 144.92C64.1777 148.214 60.481 151.322 57.1528 154.824C56.7526 155.245 56.5481 155.648 56.5963 156.226C56.6423 156.791 56.6044 157.36 56.6063 157.928C56.6102 159.588 55.8994 160.788 54.5237 161.771C53.4564 162.534 52.2768 163.193 51.4518 164.31C51.1334 164.743 50.4566 164.885 49.8318 164.528C48.286 163.647 47.2866 162.344 46.5476 160.736C45.3644 158.159 44.6753 155.429 43.8804 152.622C42.4206 153.723 40.8146 154.42 39.3007 155.281C38.7562 155.591 38.2994 156.1 38.6258 156.953C39.3247 158.783 39.0506 159.542 37.5106 160.712C35.7865 162.021 33.866 162.994 31.9215 163.91C31.1868 164.256 30.5659 164.851 29.8551 165.113C26.2865 166.425 23.3889 165.273 21.5529 161.653C20.8938 160.355 20.3111 159.038 19.9407 157.63C19.8045 157.109 19.5363 156.773 18.9694 156.525C15.5733 155.029 13.0102 152.476 10.5971 149.75C5.91534 144.466 3.56249 138.042 1.50794 131.439C0.438626 128.007 -0.0500103 124.575 0.49065 121.019C0.979254 117.8 4.31536 114.691 7.50934 114.494C8.63673 114.424 9.32159 115.217 9.92032 116.028C10.6292 116.99 11.0978 118.087 11.6045 119.162C13.3066 122.789 16.1142 125.43 19.246 127.803C21.7832 129.727 24.5905 131.239 27.1597 133.107C27.9906 133.712 29.1042 134.297 28.5933 135.721C28.4733 136.057 28.7777 136.095 29.0201 136.055C31.2728 135.689 33.5437 135.911 35.8023 135.913C37.5426 135.913 39.2367 135.574 40.9569 135.456C41.5037 135.418 41.9 135.262 41.6538 134.455C41.3474 133.452 42.0301 132.296 43.0152 131.676C44.4391 130.781 45.9672 130.088 47.4768 129.363C47.9074 129.156 48.2879 128.924 48.6082 128.578C52.237 124.649 56.55 121.519 60.6894 118.185C64.8905 114.801 68.8855 111.192 72.7061 107.38C77.2579 102.836 81.8175 98.2902 86.8757 94.2913C87.084 94.1273 87.2924 93.9629 87.6408 93.6866C86.6376 93.4682 86.0086 92.9716 85.2997 92.6332C84.2926 92.1527 83.8419 91.2436 83.7018 90.2623C83.5675 89.335 84.3188 89.3192 85.0675 89.4573C84.1564 89.1231 83.2854 88.8808 82.4643 88.4822C81.2167 87.8756 80.8802 86.9642 81.6635 85.8409C82.252 84.9958 82.9949 84.285 84.1463 84.2429C84.9494 84.2148 84.9733 84.6635 84.7352 85.208C84.553 85.6286 84.2945 86.0272 84.0221 86.3977C83.4236 87.2126 83.7018 87.7051 84.5469 88.0616C85.3117 88.3842 85.7543 88.9487 86.0927 89.7479C86.5133 90.745 86.8757 91.8644 88.1514 92.2689C88.748 92.4591 89.0883 92.387 89.5452 91.9864C92.5647 89.3373 95.6568 86.7739 98.9368 84.4493C100.617 83.2577 102.383 82.2085 104.291 81.4434C105.469 80.9729 106.752 81.0528 108.006 81.1169C111.208 81.2793 113.911 82.7071 116.44 84.5231C121.585 88.2179 126.759 91.8722 131.822 95.675C135.27 98.2662 138.55 101.078 141.9 103.797C146.005 107.127 150.102 110.465 154.205 113.798C157.127 116.17 159.944 118.657 162.527 121.401C162.88 121.775 163.264 122.096 163.869 122.156C164.726 122.242 165.333 122.881 165.932 123.445C166.204 123.702 166.346 123.81 166.625 123.462C169.068 120.424 172.492 119.158 176.107 118.243C176.161 118.229 176.203 118.169 176.351 118.047C175.331 117.586 174.404 116.961 173.391 116.747C171.162 116.279 169.148 115.335 167.199 114.244C165.673 113.389 163.995 113.559 162.387 113.265C161.18 113.043 160.023 112.716 158.969 112.063C158.745 111.925 158.501 111.827 158.471 111.449C161.066 112.015 163.705 111.743 166.292 112.121C168.847 112.496 171.062 113.791 173.401 114.757C175.38 115.576 177.384 116.335 179.368 117.138C179.729 117.284 180.092 117.304 180.446 117.236C185.19 116.307 189.99 116.389 194.782 116.521C199.235 116.643 203.687 116.871 208.134 117.114C212.786 117.366 217.438 117.552 222.093 117.712C227.915 117.915 233.738 118.141 239.553 118.503C243.118 118.726 246.664 119.218 250.196 119.809C252.477 120.189 254.762 120.558 257.035 120.977C257.223 121.01 257.341 120.982 257.489 120.904C258.883 120.165 260.283 119.436 261.668 118.687C262.029 118.491 262.427 118.359 262.515 117.81C262.574 117.452 264.208 117.076 264.508 117.3C264.8 117.518 264.738 117.895 264.62 118.121C264.162 119.006 264.152 119.925 264.12 120.896C264.089 121.803 263.737 122.713 263.447 123.594C263.241 124.221 262.582 124.194 262.173 124.012C260.774 123.391 259.286 123.668 257.852 123.509C255.026 123.197 252.221 122.757 249.407 122.368C246.492 121.966 243.578 121.565 240.653 121.249C237.451 120.902 234.235 120.788 231.028 120.512C229.368 120.37 227.7 120.402 226.04 120.32C223.847 120.211 221.649 120.101 219.452 120.033C213.397 119.845 207.341 119.619 201.288 119.392C197.185 119.24 193.083 119.192 188.99 119.306C184.357 119.436 179.785 120.157 175.43 121.871C173.423 122.661 171.453 123.548 169.793 124.951C168.14 126.349 167.36 128.328 166.553 130.258C165.844 131.95 165.695 133.782 165.347 135.564C165.241 136.105 165.734 136.488 165.729 136.984C165.707 139.593 166.635 142.045 166.971 144.594C167.161 146.038 167.4 147.479 167.524 148.931C167.89 153.264 168.16 157.606 168.565 161.935C168.962 166.166 169.318 170.396 169.56 174.639C169.963 181.668 169.739 188.698 169.682 195.727C169.652 199.472 169.206 203.212 169.41 206.965C169.642 211.244 169.58 215.54 170.143 219.799C170.315 221.103 170.575 222.392 171.038 223.622C172.51 222.861 174.068 223.153 175.562 223.255C178.784 223.477 182.006 223.62 185.236 223.614C185.923 223.614 185.877 223.121 185.921 222.75C186.003 222.062 186.029 221.369 186.149 220.678C186.215 220.302 186.417 220.26 186.674 220.233C187.048 220.196 186.96 220.514 187.006 220.718C187.116 221.203 187.244 221.683 187.318 222.174C187.536 223.606 187.531 223.65 189.005 223.586C193.192 223.405 197.383 223.271 201.56 222.959C204.97 222.703 208.378 222.42 211.789 222.172C215.501 221.903 219.214 221.641 222.924 221.363C228.019 220.98 233.101 220.456 238.187 219.969C239.833 219.811 241.469 219.567 243.116 219.394C243.542 219.35 243.674 219.202 243.67 218.776C243.65 216.022 244.191 213.317 244.415 210.586C244.633 207.93 244.699 205.265 244.635 202.598C244.581 200.337 244.635 198.086 245.028 195.847C245.238 194.654 245.655 194.195 247.044 194.165C250.621 194.085 254.151 193.542 257.693 193.136C261.226 192.732 264.746 192.221 268.271 191.76C268.467 191.734 268.673 191.734 268.871 191.752C269.304 191.794 269.975 191.538 270.045 192.161C270.105 192.701 269.408 192.774 269.009 192.899C267.115 193.49 265.135 193.667 263.18 193.935C260.862 194.255 258.533 194.524 256.2 194.708C253.32 194.936 250.442 195.31 247.543 195.146C246.892 195.11 246.652 195.217 246.612 195.968C246.396 200.107 246.217 204.252 245.791 208.371C245.52 210.984 244.844 213.557 244.341 216.146C244.197 216.891 244.051 217.638 243.87 218.375C243.714 219.01 243.823 219.3 244.573 219.208C246.58 218.96 248.594 218.778 250.603 218.544C253.23 218.237 255.857 217.931 258.478 217.576C261.298 217.196 264.121 216.817 266.923 216.331C268.913 215.984 269.382 215.081 269.009 212.993C268.829 211.987 268.771 210.958 268.669 209.939C268.625 209.496 268.657 209.08 269.106 208.804C269.56 208.523 269.44 208.028 269.434 207.622C269.38 203.449 269.877 199.314 270.321 195.18C270.866 190.112 271.855 185.108 272.878 180.116C274.094 174.185 275.283 168.249 276.541 162.328C277.372 158.415 278.265 154.512 279.214 150.625C279.436 149.712 279.124 149.41 278.365 149.159C277.192 148.771 276.01 148.324 275.385 147.149C274.881 146.2 274.418 145.201 274.611 144.077C274.697 143.575 274.34 143.392 274.064 143.25C272.814 142.611 272.71 141.508 272.886 140.349C273.201 138.27 273.493 136.185 274.016 134.141C274.096 133.824 274.348 133.226 273.874 133.128C273.379 133.025 272.748 133.328 272.694 133.929C272.388 137.291 271.112 140.423 270.45 143.701C269.931 146.262 269.628 148.879 268.667 151.34C268.525 151.707 268.407 152.091 268.199 152.419C268.036 152.674 268.064 153.222 267.486 153.016C267.013 152.848 266.791 152.538 266.863 152.031C266.999 151.086 267.095 150.135 267.273 149.2C267.736 146.778 267.876 144.305 268.463 141.902C269.178 138.967 270.237 136.141 271.307 133.326C271.651 132.419 272.588 132.204 273.487 132.284C274.182 132.347 274.45 132.128 274.589 131.445C274.973 129.545 275.456 127.665 275.854 125.768C275.934 125.39 276.072 124.989 275.55 124.615C274.879 124.136 275.301 123.305 275.323 122.647C275.341 122.132 275.938 122.112 276.349 122.078C276.717 122.048 276.809 121.926 276.898 121.559C277.344 119.677 277.847 117.807 278.347 115.936C278.389 115.78 278.547 115.58 278.373 115.504C277.516 115.129 277.56 114.464 277.502 113.655C277.442 112.798 277.809 112.752 278.341 112.888C279.044 113.067 279.234 112.875 279.343 112.17C279.479 111.274 279.845 110.415 280.073 109.53C280.227 108.934 280.76 108.269 279.793 107.808C279.559 107.696 279.659 105.207 279.845 105.003C280.115 104.706 280.476 104.849 280.79 104.854C281.305 104.862 281.543 104.764 281.764 104.172C283.461 99.6021 285.248 95.0623 287.875 90.9191C289.022 89.1128 290.336 87.4508 292.393 86.6018C292.827 86.4216 292.835 86.1032 292.873 85.7787C293.015 84.5975 293.36 83.482 293.951 82.4547C294.101 82.1943 294.079 81.952 294.095 81.6938C294.165 80.5604 293.974 79.4568 293.692 78.3656C293.462 77.4745 292.01 76.3011 291.101 76.1849C290.466 76.1028 290.62 76.976 289.969 76.9478C289.813 76.7036 289.915 76.3752 289.901 76.0707C289.893 75.8986 290.062 75.6543 289.723 75.6181C289.565 75.6003 289.435 75.598 289.289 75.7485C288.926 76.1228 287.384 76.1548 286.912 75.7462C286.393 75.2959 286.049 74.7151 286.469 73.9982C286.856 73.3394 286.701 72.6345 286.691 71.9356C286.671 70.438 288.155 69.1623 289.609 69.4424C290.146 69.5447 290.384 69.9352 290.29 70.482C290.17 71.1747 290.618 71.2947 291.141 71.405C291.842 71.5551 291.673 70.9524 291.79 70.6541C292.036 70.0232 291.982 69.3205 291.464 68.908C290.65 68.2612 290.73 67.6122 291.055 66.7613C291.419 65.8001 291.209 65.5998 290.2 65.692L290.204 65.682ZM97.9555 227.481C99.181 227.164 99.6036 226.471 99.5014 225.136C99.337 222.989 99.4693 222.925 97.3249 222.382C93.4862 221.413 89.7513 220.174 86.1888 218.425C85.4078 218.043 84.575 217.768 83.7659 217.446C83.8299 217.758 83.9723 217.893 84.1363 217.991C84.4767 218.195 84.8174 218.403 85.1758 218.573C87.2905 219.581 89.5209 220.49 88.9961 223.533C88.9583 223.758 89.0104 223.998 89.0223 224.23C89.2327 228.254 88.3937 232.132 87.3646 235.979C87.2461 236.42 87.2542 236.614 87.6506 236.852C90.1978 238.384 92.4945 240.232 94.5351 242.395C95.0317 242.922 95.5506 243.032 96.3093 242.914C97.5109 242.728 98.7546 242.8 99.9821 242.783C100.328 242.78 100.647 242.86 100.643 243.336C100.641 243.731 100.493 243.913 100.094 244.025C98.9248 244.353 97.7432 244.614 96.5578 244.878C95.4966 245.114 94.5555 245.058 93.6382 244.41C92.0704 243.302 90.4721 242.235 88.8742 241.172C87.3102 240.13 85.8407 238.921 84.0082 238.334C82.7749 237.938 82.12 238.148 81.3549 239.129C80.8644 239.758 80.3238 240.351 79.789 240.941C78.159 242.74 76.519 244.532 74.869 246.344C75.7338 246.714 76.595 247.045 77.4239 247.445C79.1422 248.276 80.7042 249.342 82.0757 250.675C82.2359 250.831 82.4462 251.046 82.33 251.278C82.2339 251.468 82.0217 251.398 81.8137 251.306C79.645 250.343 77.376 249.576 75.3355 248.358C74.196 247.678 73.4593 247.439 72.2616 248.496C69.8406 250.633 66.8249 251.843 63.8351 253.018C61.5005 253.935 59.2917 255.021 57.7698 257.149C56.9968 258.229 57.0088 258.513 57.8057 259.53C59.8883 262.188 62.5976 262.994 65.8436 262.424C68.8716 261.891 71.8012 260.998 74.7347 260.105C78.7737 258.876 82.8046 257.616 86.9779 256.905C87.901 256.749 89.2106 256.444 89.6772 256.963C90.43 257.802 91.0571 257.52 91.82 257.438C95.3484 257.063 98.8808 256.737 102.397 256.244C102.998 256.16 103.078 255.924 103.02 255.389C102.867 253.969 102.657 252.54 102.693 251.12C102.752 248.771 102.962 246.424 103.41 244.105C103.513 243.578 103.613 242.942 102.84 242.892C101.952 242.834 101.65 242.259 101.476 241.57C100.939 239.449 100.759 237.271 100.451 235.112C100.232 233.596 100.168 232.052 99.7838 230.552C99.0989 230.751 98.7006 231.578 97.8833 231.167C98.2599 230.512 98.8685 230.198 99.4072 229.829C100.12 229.339 99.6175 228.722 99.5936 228.21C99.5735 227.779 98.9206 227.929 98.6744 228.035C97.9976 228.33 97.9474 227.999 97.9616 227.491H97.9555V227.481ZM276.249 140.228C276.523 139.74 276.911 139.654 277.384 139.674C279.431 139.766 281.425 140.16 283.406 140.657C283.89 140.779 284.457 141.041 284.511 140.16C284.523 139.966 284.673 139.856 284.861 139.912C285.132 139.99 284.953 140.172 284.915 140.308C284.749 140.881 285.007 141.12 285.542 141.3C286.509 141.624 287.477 141.982 288.125 142.859C288.468 143.324 288.626 142.968 288.838 142.697C289.835 141.42 290.222 139.878 290.686 138.382C291.56 135.571 292.262 132.709 293.207 129.917C294.427 126.313 295.725 122.727 296.183 118.894C296.057 118.88 295.925 118.852 295.795 118.854C292.817 118.918 290.688 117.31 289.002 115.133C287.014 112.566 287.523 109.861 288.89 107.135C290.342 104.246 292.605 102.782 296.466 103.417C297.242 103.545 297.902 103.967 298.712 104.212C298.596 103.421 298.859 102.758 298.917 102.065C299.107 99.8283 299.379 97.5975 299.535 95.3586C299.696 93.0518 300.36 90.6709 297.958 88.8708C296.914 88.0898 295.394 87.3188 294.133 87.7691C292.581 88.324 291.58 89.5314 290.706 90.8372C289.837 92.1369 289.213 93.5646 288.576 94.9943C287.238 97.998 286.127 101.082 284.997 104.164C284.801 104.698 284.947 104.893 285.512 104.836C286.023 104.786 286.317 105.107 286.221 105.559C286.011 106.548 285.788 107.542 285.29 108.445C285.051 108.878 284.859 108.849 284.577 108.473C284.459 108.317 284.649 107.868 284.144 108.008C283.808 108.102 283.752 108.329 283.688 108.583C283.337 109.961 283.021 111.346 282.625 112.71C282.512 113.097 282.594 113.243 282.907 113.385C283.502 113.657 283.658 114.142 283.391 114.695C283.123 115.247 283.265 116.217 282.176 116.042C281.779 115.978 281.725 116.205 281.643 116.547C281.229 118.277 280.764 119.993 280.31 121.747C280.672 121.846 281.052 121.928 281.417 122.054C281.879 122.214 282.25 122.625 281.886 123.007C281.116 123.812 281.045 125.24 279.661 125.496C279.348 125.554 279.346 125.866 279.288 126.133C278.77 128.546 278.233 130.957 277.712 133.37C277.22 135.653 276.737 137.939 276.251 140.224L276.249 140.228ZM36.5313 157.315C34.6211 157.946 34.613 157.99 33.0892 157.692C29.0359 156.899 26.5408 154.057 26.775 149.624C26.8553 148.094 26.3687 147.135 25.0451 146.532C24.7707 146.406 24.5624 146.264 24.5666 145.972C24.5724 145.617 24.9008 145.621 25.1493 145.543C26.7712 145.032 27.6424 143.855 27.7544 142.165C27.8304 141.027 27.2998 140.05 27.0714 138.995C26.9333 138.354 26.6369 137.689 27.4422 137.126C27.9126 136.796 27.9107 136.291 27.1999 135.929C24.9251 134.769 22.516 133.88 20.3474 132.509C19.1859 131.774 18.0105 131.061 16.7849 130.302C16.6749 133.506 16.2501 136.578 16.5364 139.67C16.5546 139.86 16.6888 140.212 16.3404 140.226C15.8897 140.242 15.8457 139.758 15.8117 139.495C15.4193 136.462 15.1148 133.42 15.5212 130.36C15.6053 129.719 15.4892 129.289 14.9446 128.822C12.6598 126.87 10.6873 124.651 9.43975 121.857C8.90306 120.658 8.35441 119.453 7.53739 118.399C7.0648 117.793 6.45002 117.44 5.71511 117.694C4.84803 117.997 4.02101 118.415 3.52843 119.293C2.49114 121.139 2.77145 123.163 3.06583 125.036C3.71064 129.143 5.07832 133.109 6.65828 136.926C9.50381 143.793 13.9051 149.556 20.195 153.687C21.6328 154.632 22.6623 155.822 23.1246 157.408C23.5633 158.909 24.1418 160.341 24.7607 161.763C25.1192 162.588 25.5877 163.331 26.4567 163.76C26.8815 163.968 27.1497 164.07 27.5441 163.671C28.2491 162.958 29.1242 162.48 30.0392 162.057C31.7575 161.263 33.4334 160.379 35.0433 159.376C35.7904 158.909 36.4151 158.355 36.5355 157.315H36.5313ZM29.6629 138.528C30.1754 141.426 29.6228 143.939 27.1335 145.743C26.7411 146.028 26.699 146.168 27.0416 146.462C28.3791 147.61 28.6998 149.137 28.7916 150.811C28.8619 152.081 29.2562 153.244 30.4058 154.062C32.3703 155.457 34.4726 155.089 36.5914 154.67C36.6856 154.652 36.7435 154.48 36.8318 154.394C38.5957 152.634 40.4263 150.949 42.5969 149.692C42.9932 149.462 43.0835 149.279 43.0075 148.817C42.4167 145.208 41.6936 141.614 41.78 137.928C41.7978 137.153 41.3154 137.521 40.9708 137.621C38.2052 138.418 35.384 138.793 32.5104 138.644C31.553 138.596 30.606 138.378 29.6629 138.528ZM289.487 52.6998C289.551 53.4326 289.337 53.9613 289.205 54.508C288.596 57.0213 287.845 59.4902 286.978 61.9251C286.86 62.2557 286.755 62.4379 287.2 62.5861C290.058 63.5311 292.753 64.9369 295.711 65.606C296.526 65.79 297.054 65.4717 297.104 64.6548C297.256 62.1716 297.947 59.8085 298.712 57.4697C298.991 56.6207 298.786 56.2804 298.001 55.9018C295.304 54.6061 292.401 53.8914 289.489 52.6998H289.487ZM289.285 111.815C289.257 114.312 291.173 116.645 293.588 117.578C295.47 118.305 296.512 117.722 296.786 116.082C296.876 115.546 296.688 115.492 296.241 115.434C295.332 115.316 294.399 115.249 293.552 114.849C292.231 114.224 291.343 113.187 290.923 111.803C290.729 111.168 291.077 110.57 291.638 110.299C292.326 109.967 292.405 110.688 292.621 111.082C293.41 112.528 294.429 113.599 296.171 113.946C297.048 114.12 297.209 113.844 297.309 113.141C297.641 110.828 297.927 108.505 298.378 106.216C298.542 105.387 298.354 105.019 297.625 104.83C297.241 104.73 296.842 104.662 296.446 104.642C292.05 104.4 289.725 108.098 289.287 111.817L289.285 111.815ZM127.009 133.416C127.146 133.094 127.004 132.895 126.809 132.685C124.364 130.01 121.775 127.484 119.096 125.036C116.42 122.59 113.591 120.316 111.05 117.724C110.329 116.988 109.61 116.246 108.763 115.642C107.295 114.594 107.055 114.571 105.605 115.61C105.088 115.98 104.616 116.089 103.953 115.938C102.693 115.654 101.52 115.093 100.234 114.895C97.3265 114.448 94.3992 114.392 91.5016 114.739C87.6146 115.201 85.0894 117.588 83.4475 121.024C82.9829 121.998 82.5044 122.963 82.0317 123.932C82.274 123.872 82.3582 123.736 82.4403 123.6C83.4857 121.856 84.4628 120.055 85.7605 118.488C87.2203 116.723 89.1948 115.772 91.4515 115.456C94.0647 115.089 96.6921 115.089 99.2933 115.52C101.798 115.932 104.249 116.605 106.71 117.23C108.875 117.781 110.93 118.257 112.674 120.019C114.854 122.224 117.405 124.07 119.612 126.285C122.025 128.708 124.358 131.219 127.005 133.416H127.009ZM86.171 228.566C86.5936 227.368 86.4651 226.221 86.6133 225.107C86.7136 224.355 86.5955 223.576 86.6654 222.817C86.7337 222.08 86.193 222.094 85.7786 222.046C85.1817 221.976 85.458 222.492 85.4418 222.743C85.3958 223.506 85.4198 224.272 85.3978 225.036C85.39 225.33 85.424 225.78 85.1758 225.863C83.9163 226.281 84.5226 227.332 84.1645 228.169C85.0034 227.957 85.7064 227.615 86.1691 228.566H86.171ZM297.254 82.1403C297.244 82.1144 297.175 81.994 297.155 81.8659C296.82 79.7412 295.66 77.9592 294.651 76.1409C294.157 75.2519 293.452 74.3327 292.236 74.2285C291.932 74.2026 291.53 73.7539 291.325 74.3447C291.159 74.8232 291.63 74.8853 291.884 74.9976C293.356 75.6424 294.267 76.8517 295.092 78.1394C295.905 79.407 296.063 80.9128 296.495 82.3166C296.554 82.5049 296.407 82.8611 296.818 82.755C297.06 82.6928 297.369 82.6311 297.254 82.1403ZM281.005 143.33C280.716 143.238 280.462 143.302 280.328 143.578C280.188 143.865 280.362 144.085 280.566 144.273C281.349 144.992 282.224 145.577 283.171 146.053C283.504 146.222 283.59 146.128 283.72 145.725C284.062 144.67 283.483 144.177 282.702 143.821C282.172 143.578 281.573 143.488 281.007 143.33H281.005ZM299.249 87.7093C299.311 86.74 299.353 86.0893 299.391 85.4384C299.407 85.1459 299.353 84.9718 299.071 85.2802C298.855 85.5164 298.668 85.3103 298.454 85.2682C297.795 85.1381 297.138 85.1779 296.495 85.4102C296.331 85.4704 296.155 85.5244 296.155 85.7089C296.155 85.8929 296.325 85.9609 296.493 86.0211C297.443 86.3637 298.412 86.6678 299.249 87.7112V87.7093ZM287.222 73.3495C286.365 74.543 286.539 75.5243 288.113 75.7863C288.295 75.8164 288.568 75.8986 288.638 75.6744C288.686 75.524 288.562 75.1616 288.478 75.1516C287.493 75.0154 287.418 74.2004 287.222 73.3514V73.3495ZM283.375 142.81C283.89 143.829 284.595 143.955 285.394 143.901C284.799 143.58 284.204 143.258 283.375 142.81Z" fill="#191D21"/>
<path d="M227.434 13.2947C228.706 15.3352 229.946 17.1797 231.039 19.108C233.67 23.7497 235.609 28.6898 236.322 33.9744C236.668 36.5475 237.499 38.9805 237.872 41.5196C238.37 44.9261 238.853 48.3343 238.495 51.8026C238.396 52.7476 238.45 53.7509 238.665 54.6739C238.979 56.0318 238.677 57.2952 238.43 58.589C238.394 58.7793 238.402 58.9093 238.146 59.0155C236.566 59.6742 234.898 59.9366 233.226 60.1669C231.76 60.3691 231.538 60.2051 231.199 58.7033C230.895 57.3535 230.641 55.9917 230.302 54.6442C230.228 56.1839 230.486 57.6958 230.855 59.1656C231.065 60.0006 230.823 60.2769 230.1 60.4293C229.884 60.4753 229.686 60.6034 229.351 60.7516C230.558 61.3643 231.72 61.8571 232.693 62.6899C232.969 62.9264 233.488 62.8303 233.919 62.618C234.657 62.2554 236.372 63.1247 236.59 63.9254C236.62 64.0358 236.602 64.2059 236.532 64.2881C236.41 64.4321 236.214 64.392 236.075 64.3001C233.821 62.7562 231.7 64.0798 229.644 64.7385C224.996 66.2264 221.223 69.1742 217.669 72.4202C215.48 74.4187 213.269 76.391 211.219 78.5357C210.786 78.9864 210.293 79.4147 209.989 79.9434C209.466 80.8506 208.718 80.8887 207.798 80.7383C208.627 77.921 210.838 76.1528 212.722 74.1362C212.596 74.0621 212.548 74.024 212.494 74.002C212.072 73.8218 211.303 73.8418 211.501 73.2051C211.605 72.8706 212.294 73.2113 212.688 73.3814C213.139 73.5755 213.473 73.4752 213.83 73.1449C215.798 71.3166 217.861 69.5986 219.995 67.9667C222.861 65.7738 226.025 64.1979 229.632 63.325C228.482 62.4456 227.27 61.9991 225.953 61.7548C225.442 61.6607 224.759 61.8428 224.565 60.98C224.471 60.5574 224.051 60.9318 223.82 61.0398C222.919 61.4604 222.012 61.8289 221.015 61.9891C220.264 62.1114 220.09 61.837 220.192 61.1582C220.246 60.8036 220.201 60.4332 220.201 60.0068C219.865 60.2831 220.017 60.5794 220.013 60.8276C219.997 62.1114 219.285 62.74 217.963 62.5938C217.412 62.532 216.823 62.2935 216.443 63.1004C216.769 59.4862 217.034 56.0237 216.9 52.5415C216.912 55.311 216.397 58.0462 216.367 60.8156C216.357 61.6769 216.307 62.5517 216.137 63.3929C215.95 64.3159 215.143 64.7647 214.384 65.1672C212.224 66.3144 209.913 67.0796 207.464 67.7862C208.249 64.8068 208.946 61.8771 208.699 58.8233C208.609 61.5847 208.001 64.2461 207.188 66.8693C206.885 67.8444 205.013 68.8516 204.048 68.5795C203.635 68.4634 203.871 68.2751 203.932 68.0648C204.156 67.2918 204.656 66.6127 204.681 65.7398C203.999 67.5442 203.341 69.3463 200.898 69.1379C201.527 65.3914 202.63 61.6028 203.133 57.6598C201.419 59.4241 199.41 60.7215 197.131 61.4345C195.537 61.9331 194.784 62.6999 194.52 64.3962C194.175 66.603 192.88 68.5174 192.017 70.568C191.845 70.9763 191.324 71.4709 191.821 71.9155C192.347 72.384 192.948 72.208 193.581 71.9194C195.543 71.0284 197.193 69.6388 199.056 68.5954C199.226 68.4993 199.384 68.377 199.56 68.299C199.853 68.1689 200.185 67.8124 200.453 68.0447C200.728 68.2809 200.596 68.7296 200.513 69.0858C200.485 69.212 200.387 69.3262 200.377 69.4505C200.359 69.6588 200.067 69.8811 200.363 70.0733C200.616 70.2373 200.64 69.8688 200.812 69.839C200.968 69.8109 201.128 69.8089 201.33 69.885C199.46 71.1283 197.81 72.6764 195.729 73.5836C195.427 73.7156 195.113 73.8237 194.826 73.9819C193.27 74.8331 191.712 74.4507 190.18 73.9541C189.546 73.7477 189.297 73.153 189.45 72.5043C189.51 72.2458 189.538 71.9857 189.586 71.7291C189.666 71.2946 190.195 70.8501 189.868 70.4757C189.596 70.1613 188.941 70.676 188.681 70.5356C187.824 70.0691 186.876 69.9972 185.987 69.7028C185.677 69.5986 185.349 69.5265 185.062 69.3783C183.873 68.7655 182.972 68.9137 182.236 70.1532C181.72 71.0264 180.935 70.4816 180.308 70.1972C179.968 70.0432 179.587 69.7329 179.549 69.3162C179.371 67.4219 178.218 66.9414 176.513 67.0032C175.65 67.0353 175.008 66.3827 174.413 65.7958C171.656 63.0645 170.987 59.8544 172.124 56.1739C173.111 52.976 174.087 49.7659 174.507 46.4319C174.661 45.2163 174.493 43.9727 174.735 42.7552C174.783 42.5151 174.779 42.2709 174.419 42.1324C173.434 41.7519 173.135 40.7888 173.189 39.9417C173.299 38.2056 172.791 36.5996 172.495 34.9457C172.088 32.6687 172.22 30.3919 172.479 28.1091C172.649 26.5952 172.949 25.1073 173.301 23.5174C171.295 23.4472 169.575 24.1723 167.965 25.2157C165.288 26.9476 163.8 29.511 162.885 32.4965C161.415 37.2926 160.574 42.1787 160.255 47.1928C159.923 52.4092 159.618 57.6278 159.288 62.8461C158.894 69.0939 158.259 75.3116 156.913 81.4371C156.693 82.4365 156.387 83.4198 156.082 84.3969C155.96 84.7916 155.796 85.2041 155.279 85.4183C155.201 83.5498 155.557 81.7937 155.82 80.0256C156.142 77.8388 156.485 75.6501 156.711 73.4532C157.021 70.4194 157.236 67.376 157.484 64.336C157.59 63.0425 157.586 61.7429 157.676 60.4452C157.961 56.4304 158.071 52.4034 158.349 48.3883C158.756 42.5229 159.268 36.6756 161.315 31.0807C162.861 26.8576 165.282 23.5375 169.851 22.3039C171.091 21.9697 172.4 21.5649 173.386 23.1532C174.133 20.8603 174.872 18.7958 175.815 16.8012C177.294 13.6651 179.427 11.072 182.108 8.93537C186.935 5.08853 192.427 2.56754 198.391 1.07572C203.179 -0.12169 207.935 0.224493 212.634 1.62023C215.254 2.3993 217.813 3.30844 219.949 5.11862C220.392 5.49295 220.79 5.9336 221.047 6.39011C222.074 8.20838 224.073 9.0334 225.268 10.6676C225.813 11.4124 226.329 12.4519 227.076 12.7C227.807 12.9424 228.814 12.3396 229.703 12.1212C235.691 10.6514 241.718 9.36988 247.8 8.37857C250.701 7.9062 253.631 7.57167 256.563 7.26722C262.33 6.67062 267.903 7.4416 273.213 9.59635C277.389 11.2904 280.316 14.3022 280.877 19.0578C281.315 22.7727 281.077 26.5053 281.109 30.2298C281.161 36.2013 280.406 42.1127 279.716 48.034C279.149 52.8958 278.594 57.754 277.865 62.596C276.97 68.5494 275.766 74.4407 274.457 80.3158C273.377 85.1559 272.368 90.006 270.742 94.7076C269.269 98.9731 267.675 103.19 265.884 107.333C265.254 108.793 264.833 110.349 263.902 111.673C263.736 111.909 263.634 112.325 263.275 112.187C262.863 112.027 263.081 111.643 263.149 111.332C264.308 106.074 266.011 100.977 267.795 95.9092C269.893 89.9439 271.217 83.7721 272.677 77.6366C273.7 73.3371 274.735 69.038 275.418 64.6744C276.087 60.4012 276.76 56.126 277.096 51.8045C277.315 49.0011 277.795 46.2177 278.017 43.4162C278.162 41.5999 278.276 39.7797 278.486 37.9714C278.963 33.8683 278.867 29.739 279.109 25.6263C279.183 24.3687 279.381 23.1189 279.469 21.8613C279.814 16.9312 276.149 12.7181 272.03 11.3143C267.57 9.7963 262.987 9.06155 258.279 9.366C255.071 9.57403 251.885 10.0247 248.695 10.4511C244.806 10.972 240.965 11.7569 237.086 12.3315C234.64 12.6939 232.198 13.0805 229.757 13.4849C229.015 13.6092 228.312 13.351 227.427 13.3028L227.434 13.2947ZM189.349 35.2401C188.797 36.3596 188.468 37.3907 187.667 38.1377C187.058 38.7062 186.282 38.5881 185.577 38.502C185.148 38.4499 185.336 37.9251 185.381 37.645C185.723 35.4844 185.779 33.2814 186.276 31.1429C186.336 30.8866 186.436 30.6103 186.021 30.4922C185.405 32.9132 184.758 35.322 184.563 37.8232C184.509 38.514 184.229 38.9045 183.47 38.9605C182.349 39.0446 181.233 39.207 180.118 39.3652C178.904 39.5373 178.458 40.0178 178.36 41.1773C178.308 41.794 178.804 42.1887 178.969 42.7274C179.678 45.0743 180.028 47.4973 180.564 49.8801C181.384 53.5306 182.779 56.7627 186.41 58.5289C188.462 59.5279 190.515 60.4973 192.878 60.0388C196.697 59.2979 199.884 57.5136 202.101 54.2216C202.55 53.5548 203.034 53.2944 203.761 53.9913C203.741 53.0161 204.122 52.1989 203.954 51.3218C203.225 47.5393 203.02 43.6925 202.57 39.8757C202.393 38.38 202.003 36.872 201.308 35.5624C200.934 34.8535 200.387 34.2867 200.553 33.3416C200.193 33.8124 200.836 34.517 199.977 34.7373C198.545 35.1059 197.139 35.5743 195.701 35.9128C194.934 36.093 194.193 36.145 193.707 35.166C193.156 34.0586 192.373 33.0673 191.692 32.0242C192.215 33.5581 193.004 34.9415 193.907 36.2813C192.181 36.8041 190.525 37.1483 189.343 35.2401H189.349ZM181.526 56.4822C182.491 60.0068 183.438 63.523 184.073 67.1136C183.995 63.3868 183.16 59.8366 181.526 56.4822ZM212.578 5.3108C212.927 5.21083 213.509 5.57125 213.702 4.81838C213.792 4.46184 213.862 4.17163 213.53 3.94127C212.949 3.54073 212.29 3.32041 211.595 3.32041C211.036 3.32041 210.704 3.69474 210.606 4.23569C210.502 4.80835 210.776 5.04065 211.34 5.16456C211.733 5.25289 212.114 5.29883 212.58 5.30886L212.578 5.3108ZM213.706 28.7037C215.087 33.3177 215.981 38.0575 217.368 42.6691C216.285 37.9772 215.722 33.1514 213.706 28.7037ZM177.843 57.2412C177.601 57.788 178.009 58.3448 177.897 58.8712C177.485 60.8357 177.945 62.7462 178.155 64.6725C178.184 64.9349 178.254 65.1791 178.546 65.117C178.84 65.0549 178.626 64.7967 178.636 64.6246C178.768 62.1195 178.466 59.6603 177.843 57.2431V57.2412ZM206.819 5.315C206.599 5.50104 206.134 5.38295 205.874 5.74951C205.71 5.97987 205.88 6.15782 206.038 6.24194C206.763 6.62241 207.492 7.01098 208.251 7.31122C208.503 7.41151 208.968 7.3756 208.882 6.85277C208.797 6.34417 207.444 5.29689 206.819 5.315ZM210.488 42.7772C210.265 46.5619 210.161 50.3528 209.701 54.1194C210.612 50.3868 210.726 46.594 210.488 42.7772ZM203.605 5.315C203.393 5.38683 203.12 5.52304 203.227 5.90546C203.477 6.82074 204.072 7.46361 204.917 7.86803C205.145 7.97803 205.353 7.93629 205.403 7.59367C205.482 7.05692 204.222 5.33086 203.607 5.315H203.605ZM179.301 32.3283C179.982 29.9975 180.662 27.6665 181.344 25.3377C180.076 27.5005 179.537 29.8714 179.301 32.3283ZM219.589 21.1165C218.582 19.3364 217.576 17.554 216.569 15.7739C217.16 17.8003 218.373 19.4826 219.589 21.1165ZM200.596 7.27531C200.591 6.88868 200.319 6.4642 199.748 6.32411C199.422 6.24388 199.282 6.45417 199.356 6.81071C199.478 7.40731 199.586 8.06214 200.275 8.19253C200.577 8.25044 200.581 7.77194 200.596 7.27531ZM208.023 4.81223C208.513 5.56316 209.252 5.76731 209.995 5.87343C210.273 5.91354 210.444 5.66119 210.155 5.3548C209.592 4.7582 208.944 4.50778 208.023 4.81223ZM186.244 67.2776C186.196 65.9683 186.065 64.6466 185.415 63.4609C185.33 63.4832 185.244 63.5052 185.16 63.5252C185.521 64.7747 185.883 66.0262 186.244 67.2776ZM194.818 6.46841C193.679 7.20316 192.91 8.27245 192.303 9.47406L194.818 6.46841ZM196.366 8.10227C196.678 7.53964 197.237 7.11127 197.221 6.33802C196.23 7.05304 196.176 7.1611 196.366 8.10227ZM198.19 7.26334C198.126 7.08313 198.323 6.71851 197.942 6.75054C197.614 6.77868 197.451 7.10707 197.449 7.41152C197.449 7.65579 197.505 8.00617 197.86 7.97803C198.303 7.94211 198.16 7.54967 198.19 7.26334Z" fill="#191D21"/>
<path d="M239.538 114.746C239.257 115.113 239.097 115.719 238.418 115.191C238.284 115.087 237.923 115.221 237.689 115.305C234.533 116.432 231.271 116.835 227.943 116.629C226.643 116.547 225.336 116.334 224.108 115.838C223.696 115.671 223.093 115.505 223.79 114.918C223.854 114.864 223.93 114.71 223.926 114.706C223.061 114.097 223.798 113.002 223.197 112.313C223.007 112.095 223.159 111.935 223.359 111.871C223.79 111.73 224.192 111.544 224.697 111.75C225.546 112.097 226.439 112.331 227.31 112.624C227.901 112.822 228.276 112.806 228.432 112.027C228.838 110 229.363 108 229.799 105.979C230.538 102.571 231.323 99.1688 231.944 95.7386C232.379 93.3396 232.665 90.9128 232.843 88.4698C233.186 83.7597 233.498 79.0481 233.394 74.3261C233.328 71.3444 233.061 68.3588 231.581 65.6553C231.329 65.1946 231.385 64.9846 231.936 64.9665C232.06 64.9626 232.176 64.8604 232.303 64.8222C233.393 64.4938 234.208 64.8364 234.746 65.8494C234.868 66.0817 234.92 66.4082 235.25 66.3823C235.575 66.3561 235.564 66.0258 235.659 65.7854C236.023 64.8562 236.692 64.6582 237.555 65.1926C238.096 65.5272 238.524 65.9478 238.877 66.5004C239.405 67.3293 239.281 68.0663 238.73 68.7713C238.294 69.3278 237.357 69.3659 236.332 68.8793C237.221 68.7991 237.869 68.4549 237.997 67.6337C238.107 66.941 237.843 66.3341 237.098 65.9138C237.018 66.7288 236.558 67.0992 235.793 67.019C235.288 66.9669 235.17 67.0572 235.308 67.6078C235.644 68.9554 235.873 70.3411 235.793 71.731C235.741 72.6239 236.193 72.8142 236.89 72.8624C237.743 72.9203 238.596 72.9724 239.451 73.0164C239.794 73.0345 240.112 73.0665 240.236 73.579C238.899 73.1526 237.555 73.6531 236.275 73.2108C236.023 73.1225 235.825 73.2529 235.835 73.569C235.839 73.7013 235.825 73.8356 235.823 73.9695C235.753 78.0648 235.723 82.1598 235.602 86.2529C235.518 89.1023 235.042 91.9219 234.565 94.7214C233.758 99.4551 232.613 104.123 231.213 108.721C230.832 109.974 230.454 111.236 229.817 112.395C229.551 112.88 229.569 113.19 230.228 113.248C232.645 113.461 235.04 113.321 237.419 112.854C237.703 112.798 237.813 112.72 237.821 112.427C237.859 111.288 238.674 110.976 239.599 110.845C241.017 110.645 242.501 111.748 242.793 113.182C242.973 114.065 241.882 115.463 240.727 115.791C240.332 115.904 239.922 115.968 239.84 115.347C239.812 115.135 239.636 114.942 239.527 114.742C239.958 114.59 240.148 115.293 240.599 115.049C241.47 114.58 241.776 113.641 241.384 112.78C240.861 111.638 240.278 112.575 239.668 112.708C240.244 113.444 240.405 114.143 239.527 114.748L239.538 114.746ZM230.204 115.685C231.489 115.573 232.773 115.459 234.058 115.353C234.595 115.309 234.661 114.972 234.627 114.524C234.585 113.965 234.205 114.227 233.97 114.249C231.728 114.472 229.491 114.646 227.268 114.061C226.822 113.943 226.794 114.294 226.82 114.614C226.848 114.973 226.646 115.481 227.328 115.447C228.293 115.399 229.231 115.757 230.206 115.683L230.204 115.685ZM236.191 115.042C237.01 114.86 237.729 114.698 238.446 114.538C239.085 114.396 238.799 113.803 238.971 113.435C239.025 113.321 238.979 113.032 238.764 113.08C238.009 113.252 237.222 113.385 236.538 113.717C236.177 113.893 236.337 114.516 236.191 115.04V115.042ZM226.139 115.191C226.067 114.836 226.059 114.494 226.091 114.143C226.161 113.41 225.418 113.729 225.1 113.475C224.984 113.38 224.693 113.066 224.427 113.425C223.958 114.049 224.262 114.898 225.033 115.04C225.38 115.105 225.734 115.137 226.139 115.191Z" fill="#191D21"/>
<path d="M120.592 187.733C123.97 187.569 128.175 187.729 132.35 188.008C138.762 188.434 145.176 188.458 151.59 188.626C154.954 188.715 158.315 188.738 161.679 188.744C162.878 188.747 163.297 189.135 163.631 190.292C163.827 190.969 163.557 191.055 162.978 191.155C157.123 192.169 151.236 191.434 145.364 191.512C138.64 191.602 131.944 190.823 125.216 190.869C120.367 190.903 115.516 190.663 110.667 190.507C109.644 190.473 108.629 190.262 107.606 190.15C107.053 190.09 106.721 189.762 106.704 189.259C106.691 188.767 107.137 188.486 107.551 188.394C108.453 188.194 109.368 188.038 110.287 187.951C113.441 187.653 116.607 187.747 120.592 187.735V187.733Z" fill="#191D21"/>
<path d="M65.1887 50.5013C68.5829 51.8009 71.3123 53.9275 73.7676 56.4385C74.9989 57.7002 75.9802 59.1539 76.7913 60.7179C76.9554 61.0343 76.9955 61.4109 77.1255 61.747C77.3281 62.2738 76.9075 62.4701 76.6169 62.7024C76.1944 63.0389 76.0482 62.6002 75.8579 62.364C72.9063 58.6854 69.2319 55.7836 65.5294 52.6398C70.5714 62.4061 76.8353 71.303 81.0565 81.4995C80.3337 81.4135 80.1432 81.087 79.927 80.7628C76.2905 75.2919 72.6319 69.8393 69.3959 64.1101C67.896 61.4549 66.2382 58.8837 64.7804 56.2023C63.8651 54.5202 62.9961 52.8081 62.7897 50.8478C62.7279 50.2628 62.6596 49.7623 63.4788 50.1428C63.8111 50.2971 63.8971 50.0405 64.0476 49.9144C64.8144 49.2676 65.6995 48.8192 66.5886 48.3785C68.1565 47.6017 69.6444 47.8198 71.088 48.737C73.2366 50.1027 74.7427 52.0992 76.3125 54.0336C76.9793 54.8567 77.6283 55.6956 78.2809 56.5307C78.4271 56.719 78.7597 56.8652 78.4372 57.1774C78.2029 57.4039 77.9826 57.3757 77.7202 57.2117C76.4749 56.4346 75.4095 55.4274 74.2839 54.5002C72.5899 53.1044 70.8897 51.7226 69.0614 50.4993C67.8119 49.6623 66.5786 49.5141 65.191 50.4993L65.1887 50.5013Z" fill="#191D21"/>
<path d="M185.997 209.418C185.311 204.159 185.221 198.893 185.198 193.62C185.174 187.691 185.102 181.761 184.964 175.834C184.816 169.424 184.656 163.012 184.339 156.61C183.941 148.53 183.418 140.456 183.576 132.36C183.608 130.772 183.781 129.192 184.185 127.648C184.243 127.428 184.307 127.17 184.46 127.022C184.776 126.709 185.07 126.148 185.565 126.327C185.987 126.479 185.751 127.032 185.751 127.398C185.767 131.499 185.627 135.608 185.795 139.703C186.093 146.95 186.156 154.201 186.276 161.45C186.406 169.342 186.238 177.238 186.398 185.13C186.526 191.479 186.47 197.823 186.346 204.169C186.312 205.921 186.118 207.669 185.995 209.42L185.997 209.418Z" fill="#191D21"/>
<path d="M121.069 34.8618C118.237 35.3523 115.574 36.0732 112.987 37.0726C107.211 39.3033 102.033 42.5752 97.0609 46.2079C92.313 49.6782 87.7835 53.4166 83.3562 57.2854C81.9563 58.5091 80.5185 59.6926 79.127 60.9239C78.7122 61.2905 78.3359 61.4067 77.8933 61.0624C77.3866 60.6677 77.7629 60.2613 77.9632 59.9287C78.5802 58.9035 79.3508 57.9924 80.182 57.1272C86.6621 50.375 94.1455 44.9002 102.113 40.0801C106.535 37.4048 111.235 35.2743 116.397 34.4293C118.245 34.1268 120.11 33.7285 122.018 34.0928C122.715 34.2271 122.865 34.5072 122.673 35.1582C122.495 35.769 122.338 36.3876 121.978 36.9101C121.772 37.2107 121.443 37.4611 121.033 37.2767C120.652 37.1065 120.848 36.7781 120.874 36.4938C120.918 35.9771 120.835 35.4503 121.071 34.8618H121.069Z" fill="#191D21"/>
<path d="M157.393 92.9715C157.312 93.274 157.474 93.6143 157.159 93.7405C156.927 93.8327 156.725 93.6425 156.532 93.5082C154.614 92.1665 153.276 90.2861 151.955 88.4219C147.689 82.4083 143.957 76.0486 139.964 69.859C137.345 65.7958 134.291 62.0612 131.541 58.1024C129.334 54.9262 127.388 51.5802 125.448 48.2381C125.316 48.0097 125.143 47.7573 125.141 47.5131C125.138 47.0647 125.111 46.4939 125.506 46.2396C125.973 45.9371 126.285 46.4299 126.567 46.7382C128.431 48.7807 129.821 51.1596 131.277 53.4846C134.059 57.9261 137.435 61.9551 140.228 66.3807C143.458 71.4968 146.526 76.7135 149.736 81.8418C151.881 85.2681 154.324 88.496 156.739 91.7381C157.029 92.1264 157.388 92.4929 157.395 92.9715H157.393Z" fill="#191D21"/>
<path d="M147.923 95.6408C150.239 97.3089 152.102 99.0771 154.493 100.07C154.951 100.261 155.398 100.521 155.276 101.045C155.149 101.588 154.563 101.612 154.114 101.58C152.738 101.48 151.505 100.953 150.374 100.18C149.865 99.8319 149.364 99.4714 148.807 99.177C149.709 100.583 151.002 101.598 152.286 102.603C153.461 103.522 154.701 104.359 155.926 105.211C156.126 105.349 156.365 105.417 156.283 105.711C156.209 105.975 155.979 106.016 155.73 106.038C154.797 106.124 153.918 105.805 152.985 105.715C155.005 107.143 156.789 108.887 159.03 109.986C158.79 110.657 158.199 110.467 157.763 110.379C154.615 109.74 151.94 108.224 149.733 105.898C149.274 105.413 148.824 104.864 149.402 104.147C149.675 103.809 149.394 103.613 149.184 103.396C147.794 101.97 147.012 100.35 147.496 98.2941C147.656 97.6092 146.997 97.3309 146.641 96.9343C146.054 96.2836 145.519 95.6667 145.487 94.7035C145.457 93.8024 145.766 93.41 146.677 93.4181C148.645 93.4359 150.538 93.9247 152.44 94.3272C155.183 94.9057 157.911 95.5305 160.73 95.6589C161.491 95.6929 162.685 95.5825 162.647 96.7039C162.615 97.6574 161.459 97.4992 160.774 97.559C158.337 97.7693 155.964 97.2248 153.597 96.734C152.052 96.4137 150.526 96.0012 148.988 95.6508C148.741 95.5948 148.471 95.6427 147.916 95.6427L147.923 95.6408Z" fill="#191D21"/>
<path d="M79.6617 62.1771C79.6737 61.7086 79.95 61.6005 80.1584 61.4601C84.2835 58.6767 88.6107 56.2619 93.1005 54.1032C97.4578 52.0064 101.927 50.2182 106.487 48.6484C110.712 47.1944 114.996 45.931 119.411 45.1901C121.245 44.8815 123.11 44.8595 124.972 44.9578C125.359 44.9776 125.793 45.052 125.783 45.4804C125.773 45.8909 125.34 46.0271 124.952 46.031C120.441 46.063 116.163 47.3187 111.904 48.5963C106.435 50.2363 101.123 52.3108 95.9278 54.6817C92.2415 56.3638 88.5988 58.1342 84.9965 59.9903C83.4966 60.7632 81.9304 61.4122 80.3845 62.0968C80.1885 62.1832 79.9403 62.1489 79.6617 62.1771Z" fill="#191D21"/>
<path d="M171.062 76.9295C171.086 77.3442 171.429 77.4261 171.719 77.5665C173.499 78.4355 175.292 79.2783 176.653 80.7983C177.09 81.2849 177.274 81.249 178.744 80.8743C178.898 81.249 178.567 81.4493 178.407 81.7476C178.972 82.018 179.367 81.3671 179.959 81.5172C179.649 82.162 179.389 82.7787 178.543 82.8068C178.229 82.8168 177.885 82.813 177.791 82.4726C177.672 82.0439 177.316 82.1361 177.188 82.26C176.978 82.4584 177.184 82.7068 177.35 82.9071C177.927 83.5998 178.976 83.824 179.787 83.4196C180.78 82.9249 181.221 82.0258 180.966 81.0225C180.944 80.9326 180.963 80.8303 180.963 80.7323C181.631 81.0368 181.816 81.2969 181.816 81.9258C181.81 84.0385 179.348 85.7144 177.376 85.0237C176.183 84.605 175.84 83.3216 176.024 81.7495C176.068 81.3791 176.139 81.293 175.708 81.1788C174.823 80.9445 173.958 80.6162 173.113 80.2616C172.526 80.0153 172.222 80.0956 171.859 80.6802C169.961 83.748 167.76 86.5475 164.725 88.6162C163.287 89.5952 161.769 89.9877 159.892 89.8036C162.377 88.0374 164.442 86.0189 166.294 83.7761C167.5 82.3163 168.551 80.7482 169.635 79.2023C169.873 78.8639 169.915 78.5996 169.55 78.3013C169.192 78.0068 168.867 77.6626 168.565 77.3099C167.894 76.5289 168.004 75.5159 168.901 75.0251C169.847 74.5084 170.768 73.9138 171.893 73.6035C171.775 74.038 171.437 74.17 171.17 74.3603C170.624 74.753 170.183 75.2154 169.905 75.8521C169.735 76.2426 169.582 76.8576 169.799 76.9495C170.145 77.0977 170.67 77.4041 171.092 76.9495L171.066 76.9275L171.062 76.9295Z" fill="#191D21"/>
<path d="M209.26 111.753C209.202 111.989 209.064 112.023 208.934 112.021C206.469 111.997 204.003 112.123 201.536 111.925C199.424 111.755 197.321 111.577 195.223 111.262C190.863 110.607 186.562 109.736 182.317 108.529C179.219 107.648 176.311 106.43 173.582 104.712C171.501 103.401 170.106 101.496 169.022 99.4356C167.919 97.3349 166.287 96.1834 164.172 95.3946C162.728 94.8559 161.369 94.0969 160.157 93.1218C160.003 92.9975 159.691 92.8474 159.847 92.5769C159.973 92.3589 160.243 92.3948 160.474 92.4889C163.033 93.5421 165.592 94.5916 168.149 95.6467C169.114 96.0453 169.725 96.7642 170.18 97.7095C170.722 98.8367 171.375 99.9141 172.034 100.981C172.901 102.385 174.066 103.47 175.47 104.376C179.105 106.721 183.136 108.022 187.279 109.027C193.36 110.503 199.57 110.968 205.802 111.278C206.943 111.334 208.163 111.226 209.258 111.755L209.26 111.753Z" fill="#191D21"/>
<path d="M281.285 54.1035C281.846 49.4073 281.525 44.4533 282.496 39.6133C283.362 35.3018 285.024 31.299 287.389 27.5965C287.627 27.2241 287.891 26.4369 288.52 26.7553C289.219 27.108 289.265 27.8369 288.963 28.5677C287.875 31.189 286.75 33.7961 285.734 36.4455C284.669 39.2208 284.089 42.1165 283.664 45.0619C283.197 48.294 282.811 51.542 282.116 54.7382C282.052 55.0365 282.248 55.6192 281.631 55.5092C281.135 55.4209 281.327 54.9243 281.289 54.5839C281.277 54.4859 281.289 54.3836 281.289 54.1035H281.285Z" fill="#191D21"/>
<path d="M268.115 67.2495C268.938 68.6734 268.81 70.1451 268.535 71.5509C266.929 79.737 264.094 87.5426 261.118 95.3043C259.63 99.187 258.331 103.136 257.648 107.255C257.574 107.708 257.638 108.182 257.574 108.645C257.377 106.883 257.744 105.16 257.94 103.422C258.743 96.3214 261.677 89.8375 263.792 83.1173C265.065 79.0721 266.575 75.0991 267.368 70.9119C267.6 69.6864 267.865 68.4689 268.115 67.2476V67.2495Z" fill="#191D21"/>
<path d="M307.508 40.8172C305.916 39.2173 304.292 37.6491 302.742 36.0091C300.613 33.7583 298.486 31.5097 296.166 29.4491C293.755 27.3063 290.841 26.1109 287.917 24.9054C287.322 24.6611 286.916 24.6974 286.311 24.9536C284.906 25.5521 283.442 26.1128 281.844 25.7366C281.663 25.6945 281.381 25.8064 281.333 25.5622C281.279 25.2901 281.459 25.0455 281.707 24.9293C282.304 24.6492 282.919 24.4088 283.516 24.1325C284.087 23.8701 284.739 23.686 285.184 23.2793C285.71 22.7969 286.191 22.8089 286.8 22.9351C292.615 24.1486 297.06 27.4646 300.823 31.9103C303.137 34.6454 305.308 37.4909 307.524 40.3025C307.599 40.3985 307.66 40.5069 307.731 40.6088C307.657 40.679 307.582 40.747 307.508 40.8172Z" fill="#191D21"/>
<path d="M194.063 104.378C192.933 104.708 191.816 105.091 190.672 105.361C187.318 106.152 183.942 106.374 180.544 105.629C180.352 105.588 180.152 105.539 179.985 105.443C179.583 105.213 179.096 104.921 179.23 104.418C179.334 104.027 179.855 104.029 180.259 104.031C182.028 104.036 183.798 104.076 185.564 104.024C190.16 103.887 194.621 103.03 198.931 101.416C199.323 101.268 199.69 100.978 200.056 101.492C200.425 102.011 200.03 102.325 199.756 102.61C198.456 103.961 196.824 104.863 195.23 105.8C194.321 106.334 193.374 106.803 192.431 107.277C192.204 107.392 191.924 107.762 191.688 107.376C191.519 107.103 191.53 106.757 191.802 106.455C192.475 105.708 193.336 105.197 194.065 104.374L194.063 104.378Z" fill="#191D21"/>
<path d="M158.729 174.366C158.659 171.903 158.731 169.444 158.945 166.993C159.097 165.255 159.315 163.521 159.578 161.795C159.632 161.442 159.588 160.843 160.17 160.777C160.771 160.709 161.616 161.54 161.731 162.233C161.953 163.589 161.807 164.952 161.674 166.294C161.348 169.582 160.911 172.86 160.533 176.144C160.377 177.496 160.255 178.85 160.118 180.203C160.082 180.566 159.966 180.864 159.538 180.876C159.113 180.888 158.999 180.616 158.923 180.247C158.52 178.295 158.855 176.323 158.731 174.366H158.729Z" fill="#191D21"/>
<path d="M97.1125 48.6588C97.9517 47.6614 99.1071 47.189 100.164 46.6484C106.462 43.4224 112.946 40.6429 119.819 38.8586C121.07 38.5341 122.342 38.338 123.624 38.7583C124.076 38.9065 124.463 39.1368 124.733 39.5416C124.915 39.8137 124.983 40.1343 124.809 40.3863C124.611 40.673 124.246 40.6287 123.994 40.4585C122.646 39.5536 121.252 39.9499 119.865 40.2925C115.531 41.3599 111.411 43.0277 107.315 44.7638C104.316 46.0356 101.364 47.4213 98.3041 48.5446C97.9598 48.6708 97.5933 48.917 97.1125 48.6608V48.6588Z" fill="#191D21"/>
<path d="M271.973 40.8527C271.915 37.3184 271.963 34.0342 271.689 30.7561C271.482 28.2733 271.442 25.7782 271.262 23.2931C271.068 20.6417 270.808 17.9946 270.551 15.3471C270.483 14.6363 270.377 13.9594 271.03 13.4246C271.444 13.0843 271.667 13.0823 271.903 13.6249C272.466 14.9145 272.672 16.2863 272.86 17.6562C273.483 22.1698 273.1 26.6712 272.694 31.179C272.434 34.0604 272.313 36.956 272.123 39.8436C272.107 40.0998 272.049 40.3541 271.973 40.8546V40.8527Z" fill="#191D21"/>
<path d="M214.441 104.111C216.653 103.33 218.616 102.401 220.893 102.67C220.757 103.359 220.152 103.561 219.667 103.803C217.372 104.948 215.054 106.046 212.747 107.169C212.366 107.354 211.952 107.501 211.677 107.898C211.948 108.391 212.614 108.064 212.953 108.509C211.964 108.965 211.034 108.767 210.147 108.353C209.254 107.936 209.14 107.093 209.893 106.454C210.86 105.633 212.064 105.215 213.179 104.646C213.458 104.504 213.792 104.488 213.81 104.019C213.894 101.863 214.621 99.8139 214.905 97.6873C215.042 96.672 215.234 95.6649 215.41 94.6538C215.45 94.4293 215.514 94.2031 215.604 93.9948C215.698 93.7744 215.872 93.5742 216.131 93.6185C216.353 93.6583 216.355 93.8987 216.415 94.0928C216.912 95.6911 216.445 97.2288 216.105 98.7627C215.716 100.515 215.133 102.217 214.445 104.108L214.441 104.111Z" fill="#191D21"/>
<path d="M171.089 76.9515C172.288 75.3377 173.417 73.6575 175.13 72.508C177.336 71.0262 179.821 70.8159 182.352 71.0825C183.334 71.1864 184.331 71.1103 185.31 71.3688C185.823 71.5047 186.322 71.617 186.802 71.8875C186.46 72.3297 186.003 72.1657 185.601 72.1796C183.288 72.2498 180.969 72.2799 178.738 72.9988C176.734 73.6456 175.452 75.1513 174.329 76.8275C173.992 77.3281 174.569 77.306 174.717 77.362C175.636 77.7186 176.537 78.1029 177.424 78.5355C178.488 79.0522 179.371 79.761 180.048 80.7824C177.354 78.7778 174.064 78.2071 171.064 76.9317C171.062 76.9317 171.089 76.9537 171.089 76.9537V76.9515Z" fill="#191D21"/>
<path d="M89.7015 85.4063C87.4205 83.2577 77.3942 64.194 77.5003 62.2596C78.0189 62.2075 78.137 62.6501 78.3392 62.9584C81.4212 67.6662 84.0642 72.6143 86.4412 77.7087C87.3584 79.6752 88.2498 81.6536 89.1489 83.6301C89.3912 84.1626 89.6795 84.6835 89.7034 85.4082L89.7015 85.4063Z" fill="#191D21"/>
<path d="M89.5668 67.3738C90.0954 68.5732 90.4717 69.4823 90.8962 70.3714C91.1165 70.8321 91.0764 71.3106 90.704 71.5287C90.2676 71.7853 89.9492 71.2925 89.7829 70.9742C88.8861 69.2481 87.9268 67.544 87.2959 65.6976C87.1717 65.3353 86.9254 64.8124 87.5903 64.5122C88.2911 64.1958 88.2772 64.8545 88.5014 65.1169C89.4526 66.2424 90.7121 66.9432 91.9076 67.7482C91.2786 66.5107 90.5041 65.3773 89.9812 64.1136C89.8311 63.7493 89.4908 63.2604 90.0515 62.9802C90.5678 62.722 90.7302 63.2766 90.9282 63.5749C92.0499 65.2712 93.2354 66.9351 93.8721 68.9016C93.9662 69.1918 94.1144 69.4904 93.7918 69.7065C93.5136 69.8948 93.3075 69.6024 93.0872 69.5043C91.9218 68.9796 90.8383 68.305 89.5687 67.3738H89.5668Z" fill="#191D21"/>
<path d="M121.338 64.8187C121.889 66.667 122.872 68.3031 123.455 70.2013C123.09 70.1114 122.83 69.9752 122.606 69.6866C121.228 67.9165 120.255 65.94 119.572 63.8154C119.472 63.5012 119.334 63.0945 119.594 62.8703C119.9 62.6041 120.277 62.8584 120.603 63.0143C122.057 63.7112 123.146 64.8827 124.466 65.996C124.082 64.5825 123.298 63.4909 122.802 62.2776C122.616 61.823 122.299 61.4105 122.279 60.8977C122.267 60.5975 121.975 60.1788 122.437 60.0349C122.82 59.9145 122.876 60.3613 123.006 60.5955C124.138 62.6438 125.101 64.7705 125.856 66.9834C125.974 67.3277 126.559 67.7062 125.978 68.199C124.65 66.8071 122.886 65.996 121.342 64.8167L121.338 64.8187Z" fill="#191D21"/>
<path d="M215.464 91.3016C215.623 90.5367 215.789 89.7738 215.939 89.0067C216.055 88.4121 216.131 87.7873 215.861 87.2386C215.436 86.3796 215.717 85.6145 216.075 84.8697C217.219 82.4969 218.738 80.3823 220.599 78.5158C221.067 78.0454 221.866 77.4106 222.235 77.7428C222.705 78.1693 221.92 78.7943 221.612 79.2949C220.334 81.3755 218.862 83.3358 217.743 85.5164C216.936 87.0866 216.636 88.8285 215.993 90.4526C215.877 90.747 215.779 91.0492 215.675 91.3479C215.606 91.3317 215.536 91.3178 215.468 91.3016H215.464Z" fill="#191D21"/>
<path d="M116.961 68.7156C116.134 66.5289 115.075 64.7465 114.555 62.7441C116.112 65.2532 117.072 68.0527 118.618 70.8442C116.865 69.979 115.323 69.2362 113.823 67.9265C114.096 68.6095 114.272 69.0939 114.48 69.5627C114.693 70.0412 114.959 70.4938 115.157 70.9785C115.355 71.4628 115.964 72.172 115.448 72.4321C114.865 72.7246 114.567 71.7834 114.33 71.3489C113.621 70.045 113.052 68.6613 112.468 67.2937C112.257 66.8013 112.113 66.2765 111.695 65.92C111.351 65.6256 111.549 65.3874 111.725 65.159C111.949 64.8707 112.149 65.029 112.392 65.2011C113.88 66.2526 115.331 67.3497 116.959 68.7156H116.961Z" fill="#191D21"/>
<path d="M109.712 64.5425C111.695 67.2178 113.317 70.0552 113.986 73.3896C112.307 71.7635 110.429 70.4337 108.411 68.7717C109.137 70.6641 110.035 72.1779 110.425 73.892C108.739 71.9055 108.21 69.3263 106.975 67.0557C109.029 67.5882 110.397 69.1943 112.173 70.3778C111.539 68.2851 110.071 66.6432 109.714 64.5444L109.712 64.5425Z" fill="#191D21"/>
<path d="M208.282 85.0091C205.713 85.0291 204.221 83.4292 204.193 81.523C204.173 80.1651 205.895 78.429 207.25 78.407C207.429 78.405 207.673 78.3109 207.761 78.5691C207.869 78.8874 207.621 78.9538 207.409 79.1178C205.909 80.2735 205.745 81.2205 206.614 82.9766C206.946 83.6515 208.486 84.3885 209.161 84.164C209.581 84.0258 209.639 83.5153 209.79 83.1309C210.034 82.5062 210.06 81.7491 210.805 81.4307C210.967 81.3605 211.101 81.1124 211.323 81.3007C211.51 81.4608 211.596 81.6711 211.582 81.9212C211.484 83.6974 210.08 85.0091 208.282 85.0071V85.0091Z" fill="#191D21"/>
<path d="M97.2528 78.3434C97.2648 80.0115 96.8361 80.5039 95.6869 80.392C95.2601 80.3499 95.0081 80.1277 94.8137 79.8271C93.5842 77.9448 92.4586 76.0084 91.6139 73.91C91.3674 73.2991 91.5498 73.0228 92.0704 72.8646C92.9193 72.6061 94.185 72.1477 94.5335 72.9526C95.1262 74.3183 96.4656 75.1112 96.8781 76.5532C97.0626 77.1938 97.311 77.8047 97.2508 78.3414L97.2528 78.3434ZM95.9091 79.2004C96.662 79.2066 96.652 79.2085 96.4818 78.5135C96.2495 77.5743 95.7988 76.7474 95.186 76.0126C95.01 75.8004 94.8499 75.3516 94.4231 75.7302C94.099 76.0184 93.7825 76.2608 94.1229 76.7894C94.5134 77.3941 94.8237 78.0531 95.1242 78.7077C95.3025 79.0943 95.5345 79.2845 95.9091 79.1985V79.2004ZM93.5321 75.7861C94.0025 75.1112 94.1468 74.4266 94.4011 73.7896C94.5594 73.3952 94.3934 73.117 93.9466 73.1791C93.3319 73.2632 92.6489 72.9225 92.1163 73.4593C92.0882 73.4874 92.2186 73.6857 92.2865 73.7957C92.6832 74.4367 93.0856 75.0734 93.5321 75.7861Z" fill="#191D21"/>
<path d="M173.952 84.6674C173.894 87.2547 173.031 89.3551 170.875 90.8392C169.867 91.5319 168.91 92.3048 168.153 93.288C168.019 93.4624 167.835 93.7406 167.594 93.5844C167.334 93.4184 167.514 93.0919 167.621 92.9156C168.238 91.8923 168.86 90.8392 169.795 90.0921C171.467 88.7546 172.186 87.0745 171.986 84.9657C171.928 84.3471 172.144 83.8304 172.545 83.3519C172.765 83.0895 172.919 82.8291 173.325 82.9093C173.698 82.9834 173.704 83.2817 173.82 83.5519C173.988 83.9424 173.918 84.3371 173.954 84.6655L173.952 84.6674Z" fill="#191D21"/>
<path d="M135.45 76.6571C134.499 77.5584 133.448 78.167 132.403 78.7678C129.493 80.4398 126.473 81.8738 123.207 82.7188C122.714 82.847 121.936 83.055 121.771 82.6046C121.541 81.9757 122.382 81.8336 122.812 81.6554C126.888 79.9652 130.895 78.113 135.058 76.6373C135.142 76.6072 135.248 76.6451 135.45 76.6571Z" fill="#191D21"/>
<path d="M262.959 201.62C264.16 203.694 263.648 205.821 263.335 207.934C263.201 208.841 263.021 209.742 262.853 210.643C262.774 211.058 262.534 211.466 262.13 211.47C261.745 211.472 261.509 211.112 261.371 210.683C261.143 209.974 261.105 209.196 261.147 208.537C261.299 206.127 261.176 203.694 261.669 201.312C261.747 200.937 261.891 200.631 262.38 200.615C261.691 203.238 262.392 205.915 261.873 208.528C262.474 207.095 262.606 205.567 262.837 204.067C262.895 203.683 262.64 203.252 262.53 202.842C262.402 202.361 262.386 201.914 262.963 201.622L262.959 201.62Z" fill="#191D21"/>
<path d="M100.499 64.909C100.31 63.9455 100.555 62.9623 100.276 62.0334C100.206 61.7969 100.1 61.3905 100.422 61.2304C100.751 61.066 100.967 61.3844 101.167 61.5966C102.033 62.5138 102.887 63.4369 103.747 64.358C103.817 64.3001 103.887 64.2441 103.957 64.1859C103.464 62.3618 102.974 60.5374 102.469 58.667C103.338 58.8495 103.436 59.5742 103.636 60.1488C104.091 61.4484 104.468 62.7762 104.866 64.0959C104.946 64.3622 105.257 64.6867 104.944 64.909C104.642 65.1251 104.263 65.0151 103.935 64.7948C103.328 64.3881 102.713 63.9976 102.221 63.445C101.91 63.0965 101.594 62.7542 101.133 62.2514C100.923 63.6232 101.298 64.6825 101.612 65.7599C101.692 66.0342 102.101 66.3765 101.692 66.6451C101.257 66.9314 101.041 66.4606 100.807 66.2245C99.3712 64.7728 98.2197 63.1127 97.1666 61.3824L97.3866 61.2022C98.4239 62.4378 99.4615 63.6734 100.499 64.909Z" fill="#191D21"/>
<path d="M102.477 71.8129C103.23 70.3874 103.643 70.3631 104.426 71.6068C104.846 72.2755 105.259 72.9562 105.599 73.6693C105.928 74.3581 106.216 75.099 105.471 75.7419C104.826 76.2984 103.507 76.4508 102.892 75.8901C101.43 74.5522 100.505 72.8922 100.333 70.8798C100.269 70.1208 100.767 69.6083 101.334 69.2757C101.668 69.0777 102.201 69.0195 102.612 69.476C101.35 69.354 100.942 69.9247 101.23 71.1823C101.596 72.7841 102.477 74.0618 103.587 75.2252C103.899 75.5536 104.254 75.7519 104.634 75.5254C105.077 75.2611 104.855 74.8386 104.718 74.4604C104.492 73.8395 104.278 73.2147 104.073 72.5861C103.827 71.829 103.597 71.07 102.482 71.8129H102.477Z" fill="#191D21"/>
<path d="M97.8425 70.3253C97.6322 70.4133 97.4038 70.4735 97.2139 70.5916C96.8392 70.8259 96.1025 70.7958 96.1986 71.3985C96.3287 72.2035 97.1718 72.6121 97.9328 72.4397C98.2091 72.3779 98.4993 72.3837 98.7937 72.3578C98.7057 73.0748 97.5882 72.9725 97.7603 73.6775C97.8946 74.2301 98.3754 74.6885 98.6436 75.2191C98.994 75.916 99.4625 76.557 99.4906 77.404C99.5065 77.8705 99.8391 78.0507 100.33 77.7964C100.66 77.6263 101.036 77.546 101.433 77.4101C101.393 78.0129 100.9 78.0847 100.616 78.3131C100.075 78.7476 99.721 78.9838 99.1082 78.0608C98.289 76.8252 97.2498 75.7138 96.5047 74.4042C96.0983 73.6914 95.7379 72.9505 95.3335 72.2355C94.9789 71.6088 95.1834 71.1701 95.7599 70.8559C96.3989 70.5075 97.0838 70.3033 97.8425 70.3253Z" fill="#191D21"/>
<path d="M187.403 72.9648C187.601 73.4217 187.553 73.6679 187.489 73.9341C187.143 75.3438 187.851 75.9685 189.279 76.0588C191.706 76.2131 193.909 75.5521 196.049 74.589C198.102 73.6659 199.864 72.256 201.698 70.9744C202.273 70.572 202.82 70.1216 203.729 69.8052C202.862 71.0165 201.913 71.7635 200.877 72.4142C197.984 74.2324 195.066 75.9886 191.646 76.6755C190.521 76.9019 189.391 76.8097 188.272 76.7596C187.617 76.7317 187.343 76.0708 187.15 75.5081C186.874 74.699 186.764 73.8801 187.403 72.9609V72.9648Z" fill="#191D21"/>
<path d="M108.899 74.2016C108.879 74.4961 108.933 74.7125 108.675 74.8005C108.393 74.8966 108.13 74.8565 107.952 74.6242C107.65 74.2298 107.332 73.8373 107.107 73.3986C106.326 71.8748 105.577 70.3351 104.832 68.7931C104.72 68.5628 104.686 68.2884 104.65 68.0302C104.614 67.7798 104.722 67.5536 104.945 67.4433C105.209 67.3132 105.467 67.3873 105.649 67.6277C105.91 67.9681 106.212 68.2884 106.4 68.665C107.215 70.305 108.105 71.9091 108.733 73.6351C108.811 73.8493 108.861 74.0735 108.899 74.2016Z" fill="#191D21"/>
<path d="M190.677 121.07C190.705 121.577 190.464 121.857 190.062 122.001C189.259 122.292 188.42 122.484 187.699 122.987C187.523 123.109 187.122 123.165 187.066 122.98C186.66 121.649 185.502 122.226 184.723 122.133C183.189 121.951 181.63 121.993 179.966 121.559C182.13 120.932 184.125 121.481 186.121 121.581C186.732 121.611 187.263 121.749 187.875 121.327C188.702 120.754 189.732 121.124 190.675 121.072L190.677 121.07Z" fill="#191D21"/>
<path d="M120.846 70.942C119.062 68.3867 117.478 65.7554 116.577 62.7297C117.46 62.6216 117.792 63.0021 118.065 63.6488C118.91 65.6493 119.821 67.6238 120.72 69.6022C120.914 70.029 120.96 70.4554 120.844 70.9439L120.846 70.942Z" fill="#191D21"/>
<path d="M134.177 81.8735C132.064 83.103 130.014 84.4065 127.757 85.3257C127.532 85.4179 127.286 85.4858 127.098 85.3098C126.862 85.0895 127.192 84.8931 127.184 84.6909C127.17 84.2324 127.386 83.9241 127.753 83.7238C129.749 82.6345 131.902 82.0596 134.175 81.8735H134.177Z" fill="#191D21"/>
<path d="M130.897 88.2094C130.825 87.8231 130.906 87.5866 131.508 87.4866C132.536 87.3165 133.531 86.946 134.542 86.6736C134.786 86.6076 135.119 86.4934 135.223 86.8318C135.319 87.1463 135.575 87.5345 135.145 87.8209C134.266 88.4058 133.423 89.0606 132.488 89.5353C131.643 89.9636 130.919 89.3408 130.899 88.2114L130.897 88.2094Z" fill="#191D21"/>
<path d="M97.9024 67.2154C97.52 68.3429 96.6147 68.5891 95.8179 68.9276C95.3915 69.1078 95.1449 68.6691 94.9747 68.3769C94.0556 66.801 93.457 65.0788 92.7763 63.3967C92.5259 62.7739 93.1225 62.4015 93.5111 62.0311C93.9077 61.6525 94.2998 61.2319 94.9087 61.208C94.9508 61.208 95.055 61.3662 95.0372 61.4164C94.8427 61.9288 94.3361 62.1311 93.9216 62.3533C93.1244 62.7797 93.2267 63.0803 93.5373 63.9212C94.0918 65.4211 95.011 65.445 96.2042 65.1027C96.2844 65.4712 96.0363 65.4052 95.9321 65.4531C94.5583 66.094 94.4503 66.6648 95.4474 67.8101C95.6839 68.0825 95.9259 68.0184 96.1505 67.9401C96.695 67.748 97.2198 67.5037 97.9005 67.2193L97.9024 67.2154Z" fill="#191D21"/>
<path d="M211.129 110.005C211.417 109.987 211.627 110.121 211.801 110.259C212.422 110.755 213.027 111.274 213.636 111.789C213.906 112.019 214.058 112.221 213.802 112.624C213.58 112.972 213.339 113.094 212.991 113.014C212.088 112.802 211.245 112.422 210.408 112.023C209.937 111.799 209.903 111.358 210.031 111.002C210.21 110.513 210.656 110.215 211.127 110.005H211.129Z" fill="#191D21"/>
<path d="M130.726 67.3091C129.917 67.6398 129.397 67.6996 128.806 67.2153C126.771 65.5452 125.648 63.4665 125.652 60.8012C125.652 60.0221 126.467 59.3094 127.204 59.5336C127.474 59.6157 127.682 59.762 127.684 60.0823C127.689 60.4709 127.386 60.3566 127.182 60.3748C126.527 60.4307 126.297 60.7873 126.283 61.4321C126.227 63.845 128.183 66.5604 130.728 67.3091H130.726Z" fill="#191D21"/>
<path d="M255.301 211.132C255.854 210.828 255.986 210.317 256.062 209.732C256.361 207.449 256.227 205.157 256.251 202.868C256.254 202.403 256.266 201.955 256.633 201.55C257.017 201.898 257.12 202.337 257.04 202.79C256.671 204.87 256.917 206.967 256.869 209.053C256.855 209.63 256.775 210.191 256.567 210.695C256.357 211.204 255.97 211.646 255.335 211.106L255.303 211.13L255.301 211.132Z" fill="#191D21"/>
<path d="M215.933 75.6023C216.576 75.4599 216.937 75.8886 217.173 76.4312C217.473 77.12 217.742 77.8269 217.97 78.5419C218.032 78.738 218.178 79.1004 217.792 79.1968C217.495 79.2686 217.161 79.4731 216.896 79.0906C216.316 78.2514 215.667 77.4545 215.158 76.5755C214.736 75.8466 215.02 75.5201 215.935 75.6L215.933 75.6023Z" fill="#191D21"/>
<path d="M79.3136 52.1087C79.3476 52.2831 79.2534 52.3229 79.1574 52.3491C78.9632 52.3992 78.851 52.2569 78.7309 52.1469C77.8719 51.3617 77.0126 50.5768 76.1556 49.788C75.569 49.247 74.9802 48.7064 74.4033 48.1538C74.1351 47.8976 73.8569 47.563 74.0973 47.2046C74.3936 46.76 74.6838 47.1826 74.9219 47.3489C76.6603 48.5624 77.9418 50.2164 79.2175 51.8725C79.2754 51.9486 79.2936 52.0547 79.3156 52.1087H79.3136Z" fill="#191D21"/>
<path d="M249.86 198.713C248.908 198.725 248.2 198.088 248.254 197.307C248.298 196.666 248.336 195.959 249.265 195.949C250.076 195.939 250.877 196.79 250.841 197.651C250.813 198.344 250.344 198.605 249.861 198.715L249.86 198.713Z" fill="#191D21"/>
<path d="M240.465 72.8923C241.143 71.2882 240.643 69.5741 241.007 67.9341C241.364 66.328 241.616 64.6981 241.914 63.0781C242.677 64.0513 241.782 70.445 240.465 72.8942V72.8923Z" fill="#191D21"/>
<path d="M255.333 211.108C254.822 210.984 254.882 210.467 254.882 210.187C254.888 207.137 254.986 204.089 255.493 201.072C255.507 200.99 255.613 200.924 255.729 200.793C256.45 201.855 255.793 202.9 255.757 203.907C255.673 206.318 255.231 208.711 255.299 211.134L255.333 211.108Z" fill="#191D21"/>
<path d="M170.7 118.88C168.768 120.15 166.643 121.075 164.418 121.776C164.096 121.878 163.731 121.76 163.689 121.475C163.645 121.177 164.028 121.013 164.3 120.925C166.028 120.358 167.764 119.813 169.498 119.263C169.899 119.134 170.3 119.008 170.7 118.88Z" fill="#191D21"/>
<path d="M221.963 114.777C220.578 115.007 220.353 114.02 220.065 113.285C219.753 112.49 220.095 111.731 220.85 111.358C221.755 110.912 222.286 111.605 222.884 112.278C222.222 112.546 221.369 112.364 221.058 113.083C220.738 113.823 221.345 114.246 221.965 114.777H221.963Z" fill="#191D21"/>
<path d="M130.319 66.4466C130.333 65.4371 130.234 64.4339 130.106 63.4286C129.96 62.2772 129.76 62.0792 128.623 62.1772C128.346 62.2011 127.894 62.3856 127.838 62.0352C127.781 61.6887 128.12 61.4104 128.545 61.3441C129.101 61.2561 129.654 61.2441 129.958 61.7867C130.733 63.1724 131.044 64.6503 130.669 66.2282C130.637 66.3663 130.539 66.4547 130.317 66.4485L130.319 66.4466Z" fill="#191D21"/>
<path d="M241.468 62.3696C241.287 62.9902 240.951 63.0604 240.627 62.9523C239.509 62.5819 238.364 62.5537 237.206 62.5777C236.914 62.5838 236.518 62.6019 236.498 62.2153C236.477 61.8229 236.962 61.8487 237.168 61.8306C238.079 61.7468 239.019 61.6485 239.894 62.027C240.378 62.2373 240.847 62.4576 241.468 62.3696Z" fill="#191D21"/>
<path d="M247.364 214.673C248.179 214.26 249.124 214.502 249.529 215.169C249.731 215.505 249.767 215.876 249.531 216.2C249.154 216.717 248.586 216.611 248.063 216.563C247.548 216.515 247.074 216.303 246.872 215.8C246.751 215.503 246.741 215.083 247.194 214.993C247.839 214.867 247.376 215.343 247.446 215.53C247.558 215.826 247.729 216.072 248.043 216.13C248.307 216.18 248.483 215.966 248.584 215.758C248.736 215.439 248.748 215.103 248.446 214.849C248.137 214.588 247.793 214.432 247.364 214.673Z" fill="#191D21"/>
<path d="M116.731 76.996C116.473 76.9899 116.225 77.0381 116.103 76.6777C115.955 76.247 116.263 76.1147 116.509 76.0228C117.278 75.7342 118.065 75.4961 118.848 75.2476C119.012 75.1955 119.179 75.2256 119.289 75.3819C119.419 75.5683 119.283 75.6883 119.169 75.7963C118.478 76.4392 117.671 76.8556 116.731 76.996Z" fill="#191D21"/>
<path d="M284.708 75.2113C285.126 73.427 284.968 71.5226 285.817 69.8286C285.915 69.8487 286.013 69.8665 286.111 69.8865C285.743 71.6828 285.374 73.4771 285.006 75.2734C284.906 75.2533 284.806 75.2313 284.706 75.2113H284.708Z" fill="#191D21"/>
<path d="M207.382 80.622C207.412 80.6421 207.556 80.6942 207.556 80.7482C207.556 81.6053 208.17 81.7256 208.811 81.8075C209.072 81.8395 209.148 81.9757 209.1 82.208C209.05 82.4503 208.929 82.6487 208.661 82.6746C208.09 82.7289 207.728 82.3763 207.312 82.0479C206.865 81.6975 207.031 81.285 207.007 80.8805C206.995 80.6822 207.123 80.5881 207.384 80.622H207.382Z" fill="#191D21"/>
<path d="M222.846 69.5766C223.747 68.3753 225.047 67.8324 226.437 67.4399C225.239 68.1527 224.044 68.8638 222.846 69.5766Z" fill="#191D21"/>
<path d="M285 76.6691C286.734 76.4527 288.026 76.9875 289.301 77.6003C287.959 77.3097 286.62 77.0195 285 76.6691Z" fill="#191D21"/>
<path d="M290.203 65.6797C290.411 67.398 289.69 67.9907 287.836 67.474C289.163 67.5342 290.137 67.1595 290.203 65.6816V65.6797Z" fill="#191D21"/>
<path d="M158.323 93.5279C157.937 93.4179 157.899 93.1474 157.825 92.9572C157.7 92.6388 157.416 92.3344 157.594 91.9519C157.616 91.904 157.774 91.8701 157.835 91.8998C158.251 92.1043 158.257 92.5226 158.317 92.9012C158.349 93.0914 158.323 93.2898 158.323 93.5279Z" fill="#191D21"/>
<path d="M239.869 64.8305C239.865 64.2158 239.949 63.7994 240.404 63.6169C240.608 63.5351 240.786 63.735 240.812 63.9376C240.892 64.5863 240.343 64.5862 239.871 64.8305H239.869Z" fill="#191D21"/>
<path d="M97.9586 227.48C97.7225 227.164 97.516 226.819 97.244 226.537C96.9334 226.216 96.4869 226 96.0983 226.286C95.7722 226.526 95.5816 226.915 95.7939 227.414C96.2245 228.419 96.8353 229.36 97.0676 230.678C96.4629 229.573 95.9602 228.661 95.4658 227.744C95.1193 227.101 94.9171 226.432 95.4978 225.828C95.8961 225.411 96.4209 225.495 96.8735 225.738C97.5523 226.102 98.1188 226.575 97.9548 227.48H97.9586Z" fill="#191D21"/>
<path d="M297.02 58.8594C296.693 57.1792 296.091 58.6733 295.538 58.6151C295.472 57.8341 295.404 57.0392 295.318 56.02C296.065 56.6626 295.832 57.2915 295.912 57.836C296.345 58.0004 296.505 56.913 297.11 57.638C297.482 58.0845 297.519 58.3708 297.022 58.8574L297.02 58.8594Z" fill="#191D21"/>
<path d="M291.536 56.8546C290.989 56.9607 290.417 56.9445 290.338 56.4741C290.226 55.7792 290.497 55.0722 290.845 54.4494C290.893 54.3634 291.32 54.2712 291.304 54.6759C291.296 54.8681 291.26 55.0722 291.186 55.2486C290.935 55.8413 290.825 56.3958 291.538 56.8527L291.536 56.8546Z" fill="#191D21"/>
<path d="M292.775 56.2116C293.174 56.5419 292.719 57.341 293.296 57.2928C294.077 57.2268 293.835 56.3999 293.941 55.8091C294.77 56.2756 294.309 56.8282 294.065 57.2427C293.771 57.7412 293.174 57.7814 292.755 57.4811C292.271 57.1346 292.459 56.65 292.773 56.2116H292.775Z" fill="#191D21"/>
<path d="M291.362 61.5783C290.639 61.4483 289.764 61.3561 289.59 60.7193C289.372 59.9205 289.874 59.1133 290.423 58.3223C290.541 58.9612 290.251 59.3838 290.107 59.8322C289.907 60.4511 289.84 60.9578 290.691 61.1018C290.922 61.1399 291.184 61.2561 291.36 61.5783H291.362Z" fill="#191D21"/>
<path d="M293.222 61.6967C292.892 61.4382 293 61.094 292.844 60.8536C292.571 60.9497 292.719 61.5664 292.305 61.3622C291.928 61.1758 292.195 60.8077 292.355 60.6013C292.579 60.3149 292.894 60.1007 293.264 60.445C293.731 60.8756 293.414 61.2781 293.222 61.6967Z" fill="#191D21"/>
<path d="M290.701 60.5711C290.369 59.8202 290.507 59.1793 291.172 58.4766C291.462 59.4058 290.958 59.9584 290.701 60.5711Z" fill="#191D21"/>
<path d="M295.665 109.666C295.231 109.39 295.021 110.435 294.632 109.825C294.42 109.494 294.298 109.025 294.332 108.637C294.372 108.186 294.518 107.598 295.159 107.656C295.747 107.708 296.424 107.942 296.422 108.613C296.422 108.871 296.661 109.921 295.663 109.664L295.665 109.666Z" fill="#191D21"/>
<path d="M184.738 44.061C184.838 44.6997 184.529 45.1944 184.365 45.7172C184.04 46.7502 184.299 47.1407 185.358 47.1608C185.722 47.167 186.087 47.1608 186.542 47.1608C186.257 48.2841 185.346 48.4905 184.515 48.7086C183.938 48.861 183.233 48.8969 182.877 48.3022C182.425 47.5513 182.374 46.6862 182.943 45.9572C183.466 45.2885 183.674 44.2933 184.739 44.0571L184.738 44.061Z" fill="#191D21"/>
<path d="M193.58 43.2832C193.154 43.2894 192.229 41.8555 192.219 41.1269C192.213 40.5659 192.721 40.3659 193.086 40.3578C194.181 40.3297 194.97 40.9725 194.966 41.7435C194.962 42.6426 194.397 43.2713 193.58 43.2832Z" fill="#191D21"/>
<path d="M188.144 56.1642C187.641 56.1642 187.241 56.182 186.842 56.16C186.39 56.1341 186.071 55.7795 186.036 55.4291C185.994 55.0305 186.444 54.8464 186.809 54.8005C187.235 54.7461 187.682 54.7322 188.104 54.7943C189.011 54.9305 189.912 55.1208 190.809 55.3068C191.034 55.3531 191.284 55.4731 191.22 55.7675C191.164 56.0238 190.903 55.9759 190.717 55.9639C189.814 55.9096 188.947 56.3082 188.142 56.1642H188.144Z" fill="#191D21"/>
<path d="M182.21 42.441C182.414 42.9696 182.216 43.4743 181.98 44.003C181.777 44.4514 181.439 44.4634 181.199 44.2253C180.71 43.7345 180.316 43.166 180.331 42.3989C180.348 41.702 180.991 41.4717 181.335 41.0391C181.501 40.8291 182.216 40.757 182.21 41.4998C182.21 41.7962 182.21 42.0925 182.21 42.441Z" fill="#191D21"/>
</svg>
