<svg width="32" height="32" viewBox="0 0 32 32" fill="none" xmlns="http://www.w3.org/2000/svg">
<path fill-rule="evenodd" clip-rule="evenodd" d="M26.2052 10.2147C25.1659 9.17117 23.4775 9.16765 22.4339 10.2069L18.5047 14.1198C17.4611 15.159 17.4576 16.8475 18.4968 17.891L22.4098 21.8203C23.449 22.8638 25.1374 22.8674 26.181 21.8281L30.1102 17.9152C31.1538 16.876 31.1573 15.1875 30.1181 14.144L26.2052 10.2147ZM17.9151 1.89052C16.8759 0.846954 15.1875 0.843436 14.1439 1.88266L10.2147 5.79558C9.1711 6.83481 9.16758 8.52324 10.2068 9.5668L14.1197 13.496C15.159 14.5396 16.8474 14.5431 17.8909 13.5039L21.8202 9.59099C22.8638 8.55176 22.8673 6.86333 21.8281 5.81976L17.9151 1.89052ZM5.81871 10.1717C6.86228 9.1325 8.55071 9.13602 9.58994 10.1796L13.5029 14.1088C14.5421 15.1524 14.5386 16.8408 13.495 17.8801L9.56576 21.793C8.52219 22.8322 6.83376 22.8287 5.79453 21.7851L1.88161 17.8559C0.842386 16.8123 0.845905 15.1239 1.88947 14.0846L5.81871 10.1717ZM17.881 18.5077C16.8417 17.4641 15.1533 17.4606 14.1097 18.4998L10.1805 22.4128C9.13692 23.452 9.1334 25.1404 10.1726 26.184L14.0855 30.1132C15.1248 31.1568 16.8132 31.1603 17.8568 30.1211L21.786 26.2082C22.8296 25.1689 22.8331 23.4805 21.7939 22.437L17.881 18.5077Z" fill="url(#paint0_linear_606_6297)"/>
<defs>
<linearGradient id="paint0_linear_606_6297" x1="15.2404" y1="3.92864" x2="14.0781" y2="29.5162" gradientUnits="userSpaceOnUse">
<stop stop-color="#8930FD"/>
<stop offset="1" stop-color="#49CCF9"/>
</linearGradient>
</defs>
</svg>
