<svg width="121" height="32" viewBox="0 0 121 32" fill="none" xmlns="http://www.w3.org/2000/svg">
<path fill-rule="evenodd" clip-rule="evenodd" d="M26.2052 10.2147C25.1659 9.17117 23.4775 9.16765 22.4339 10.2069L18.5047 14.1198C17.4611 15.159 17.4576 16.8475 18.4968 17.891L22.4098 21.8203C23.449 22.8638 25.1374 22.8674 26.181 21.8281L30.1102 17.9152C31.1538 16.876 31.1573 15.1875 30.1181 14.144L26.2052 10.2147ZM17.9151 1.89052C16.8759 0.846953 15.1875 0.843435 14.1439 1.88266L10.2147 5.79558C9.1711 6.8348 9.16758 8.52324 10.2068 9.5668L14.1197 13.496C15.159 14.5396 16.8474 14.5431 17.8909 13.5039L21.8202 9.59099C22.8638 8.55176 22.8673 6.86333 21.8281 5.81976L17.9151 1.89052ZM5.81871 10.1717C6.86228 9.1325 8.55071 9.13601 9.58994 10.1796L13.5029 14.1088C14.5421 15.1524 14.5386 16.8408 13.495 17.8801L9.56576 21.793C8.52219 22.8322 6.83376 22.8287 5.79453 21.7851L1.88161 17.8559C0.842386 16.8123 0.845905 15.1239 1.88947 14.0846L5.81871 10.1717ZM17.881 18.5077C16.8417 17.4641 15.1533 17.4606 14.1097 18.4998L10.1805 22.4128C9.13692 23.452 9.1334 25.1404 10.1726 26.184L14.0855 30.1132C15.1248 31.1568 16.8132 31.1603 17.8568 30.1211L21.786 26.2082C22.8296 25.1689 22.8331 23.4805 21.7939 22.4369L17.881 18.5077Z" fill="url(#paint0_linear_249_25127)"/>
<path d="M43.52 18.26C43.52 18.74 43.6067 19.1467 43.78 19.48C43.9533 19.8133 44.18 20.0867 44.46 20.3C44.7533 20.5 45.0933 20.6533 45.48 20.76C45.8667 20.8533 46.2667 20.9 46.68 20.9C46.96 20.9 47.26 20.88 47.58 20.84C47.9 20.7867 48.2 20.6933 48.48 20.56C48.76 20.4267 48.9933 20.2467 49.18 20.02C49.3667 19.78 49.46 19.48 49.46 19.12C49.46 18.7333 49.3333 18.42 49.08 18.18C48.84 17.94 48.52 17.74 48.12 17.58C47.72 17.42 47.2667 17.28 46.76 17.16C46.2533 17.04 45.74 16.9067 45.22 16.76C44.6867 16.6267 44.1667 16.4667 43.66 16.28C43.1533 16.08 42.7 15.8267 42.3 15.52C41.9 15.2133 41.5733 14.8333 41.32 14.38C41.08 13.9133 40.96 13.3533 40.96 12.7C40.96 11.9667 41.1133 11.3333 41.42 10.8C41.74 10.2533 42.1533 9.8 42.66 9.44C43.1667 9.08 43.74 8.81333 44.38 8.64C45.02 8.46667 45.66 8.38 46.3 8.38C47.0467 8.38 47.76 8.46667 48.44 8.64C49.1333 8.8 49.7467 9.06667 50.28 9.44C50.8133 9.81333 51.2333 10.2933 51.54 10.88C51.86 11.4533 52.02 12.1533 52.02 12.98H48.98C48.9533 12.5533 48.86 12.2 48.7 11.92C48.5533 11.64 48.3533 11.42 48.1 11.26C47.8467 11.1 47.5533 10.9867 47.22 10.92C46.9 10.8533 46.5467 10.82 46.16 10.82C45.9067 10.82 45.6533 10.8467 45.4 10.9C45.1467 10.9533 44.9133 11.0467 44.7 11.18C44.5 11.3133 44.3333 11.48 44.2 11.68C44.0667 11.88 44 12.1333 44 12.44C44 12.72 44.0533 12.9467 44.16 13.12C44.2667 13.2933 44.4733 13.4533 44.78 13.6C45.1 13.7467 45.5333 13.8933 46.08 14.04C46.64 14.1867 47.3667 14.3733 48.26 14.6C48.5267 14.6533 48.8933 14.7533 49.36 14.9C49.84 15.0333 50.3133 15.2533 50.78 15.56C51.2467 15.8667 51.6467 16.28 51.98 16.8C52.3267 17.3067 52.5 17.96 52.5 18.76C52.5 19.4133 52.3733 20.02 52.12 20.58C51.8667 21.14 51.4867 21.6267 50.98 22.04C50.4867 22.44 49.8667 22.7533 49.12 22.98C48.3867 23.2067 47.5333 23.32 46.56 23.32C45.7733 23.32 45.0067 23.22 44.26 23.02C43.5267 22.8333 42.8733 22.5333 42.3 22.12C41.74 21.7067 41.2933 21.18 40.96 20.54C40.6267 19.9 40.4667 19.14 40.48 18.26H43.52ZM53.7349 8.72H56.5749V14.1H56.6349C56.9949 13.5 57.4549 13.0667 58.0149 12.8C58.5749 12.52 59.1216 12.38 59.6549 12.38C60.4149 12.38 61.0349 12.4867 61.5149 12.7C62.0083 12.9 62.3949 13.1867 62.6749 13.56C62.9549 13.92 63.1483 14.3667 63.2549 14.9C63.3749 15.42 63.4349 16 63.4349 16.64V23H60.5949V17.16C60.5949 16.3067 60.4616 15.6733 60.1949 15.26C59.9283 14.8333 59.4549 14.62 58.7749 14.62C58.0016 14.62 57.4416 14.8533 57.0949 15.32C56.7483 15.7733 56.5749 16.5267 56.5749 17.58V23H53.7349V8.72ZM68.1771 11.06H65.3371V8.72H68.1771V11.06ZM65.3371 12.66H68.1771V23H65.3371V12.66ZM70.7 14.56H69V12.66H70.7V11.86C70.7 10.94 70.9867 10.1867 71.56 9.6C72.1333 9.01333 73 8.72 74.16 8.72C74.4133 8.72 74.6667 8.73333 74.92 8.76C75.1733 8.77333 75.42 8.78667 75.66 8.8V10.92C75.3267 10.88 74.98 10.86 74.62 10.86C74.2333 10.86 73.9533 10.9533 73.78 11.14C73.62 11.3133 73.54 11.6133 73.54 12.04V12.66H75.5V14.56H73.54V23H70.7V14.56ZM80.0068 12.66H82.0868V14.56H80.0068V19.68C80.0068 20.16 80.0868 20.48 80.2468 20.64C80.4068 20.8 80.7268 20.88 81.2068 20.88C81.3668 20.88 81.5202 20.8733 81.6668 20.86C81.8135 20.8467 81.9535 20.8267 82.0868 20.8V23C81.8468 23.04 81.5802 23.0667 81.2868 23.08C80.9935 23.0933 80.7068 23.1 80.4268 23.1C79.9868 23.1 79.5668 23.0667 79.1668 23C78.7802 22.9467 78.4335 22.8333 78.1268 22.66C77.8335 22.4867 77.6002 22.24 77.4268 21.92C77.2535 21.6 77.1668 21.18 77.1668 20.66V14.56H75.4468V12.66H77.1668V9.56H80.0068V12.66ZM83.4047 8.72H86.5447V14.2H92.3247V8.72H95.4647V23H92.3247V16.84H86.5447V23H83.4047V8.72ZM107.296 23H104.596V21.56H104.536C104.176 22.16 103.709 22.5933 103.136 22.86C102.562 23.1267 101.976 23.26 101.376 23.26C100.616 23.26 99.989 23.16 99.4956 22.96C99.0156 22.76 98.6356 22.48 98.3556 22.12C98.0756 21.7467 97.8756 21.3 97.7556 20.78C97.649 20.2467 97.5956 19.66 97.5956 19.02V12.66H100.436V18.5C100.436 19.3533 100.569 19.9933 100.836 20.42C101.102 20.8333 101.576 21.04 102.256 21.04C103.029 21.04 103.589 20.8133 103.936 20.36C104.282 19.8933 104.456 19.1333 104.456 18.08V12.66H107.296V23ZM116.698 17.84C116.698 17.4 116.651 16.98 116.558 16.58C116.464 16.18 116.318 15.8267 116.118 15.52C115.918 15.2133 115.664 14.9733 115.358 14.8C115.064 14.6133 114.704 14.52 114.278 14.52C113.864 14.52 113.504 14.6133 113.198 14.8C112.891 14.9733 112.638 15.2133 112.438 15.52C112.238 15.8267 112.091 16.18 111.998 16.58C111.904 16.98 111.858 17.4 111.858 17.84C111.858 18.2667 111.904 18.68 111.998 19.08C112.091 19.48 112.238 19.8333 112.438 20.14C112.638 20.4467 112.891 20.6933 113.198 20.88C113.504 21.0533 113.864 21.14 114.278 21.14C114.704 21.14 115.064 21.0533 115.358 20.88C115.664 20.6933 115.918 20.4467 116.118 20.14C116.318 19.8333 116.464 19.48 116.558 19.08C116.651 18.68 116.698 18.2667 116.698 17.84ZM109.118 8.72H111.958V13.92H111.998C112.344 13.3867 112.811 13 113.398 12.76C113.998 12.5067 114.618 12.38 115.258 12.38C115.778 12.38 116.291 12.4867 116.798 12.7C117.304 12.9133 117.758 13.24 118.158 13.68C118.571 14.12 118.904 14.6867 119.158 15.38C119.411 16.06 119.538 16.8733 119.538 17.82C119.538 18.7667 119.411 19.5867 119.158 20.28C118.904 20.96 118.571 21.52 118.158 21.96C117.758 22.4 117.304 22.7267 116.798 22.94C116.291 23.1533 115.778 23.26 115.258 23.26C114.498 23.26 113.818 23.14 113.218 22.9C112.618 22.66 112.164 22.2533 111.858 21.68H111.818V23H109.118V8.72Z" fill="#191530"/>
<defs>
<linearGradient id="paint0_linear_249_25127" x1="15.2404" y1="3.92864" x2="14.0781" y2="29.5162" gradientUnits="userSpaceOnUse">
<stop stop-color="#8930FD"/>
<stop offset="1" stop-color="#49CCF9"/>
</linearGradient>
</defs>
</svg>
