<svg width="116" height="125" viewBox="0 0 116 125" fill="none" xmlns="http://www.w3.org/2000/svg">
<g id="Illustration">
<g id="success-color">
<path id="Vector" d="M78.5609 88.0197C78.5609 88.0197 76.4949 100.72 75.9971 103.85C75.2155 108.76 71.8103 109.025 67.3746 108.77C61.6843 108.44 55.8248 108.15 50.2042 107.23C46.4954 106.625 36.6133 106.98 34.9904 102.73C34.393 101.175 36.0956 90.9047 36.0956 90.9047L37.4596 73.6947C37.4596 73.6947 39.7945 47.7597 40.1728 44.3847C40.4168 42.2647 40.4467 39.4397 42.1642 38.2497C44.3148 36.7847 52.3151 36.5397 63.0733 37.5347C73.8315 38.5297 80.6867 40.5347 81.5878 42.0647C82.4889 43.5947 81.533 50.8447 81.1746 53.9447C81.08 54.7947 80.7215 59.3097 80.3034 64.7947L78.5609 88.0197Z" fill="#7B68EE" stroke="#7B68EE" stroke-width="4" stroke-linecap="round" stroke-linejoin="round"/>
<path id="Vector_2" d="M18.5765 80.8555L14.788 83.7605" stroke="#1D2939" stroke-width="4" stroke-linecap="round" stroke-linejoin="round"/>
<path id="Vector_3" d="M18.9945 35.5551L16.58 33.4551" stroke="#1D2939" stroke-width="4" stroke-linecap="round" stroke-linejoin="round"/>
<path id="Vector_4" d="M22.2604 29.86L20.7868 27.335" stroke="#1D2939" stroke-width="4" stroke-linecap="round" stroke-linejoin="round"/>
<path id="Vector_5" d="M90.7628 28.4699L94.6808 24.5449" stroke="#1D2939" stroke-width="4" stroke-linecap="round" stroke-linejoin="round"/>
<path id="Vector_6" d="M96.7466 66.1553L101.212 65.1104" stroke="#1D2939" stroke-width="4" stroke-linecap="round" stroke-linejoin="round"/>
<path id="Vector_7" d="M97.1049 74.8398L100.266 75.6098" stroke="#1D2939" stroke-width="4" stroke-linecap="round" stroke-linejoin="round"/>
<path id="Vector_8" d="M47.1026 21.405C47.2136 19.5585 46.9073 17.7107 46.2065 16" stroke="#1D2939" stroke-width="4" stroke-linecap="round" stroke-linejoin="round"/>
<path id="Vector_9" d="M49.8256 71.2745C51.6178 73.7745 53.5295 76.8495 55.3565 79.5895C60.4693 75.3395 65.3132 69.8445 70.1572 65.2695" stroke="white" stroke-width="4" stroke-linecap="round" stroke-linejoin="round"/>
</g>
</g>
</svg>
