<svg width="21" height="20" viewBox="0 0 21 20" fill="none" xmlns="http://www.w3.org/2000/svg">
<g id="heroicons-mini/arrow-trending-up">
<path id="Vector (Stroke)" fill-rule="evenodd" clip-rule="evenodd" d="M13.077 15.1217C13.1842 15.5218 13.5955 15.7592 13.9956 15.652L18.7766 14.3709C18.9688 14.3194 19.1326 14.1937 19.232 14.0215C19.3315 13.8492 19.3585 13.6445 19.307 13.4523L18.0259 8.67126C17.9187 8.27116 17.5074 8.03372 17.1073 8.14093C16.7072 8.24813 16.4698 8.65939 16.577 9.05948L17.3865 12.0805C15.1303 10.6903 13.2541 8.90993 11.7935 6.87778C11.6651 6.69908 11.4646 6.5858 11.2452 6.56797C11.0259 6.55014 10.8098 6.62956 10.6542 6.78518L7.5 9.93933L2.78033 5.21966C2.48744 4.92677 2.01256 4.92677 1.71967 5.21966C1.42678 5.51255 1.42678 5.98743 1.71967 6.28032L6.96967 11.5303C7.26256 11.8232 7.73744 11.8232 8.03033 11.5303L11.1039 8.45672C12.6049 10.3695 14.4633 12.0494 16.6492 13.388L13.6073 14.2031C13.2072 14.3103 12.9698 14.7216 13.077 15.1217Z" fill="#E62E2E"/>
</g>
</svg>
